<svg width="293" height="217" viewBox="0 0 293 217" fill="none" xmlns="http://www.w3.org/2000/svg">
<g id="Layer_2" class="logo" data-name="Layer 2">
<path d="M82.8994 98V157.5" stroke="#373633" stroke-width="1.1"/>
<path d="M109.367 104.231L82.8994 157.5" stroke="#373633" stroke-width="1.1"/>
<path d="M130.289 120.617L82.8994 157.5" stroke="#373633" stroke-width="1.1"/>
<path d="M142.399 144.522L82.8994 157.5" stroke="#373633" stroke-width="1.1"/>
<path d="M142.399 170.489L82.8994 157.5" stroke="#373633" stroke-width="1.1"/>
<path d="M130.289 194.272L82.8994 157.5" stroke="#373633" stroke-width="1.1"/>
<path d="M109.367 211.115L82.8994 157.5" stroke="#373633" stroke-width="1.1"/>
<path d="M82.8994 217V157.5" stroke="#373633" stroke-width="1.1"/>
<path d="M56.1602 211.115L82.8994 157.5" stroke="#373633" stroke-width="1.1"/>
<path d="M35.4377 194.272L82.8994 157.5" stroke="#373633" stroke-width="1.1"/>
<path d="M23.3991 170.489L82.8994 157.5" stroke="#373633" stroke-width="1.1"/>
<path d="M23.3991 144.522L82.8994 157.5" stroke="#373633" stroke-width="1.1"/>
<path d="M35.4377 120.617L82.8994 157.5" stroke="#373633" stroke-width="1.1"/>
<path d="M56.1602 104.231L82.8994 157.5" stroke="#373633" stroke-width="1.1"/>
<path d="M96.0732 99.4766L82.8994 157.5" stroke="#373633" stroke-width="1.1"/>
<path d="M120.505 111.413L82.8994 157.5" stroke="#373633" stroke-width="1.1"/>
<path d="M137.28 132.025L82.8994 157.5" stroke="#373633" stroke-width="1.1"/>
<path d="M143.796 158.019L82.8994 157.5" stroke="#373633" stroke-width="1.1"/>
<path d="M138.047 183.34L82.8994 157.5" stroke="#373633" stroke-width="1.1"/>
<path d="M120.972 203.852L82.8994 157.5" stroke="#373633" stroke-width="1.1"/>
<path d="M96.8395 215.645L82.8994 157.5" stroke="#373633" stroke-width="1.1"/>
<path d="M69.7257 215.523L82.8995 157.5" stroke="#373633" stroke-width="1.1"/>
<path d="M44.9528 203.864L82.8994 157.5" stroke="#373633" stroke-width="1.1"/>
<path d="M28.4734 182.851L82.8995 157.5" stroke="#373633" stroke-width="1.1"/>
<path d="M22 156.993L82.8994 157.5" stroke="#373633" stroke-width="1.1"/>
<path d="M27.749 131.671L82.8994 157.5" stroke="#373633" stroke-width="1.1"/>
<path d="M44.7817 111.024L82.8994 157.5" stroke="#373633" stroke-width="1.1"/>
<path d="M68.6179 99.6326L82.8994 157.5" stroke="#373633" stroke-width="1.1"/>
<circle cx="121" cy="89" r="88.5" stroke="#373633"/>
<path d="M93.5039 67.248L82.0319 38.208H81.8399L74.0639 60C70.4639 70.752 69.2639 71.568 66.8639 71.568V72H76.4639V71.568C70.7039 71.568 71.9039 68.64 74.5439 60.96H88.0319L89.9039 65.856C92.1599 71.232 90.6239 71.568 89.1839 71.568V72H97.3439V71.568C95.9039 71.472 95.0399 71.088 93.5039 67.248ZM74.6879 60.528L81.0719 42.72L87.8879 60.528H74.6879ZM136.273 66.576V42.864C136.273 39.264 137.905 38.64 139.969 38.64V38.208H133.537L124.033 68.208L110.689 38.208H103.681V38.64C104.785 38.688 107.185 38.64 108.961 41.664V60.24C108.961 71.04 107.233 71.568 102.577 71.568V72H115.201V71.568C111.121 71.568 109.393 71.328 109.393 60.24V42.48L122.737 72.432H123.121L133.537 39.6V66.576C133.537 71.088 132.097 71.568 130.081 71.568V72H140.161V71.568C138.097 71.568 136.273 71.088 136.273 66.576ZM146.45 38.208V38.592C148.562 38.592 149.09 38.928 149.09 41.904V67.536C149.09 70.8 148.514 71.568 146.45 71.568V72H154.61V71.568C152.594 71.568 151.97 70.8 151.97 67.536V41.904C151.97 38.928 152.546 38.592 154.61 38.592V38.208H146.45ZM180.681 67.776C178.569 55.296 175.305 56.832 172.089 56.256C176.697 56.256 180.585 54.528 180.585 47.376C180.585 39.36 176.697 38.208 167.145 38.208H160.761V38.64C162.873 38.64 163.257 38.688 163.257 41.664V66.528C163.257 71.376 162.825 71.568 160.761 71.568V72H168.297V71.568C166.281 71.568 165.657 71.184 165.657 67.776V56.4H167.913C170.409 56.4 175.737 56.4 176.793 61.536C178.953 71.952 178.713 72 182.505 72H185.385V71.568C184.137 71.472 181.641 71.424 180.681 67.776ZM167.145 55.968H165.657V38.64H167.145C172.761 38.64 177.801 38.208 177.801 47.376C177.801 56.064 173.385 55.968 167.145 55.968ZM216.439 67.248L204.967 38.208H204.775L196.999 60C193.399 70.752 192.199 71.568 189.799 71.568V72H199.399V71.568C193.639 71.568 194.839 68.64 197.479 60.96H210.967L212.839 65.856C215.095 71.232 213.559 71.568 212.119 71.568V72H220.279V71.568C218.839 71.472 217.975 71.088 216.439 67.248ZM197.623 60.528L204.007 42.72L210.823 60.528H197.623ZM30.6331 114.568H28.5211V81.64H30.6331C36.4891 81.64 45.4651 82.072 45.4651 98.104C45.4651 115.048 36.2491 114.568 30.6331 114.568ZM30.6331 81.208H22.6651V81.64C24.7771 81.64 25.5451 82.936 25.5451 85.912V110.152C25.5451 113.416 24.7291 114.568 22.6651 114.568V115H30.6331C40.1851 115 48.6331 113.128 48.6331 98.104C48.6331 84.04 40.1851 81.208 30.6331 81.208ZM76.4183 105.496C76.4183 115 72.1463 114.568 63.6023 114.568H60.9143V98.152H65.4263C67.8743 98.152 70.9463 98.2 70.9463 102.856H71.3783V93.016H70.9463C70.9463 97.672 68.0183 97.72 65.4263 97.72H60.9143V81.64H64.4183C72.1943 81.64 75.7943 81.784 75.7943 89.368H76.2263V81.208H55.6343V81.64C57.7463 81.64 57.9863 81.832 57.9863 84.808V110.344C57.9863 113.608 57.6503 114.568 55.6343 114.568V115H76.8503V105.496H76.4183ZM108.399 103.864V92.008C108.399 82.936 108.207 81.64 113.535 81.64V81.208H103.119V81.64C107.679 81.64 107.967 82.936 107.967 92.008V103.864C107.967 110.152 104.703 113.992 98.5594 113.992C92.7034 113.992 89.1034 110.536 89.1034 104.248V85.864C89.1034 81.736 90.2074 81.64 92.2714 81.64V81.208H83.6314V81.64C85.7434 81.64 86.5594 82.168 86.5594 85.72V103.768C86.5594 111.592 91.0234 115.432 96.9274 115.432C104.559 115.432 108.447 110.776 108.399 103.864ZM138.611 110.776C136.499 98.296 133.235 99.832 130.019 99.256C134.627 99.256 138.515 97.528 138.515 90.376C138.515 82.36 134.627 81.208 125.075 81.208H118.691V81.64C120.803 81.64 121.187 81.688 121.187 84.664V109.528C121.187 114.376 120.755 114.568 118.691 114.568V115H126.227V114.568C124.211 114.568 123.587 114.184 123.587 110.776V99.4H125.843C128.339 99.4 133.667 99.4 134.723 104.536C136.883 114.952 136.643 115 140.435 115H143.315V114.568C142.067 114.472 139.571 114.424 138.611 110.776ZM125.075 98.968H123.587V81.64H125.075C130.691 81.64 135.731 81.208 135.731 90.376C135.731 99.064 131.315 98.968 125.075 98.968ZM174.37 110.248L162.898 81.208H162.706L154.93 103C151.33 113.752 150.13 114.568 147.73 114.568V115H157.33V114.568C151.57 114.568 152.77 111.64 155.41 103.96H168.898L170.77 108.856C173.026 114.232 171.49 114.568 170.05 114.568V115H178.21V114.568C176.77 114.472 175.906 114.088 174.37 110.248ZM155.554 103.528L161.938 85.72L168.754 103.528H155.554ZM198.323 99.064L189.875 93.544C181.667 88.216 187.667 81.208 192.851 81.208C201.155 81.208 201.971 84.136 201.971 91.048H202.451V82.984C202.451 82.984 198.563 80.776 192.851 80.776C187.043 80.776 184.691 84.568 184.691 84.568C181.283 90.712 187.523 94.6 189.827 96.376L198.323 102.04C203.747 105.736 203.363 115 193.907 115C186.131 115 184.595 112.552 184.595 103.768H184.211V112.984C184.211 112.984 187.619 115.432 193.955 115.432C201.107 115.432 202.931 111.496 202.931 111.496C204.371 108.808 204.851 103.384 198.323 99.064ZM231.681 105.496C231.681 115 227.409 114.568 218.865 114.568H216.177V98.152H220.689C223.137 98.152 226.209 98.2 226.209 102.856H226.641V93.016H226.209C226.209 97.672 223.281 97.72 220.689 97.72H216.177V81.64H219.681C227.457 81.64 231.057 81.784 231.057 89.368H231.489V81.208H210.897V81.64C213.009 81.64 213.249 81.832 213.249 84.808V110.344C213.249 113.608 212.913 114.568 210.897 114.568V115H232.113V105.496H231.681ZM265.007 81.592V81.208H258.047V81.592C259.391 82.024 259.679 82.024 259.679 87.64V98.392H244.943V87.64C244.943 82.024 245.231 82.024 246.575 81.592V81.208H239.567V81.592C241.871 82.024 242.207 82.696 242.207 87.64V108.472C242.207 113.704 242.111 113.896 239.567 114.568V115H246.575V114.568C245.231 114.088 244.943 114.328 244.943 108.472V99.112H259.679V108.472C259.679 113.08 259.343 114.088 258.047 114.568V115H265.007V114.568C262.511 113.896 262.415 112.408 262.415 108.472V87.64C262.415 82.024 262.751 82.024 265.007 81.592Z" fill="#FF2121"/>
</g>
</svg>