<svg width="299" height="217" viewBox="0 0 299 217" fill="none" xmlns="http://www.w3.org/2000/svg">
<path class="shapes" d="M88.8994 98V157.5" stroke="#373633" stroke-width="1.1"/>
<path class="shapes" d="M115.367 104.231L88.8994 157.5" stroke="#373633" stroke-width="1.1"/>
<path class="shapes" d="M136.289 120.617L88.8994 157.5" stroke="#373633" stroke-width="1.1"/>
<path class="shapes" d="M148.399 144.522L88.8994 157.5" stroke="#373633" stroke-width="1.1"/>
<path class="shapes" d="M148.399 170.489L88.8994 157.5" stroke="#373633" stroke-width="1.1"/>
<path class="shapes" d="M136.289 194.272L88.8994 157.5" stroke="#373633" stroke-width="1.1"/>
<path class="shapes" d="M115.367 211.115L88.8994 157.5" stroke="#373633" stroke-width="1.1"/>
<path class="shapes" d="M88.8994 217V157.5" stroke="#373633" stroke-width="1.1"/>
<path class="shapes" d="M62.1602 211.115L88.8994 157.5" stroke="#373633" stroke-width="1.1"/>
<path class="shapes" d="M41.4377 194.272L88.8995 157.5" stroke="#373633" stroke-width="1.1"/>
<path class="shapes" d="M29.3992 170.489L88.8995 157.5" stroke="#373633" stroke-width="1.1"/>
<path class="shapes" d="M29.3992 144.522L88.8995 157.5" stroke="#373633" stroke-width="1.1"/>
<path class="shapes" d="M41.4377 120.617L88.8995 157.5" stroke="#373633" stroke-width="1.1"/>
<path class="shapes" d="M62.1602 104.231L88.8994 157.5" stroke="#373633" stroke-width="1.1"/>
<path class="shapes" d="M102.073 99.4766L88.8994 157.5" stroke="#373633" stroke-width="1.1"/>
<path class="shapes" d="M126.505 111.413L88.8994 157.5" stroke="#373633" stroke-width="1.1"/>
<path class="shapes" d="M143.28 132.025L88.8994 157.5" stroke="#373633" stroke-width="1.1"/>
<path class="shapes" d="M149.796 158.019L88.8994 157.5" stroke="#373633" stroke-width="1.1"/>
<path class="shapes" d="M144.047 183.34L88.8994 157.5" stroke="#373633" stroke-width="1.1"/>
<path class="shapes" d="M126.972 203.852L88.8994 157.5" stroke="#373633" stroke-width="1.1"/>
<path class="shapes" d="M102.839 215.645L88.8994 157.5" stroke="#373633" stroke-width="1.1"/>
<path class="shapes" d="M75.7256 215.523L88.8993 157.5" stroke="#373633" stroke-width="1.1"/>
<path class="shapes" d="M50.9529 203.864L88.8995 157.5" stroke="#373633" stroke-width="1.1"/>
<path class="shapes" d="M34.4734 182.851L88.8995 157.5" stroke="#373633" stroke-width="1.1"/>
<path class="shapes" d="M28 156.993L88.8994 157.5" stroke="#373633" stroke-width="1.1"/>
<path class="shapes" d="M33.749 131.671L88.8994 157.5" stroke="#373633" stroke-width="1.1"/>
<path class="shapes" d="M50.7817 111.024L88.8994 157.5" stroke="#373633" stroke-width="1.1"/>
<path class="shapes" d="M74.6179 99.6326L88.8995 157.5" stroke="#373633" stroke-width="1.1"/>
<circle class="shapes" cx="127" cy="89" r="88.5" stroke="#373633"/>
<path class="text" d="M77.0963 60.816L83.1923 43.968L89.7203 60.816H77.0963ZM100.376 71.472C98.9843 71.376 98.0243 71.184 96.4883 67.344C96.4883 67.344 87.7523 45.264 84.8243 38.208H84.4883L76.5683 60.048C72.6803 70.944 71.4803 71.472 69.3683 71.472V72H79.5443V71.472C73.3043 71.568 74.9363 67.104 76.9523 61.344H89.9123L91.6403 65.904C93.3683 69.936 92.8403 71.472 90.8243 71.472V72H100.376V71.472ZM140.784 66.48V42.96C140.784 39.552 142.416 38.736 144.48 38.736V38.208H136.992L127.44 66.816L114.576 38.208H106.272V38.736C107.424 38.784 109.824 38.784 111.6 41.856V60.144C111.6 68.256 110.304 71.472 105.024 71.472V72H118.128V71.472C113.376 71.472 112.128 68.448 112.128 60.144V42.768L125.472 72.432H126L136.992 39.84V66.48C136.992 70.704 135.552 71.472 133.536 71.472V72H144.72V71.472C142.656 71.472 140.784 70.704 140.784 66.48ZM151.594 38.208V38.688C153.706 38.688 154.618 39.264 154.618 42.24V67.2C154.618 70.464 153.658 71.472 151.594 71.472V72H161.482V71.472C159.466 71.472 158.506 70.464 158.506 67.2V42.24C158.506 39.264 159.418 38.688 161.482 38.688V38.208H151.594ZM185.53 47.376C185.53 55.968 181.306 55.92 175.45 55.92H173.962V38.736H175.45C180.826 38.736 185.53 38.4 185.53 47.376ZM194.602 71.472C193.354 71.376 190.474 71.136 189.658 67.44C187.066 56.016 184.09 56.544 180.874 56.208C185.77 56.064 189.61 54.192 189.61 47.376C189.61 39.36 185.002 38.208 175.45 38.208H167.674V38.736C169.786 38.736 170.41 39.12 170.41 42.096V66.432C170.41 70.896 169.738 71.472 167.674 71.472V72H176.842V71.472C174.826 71.472 173.962 70.752 173.962 67.392V56.448H176.218C178.09 56.448 183.178 56.448 184.378 61.536C186.826 71.952 186.346 72 191.338 72H194.602V71.472ZM206.36 60.816L212.456 43.968L218.984 60.816H206.36ZM229.64 71.472C228.248 71.376 227.288 71.184 225.752 67.344C225.752 67.344 217.016 45.264 214.088 38.208H213.752L205.832 60.048C201.944 70.944 200.744 71.472 198.632 71.472V72H208.808V71.472C202.568 71.568 204.2 67.104 206.216 61.344H219.176L220.904 65.904C222.632 69.936 222.104 71.472 220.088 71.472V72H229.64V71.472ZM45.406 98.152C45.406 114.568 36.766 114.472 31.39 114.472H29.278V81.736H31.39C36.958 81.736 45.406 82.36 45.406 98.152ZM49.918 98.152C49.918 84.088 40.942 81.208 31.39 81.208H22.222V81.736C24.334 81.736 25.294 83.416 25.294 86.392V109.72C25.294 112.984 24.286 114.472 22.222 114.472V115H31.39C40.942 115 49.918 112.936 49.918 98.152ZM79.2423 105.256C78.7623 114.808 72.3783 114.472 65.9463 114.472H63.4983V98.2H67.3383C69.1623 98.2 73.2903 98.248 73.4343 103H73.9623V92.92H73.4343C73.2903 97.624 69.2583 97.672 67.3383 97.672H63.4983V81.736H66.5703C72.4263 81.736 78.3783 81.832 78.6183 89.608H79.1463V81.208H57.1143V81.736C59.2263 81.736 59.5623 82.6 59.5623 85.576V109.864C59.5623 113.128 59.1303 114.472 57.1143 114.472V115H79.7703V105.256H79.2423ZM101.472 115.432C108.24 115.432 113.088 111.544 113.04 103.768V91.336C113.04 84.52 112.848 81.736 118.656 81.736V81.208H107.232V81.736C112.32 81.736 112.512 84.52 112.512 91.336V103.768C112.512 110.008 109.008 113.656 103.488 113.656C97.9203 113.656 94.3683 110.2 94.3683 104.056V85.96C94.3683 82.024 95.8083 81.736 97.8723 81.736V81.208H87.5523V81.736C89.6643 81.736 90.7203 82.456 90.7203 85.864V103.624C90.7203 111.448 95.4243 115.432 101.472 115.432ZM141.773 90.376C141.773 98.968 137.549 98.92 131.693 98.92H130.205V81.736H131.693C137.069 81.736 141.773 81.4 141.773 90.376ZM150.845 114.472C149.597 114.376 146.717 114.136 145.901 110.44C143.309 99.016 140.333 99.544 137.117 99.208C142.013 99.064 145.853 97.192 145.853 90.376C145.853 82.36 141.245 81.208 131.693 81.208H123.917V81.736C126.029 81.736 126.653 82.12 126.653 85.096V109.432C126.653 113.896 125.981 114.472 123.917 114.472V115H133.085V114.472C131.069 114.472 130.205 113.752 130.205 110.392V99.448H132.461C134.333 99.448 139.421 99.448 140.621 104.536C143.069 114.952 142.589 115 147.581 115H150.845V114.472ZM162.603 103.816L168.699 86.968L175.227 103.816H162.603ZM185.883 114.472C184.491 114.376 183.531 114.184 181.995 110.344C181.995 110.344 173.259 88.264 170.331 81.208H169.995L162.075 103.048C158.187 113.944 156.987 114.472 154.875 114.472V115H165.051V114.472C158.811 114.568 160.443 110.104 162.459 104.344H175.419L177.147 108.904C178.875 112.936 178.347 114.472 176.331 114.472V115H185.883V114.472ZM211.891 111.496C213.859 108.184 213.571 102.808 207.091 98.536L198.883 93.16C191.155 88.168 196.147 81.304 201.331 81.304C209.491 81.304 210.835 85.24 211.027 91.096H211.603V83.032C211.603 83.032 207.667 80.776 201.331 80.776C195.091 80.776 192.739 84.52 192.739 84.52C189.187 90.472 194.467 94.552 197.923 96.952L206.131 102.376C211.651 106.216 210.979 114.904 202.627 114.904C194.659 114.904 192.787 110.968 192.547 103.624H192.067V112.84C192.067 112.84 195.571 115.432 202.627 115.432C209.923 115.432 211.891 111.496 211.891 111.496ZM242.896 105.256C242.416 114.808 236.032 114.472 229.6 114.472H227.152V98.2H230.992C232.816 98.2 236.944 98.248 237.088 103H237.616V92.92H237.088C236.944 97.624 232.912 97.672 230.992 97.672H227.152V81.736H230.224C236.08 81.736 242.032 81.832 242.272 89.608H242.8V81.208H220.768V81.736C222.88 81.736 223.216 82.6 223.216 85.576V109.864C223.216 113.128 222.784 114.472 220.768 114.472V115H243.424V105.256H242.896ZM275.35 87.736C275.35 82.6 275.542 82.12 277.798 81.688V81.208H270.118V81.688C271.462 82.12 271.606 82.6 271.606 87.736V98.392H257.638V87.736C257.638 82.6 257.83 82.12 259.174 81.688V81.208H251.398V81.688C253.702 82.12 253.942 83.128 253.942 87.736V108.472C253.942 113.368 253.942 113.8 251.398 114.472V115H259.174V114.472C257.83 113.992 257.638 113.848 257.638 108.472V99.16H271.606V108.472C271.606 112.936 271.414 113.992 270.118 114.472V115H277.798V114.472C275.302 113.8 275.35 112.408 275.35 108.472V87.736Z" fill="#FF2121"/>
</svg>
