<svg width="198" height="198" viewBox="0 0 198 198" fill="none" xmlns="http://www.w3.org/2000/svg">
<path class="outline" fill-rule="evenodd" clip-rule="evenodd" d="M98.723 1C92.749 0.9999 87.356 6.5548 83.46 15.4957C83.412 15.447 83.354 15.3905 83.306 15.3421C76.529 8.4584 69.569 5.2486 64.02 7.3572C57.549 9.8158 54.564 19.0585 54.99 31.2506C44.031 25.8898 34.353 24.87 29.469 29.7764C24.731 34.5374 25.613 43.7841 30.606 54.3151C29.252 54.2781 27.821 54.1691 26.552 54.2231C16.9 54.6301 9.85401 57.6301 7.69501 63.1591C5.53601 68.6891 8.674 75.6981 15.496 82.5381C15.712 82.7561 16.009 82.9661 16.233 83.1831C6.89 87.0991 1 92.5981 1 98.7231C1 104.705 6.566 110.12 15.526 114.017C8.551 120.836 5.266 127.842 7.388 133.427C9.847 139.899 19.084 142.915 31.281 142.487C25.924 153.443 24.902 163.095 29.807 167.977C34.566 172.714 43.789 171.828 54.315 166.841C53.998 178.491 56.933 187.308 63.19 189.751C68.889 191.977 76.146 188.503 83.183 181.244C87.099 190.573 92.603 196.446 98.723 196.446C104.697 196.446 110.091 190.891 113.987 181.951C120.809 188.935 127.869 192.182 133.458 190.059C139.925 187.601 142.909 178.378 142.487 166.196C153.447 171.557 163.125 172.576 168.008 167.67C172.745 162.911 171.858 153.657 166.872 143.132C178.514 143.446 187.309 140.51 189.752 134.256C191.98 128.55 188.492 121.309 181.214 114.263C190.559 110.347 196.447 104.849 196.447 98.7231C196.446 92.7491 190.892 87.3561 181.951 83.4601C182 83.4121 182.056 83.3541 182.104 83.3061C188.988 76.5291 192.198 69.5691 190.089 64.0191C187.631 57.5491 178.388 54.5331 166.196 54.9601C171.56 43.9961 172.578 34.3539 167.67 29.4693C162.908 24.7299 153.666 25.6105 143.132 30.6056C143.169 29.2463 143.278 27.8257 143.224 26.5517C142.816 16.9002 139.817 9.8543 134.287 7.695C128.581 5.4669 121.309 8.9535 114.263 16.2328C110.347 6.8884 104.849 1 98.723 1Z" fill="#F2F0E7" stroke="#373633" stroke-width="1.83" stroke-linecap="round" stroke-linejoin="round"/>
</svg>
