<svg xmlns="http://www.w3.org/2000/svg" width="1080" height="1080" viewBox="0 0 1080 1080"><title>codepen</title><g id="Layer_2" class="text" data-name="Layer 2"><path d="M124.8262,644.502c9.834-.8506,27.7519,3.9462,35.6689,26.2763,7.7246,21.791-5.6474,46.3975-29.4189,54.8252-21.25,7.5332-48.7227-.77-59.0645-29.9433-5.4267-15.3067-1.0625-24.1524.81-27.4512,1.9346-3.1182,5.81-5.9111,9.8057-5.5029a11.0544,11.0544,0,0,1,10.6035,11.039,10.5606,10.5606,0,0,1-10.9864,10.1787,9.4988,9.4988,0,0,1-7.4345-3.2431c-1.1153-1.4287-3.4805,4.4775-.0967,14.0224,2.4258,6.8428,14.584,23.4121,46.8193,11.9844,21.79-7.7246,26.7608-22.8662,24.2725-36.1748-2.3369-11.7393-13.6494-21.9189-21.4727-23.4023Z"/><path d="M140.8076,581.1948c2.959,28.89-16.1611,46.5972-41.06,49.148-25.0878,2.57-47.2119-10.9121-50.1709-39.8018-2.9794-29.08,15.9512-46.7681,41.04-49.3379C115.5146,538.6523,137.8281,552.1152,140.8076,581.1948Zm-88.38,9.0542c1.4414,14.0645,10.4854,19.86,44.8868,16.336s42.083-11.0332,40.6416-25.0977c-1.46-14.2549-10.4844-19.86-44.8858-16.3364S50.9678,575.9941,52.4277,590.249Z"/><path d="M146.9111,428.28l.1338,24.7529c-.041,5.4043-4.1982,4.7778-4.1982,4.7778l-10.958-1.6518c9.48,7.6123,11.6435,21.4638,10.2773,30.5327-3.5312,23.4277-24.5517,37.2637-52.5146,33.05-30.04-4.5273-41.2491-26.312-37.377-52.0068a44.0075,44.0075,0,0,1,9.709-22.11l-37.5986-5.666c-6.6123-.9966-9.1641.5508-12.41,7.9839l-2.834-.4268L7.5361,417.13,131.1,435.752c9.2578,1.395,11.2432-.2378,12.9775-7.899ZM88.0557,449.5537c-20.9717-3.1606-31.21,7.083-32.8907,18.2305-1.9931,13.2251,6.2481,23.935,35.7217,28.3769,30.23,4.5557,43.8945-1.5,46.2862-17.3711,1.9082-12.6582-6.04-22.7446-19.2657-24.7378Z"/><path d="M161.3584,341.1729c7.6787,5.9023,17.5059,22.0219,8.22,44.2319-9.3593,22.3862-35.7353,29.9961-57.7685,20.7837-25.3828-10.6128-35.8321-34.6548-26.1778-57.7461s28.0791-30.5049,55.753-18.9341L117.9482,385.562c20.89,7.4917,34.2852,1.7026,41.5313-10.1777,5.86-9.5606,6.4531-24.8443-.3867-32.26Zm-30.2822,5.562c-23.9727-10.0235-39.336-5.4712-43.0948,3.518-4.2744,10.2237,7.7569,26.023,27.3233,34.2036Z"/><path d="M219.3164,298.7383c-5.5068,7.334-12.3115,12.2593-19.0771,14.5864l28.8769,21.6841c8.4033,6.31,12.3379,8.07,17.8428,3.6025l2.292,1.7212-21.4541,28.5708-2.292-1.7207c2.6787-7.0679-.7588-10.1274-8.5508-15.9785l-81.1289-60.9219c-5.3477-4.0156-7.7559-3.6733-14.14,1.3291l-2.2919-1.7212,12.7031-27.7353,12.07,9.0635c-5-11.1612-.4824-24.4952,5.14-31.9815,14.1114-18.793,38.875-21.2236,61.4873-4.2436C234.9346,253.1206,235.0342,277.8066,219.3164,298.7383Zm-69.6338-49.1836c-7.2285,9.6255-4.3691,21.0913,4.7207,29.3506l28.2656,21.2256c15.4707,9.9443,27.587,5.9008,34.126-2.8081,8.0313-10.6949,5.5557-24.2623-18.2793-42.16C174.07,236.8057,159.3193,236.7207,149.6826,249.5547Z"/><path d="M301.499,185.0752c3.9561,8.8408,4.9541,27.6934-13.7627,42.834-18.8652,15.2607-45.6924,9.4385-60.7129-9.1294-17.3027-21.3906-15.0879-47.5117,4.3721-63.2534s39.1943-13.521,58.0606,9.8007l-47.2373,38.212c14.83,16.51,29.3691,17.7739,41.3857,10.7563,9.6973-5.6328,17.4736-18.8042,14.9736-28.5781Zm-29.2939-9.48c-16.3428-20.2017-32.0264-23.4888-39.6016-17.36-8.6152,6.97-5.5254,26.5869,7.8125,43.0751Z"/><path d="M407.8164,156.4209l-32.24,15.3994-1.2354-2.5859c5.6455-5.0259,3.52-10.3628-.6806-19.1558l-16.8819-35.3437c-4.7763-10-13.9326-14.0962-23.9316-9.32-7.7588,3.7056-11.7285,15.3423-9.2891,22.2237l18.1172,37.93c4.5293,9.4824,7.7051,13.4712,14.5625,12.3129l1.2354,2.586-32.0684,15.3174-1.2344-2.586c5.6455-5.0258,3.43-10.1084-.77-18.9008l-20.7529-43.4473c-2.8819-6.0342-5.4219-7.3618-13.8906-6.9165l-1.2354-2.5864,24.0957-18.7085,8.73,18.2754c-1.1484-12.1563,7.9941-26.2637,18.8564-31.4517,13.62-6.5059,25.64-4.8359,35.6045,16.0254l17.1289,35.8608c4.5293,9.4829,7.6973,13.8985,14.6456,12.4854Z"/><path d="M644.7842,124.9048c-3.9024,9.0669-16.6035,22.5845-40.0225,18.9971-22.8515-3.5005-38.206-26.9214-34.3867-51.8506,3.4131-22.2852,23.7227-42.562,54.3174-37.8755,16.0527,2.459,21.7812,10.4883,23.8027,13.6972,1.832,3.18,2.46,7.9151.21,11.2432a11.0543,11.0543,0,0,1-14.7412,4.12,10.561,10.561,0,0,1-3.7715-14.4941,9.501,9.501,0,0,1,6.374-5.0156c1.7861-.3067-2.2988-5.1846-12.3076-6.7178-7.1768-1.1-27.5264,1.7754-32.7051,35.581-3.5,22.8516,7.4893,34.3926,20.3906,38.4956,11.4493,3.4932,25.7686-1.6582,30.7754-7.85Z"/><path d="M693.0068,168.9214c-26.8486-11.0679-33.3964-36.292-23.8574-59.4312,9.6113-23.3159,31.96-36.4218,58.8086-25.354,27.0244,11.1407,33.6445,36.188,24.0332,59.5044C742.4531,166.78,720.0312,180.062,693.0068,168.9214Zm33.8584-82.1358c-13.0713-5.3881-22.457-.1645-35.6367,31.8062s-10.2012,42.292,2.87,47.68c13.2481,5.4609,22.4571.1645,35.6368-31.8062S740.1133,92.2471,726.8652,86.7856Z"/><path d="M824.5859,246.915,802.75,235.2588c-4.7324-2.6074-2.2051-5.9653-2.2051-5.9653l6.6651-8.8526c-11.2041,4.7173-24.417.0313-31.7432-5.4844-18.9268-14.25-21.0967-39.32-4.09-61.91,18.2714-24.2686,42.7636-23.7652,63.5224-8.1367a44.0026,44.0026,0,0,1,14.8291,19.0561l22.8682-30.374c4.0215-5.3423,3.874-8.3228-1.12-14.7134l1.7236-2.29,27.4883,13.0424-75.1533,99.8223c-5.6309,7.479-5.1387,10.002.7744,15.1714ZM833.87,185.03c12.7559-16.9424,8.6162-30.8208-.39-37.6006-10.6836-8.0439-24.0235-5.89-41.95,17.92-18.3867,24.4214-19.56,39.3218-6.7393,48.9746,10.2266,7.6992,22.8789,5.5059,30.9229-5.1782Z"/><path d="M894.5176,300.9028c-8.834,3.9717-27.6856,5-42.8565-13.6914-15.292-18.84-9.5136-45.6767,9.0293-60.7275,21.3623-17.3389,47.4873-15.166,63.2608,4.2671s13.5849,39.1728-9.7051,58.0766l-38.29-47.1738c-16.4854,14.8569-17.7256,29.398-10.6875,41.4033,5.6484,9.6875,18.833,17.4419,28.6025,14.9263Zm9.4316-29.309c20.1748-16.3755,23.4356-32.0645,17.2949-39.63-6.9834-8.604-26.5957-5.4815-43.0625,7.8838Z"/><path d="M904.5449,372.0376c-3.8574-8.32-4.9785-16.645-3.8291-23.7061l-32.7617,15.1866c-9.5332,4.4194-12.9453,7.0542-11.6123,14.0175l-2.6006,1.2051-15.0254-32.4145,2.6-1.2051c4.96,5.7026,9.2813,4.1211,18.1221.0229l92.043-42.6669c6.0674-2.8125,6.9043-5.0958,5.5156-13.0865l2.6006-1.2055,18.4287,24.309-13.6943,6.3477c12.1982.874,21.8095,11.16,25.747,19.6533,9.8838,21.3208.3135,44.2886-25.3408,56.1807C937.35,407.3716,915.5527,395.7852,904.5449,372.0376ZM980.81,333.9468c-5.0616-10.92-16.5157-13.8238-28.0918-9.7212l-32.0684,14.8652c-16.0781,8.9273-18.2451,21.5147-13.665,31.395,5.625,12.1338,18.749,16.3687,45.79,3.8335C980.5088,361.4629,987.56,348.5073,980.81,333.9468Z"/><path d="M965.5654,498.2183c-9.6582-.7217-26.7177-8.8067-31.1406-32.47-4.457-23.851,13.419-44.6845,36.8945-49.0712,27.044-5.0538,48.9707,9.3134,53.5684,33.916s-6.7383,40.9092-36.2236,46.4189l-11.16-59.7217c-21.5752,5.1978-29.5986,17.3868-29.1377,31.295.3457,11.2085,8.2363,24.3115,18.0225,26.7583Zm22.2657-21.2647c25.5419-4.7729,35.8886-17.0078,34.0986-26.5859-2.0352-10.8926-20.7627-17.5-41.6094-13.6045Z"/><path d="M940.32,605.44l1.7207-35.688,2.8633.1382c1.749,7.3531,7.4561,8.0108,17.1895,8.48l39.122,1.8862c11.0694.5337,19.0156-5.5869,19.5488-16.6557.4141-8.5879-7.95-17.5987-15.165-18.7119l-41.9853-2.024c-10.4971-.5063-15.5137.3994-17.7442,6.9869l-2.8623-.1377,1.711-35.4966,2.8623.1377c1.75,7.3535,7.2753,7.811,17.0078,8.28l48.0927,2.3189c6.6788.3218,9.0518-1.2852,12.6739-8.9536l2.8623.1382,5.0537,30.0839-20.23-.9751c11.248,4.75,19.3369,19.4869,18.7568,31.51-.7265,15.0772-7.8935,24.8692-30.9853,23.7559L961.1182,598.6c-10.4961-.5058-15.8858.19-17.9346,6.9785Z"/><path d="M818.1152,865.335c-5.1338-8.4307-8.8007-26.6133,7.6827-43.6309,16.0849-16.6055,44.0712-15.5654,62.1875,1.9824,16.1933,15.6865,20.9677,43.9854-.5674,66.2178-11.2989,11.665-21.1631,11.6875-24.9492,11.4775-3.6543-.3476-7.878-2.5771-9.2891-6.3379a11.0549,11.0549,0,0,1,5.1748-14.4052,10.5626,10.5626,0,0,1,14.0029,5.3164,9.503,9.503,0,0,1,.3985,8.1015c-.7842,1.6338,5.5586,1.127,12.6035-6.1464,5.0517-5.2149,14.4892-23.4717-10.0762-47.2666-16.6055-16.085-32.3779-13.8067-43.1934-5.6631-9.4765,7.3125-13.5673,21.9707-11.4179,29.6386Z"/><path d="M754.3066,879.3213c24.5313-15.542,48.91-6.335,62.3057,14.8076,13.4961,21.3037,11.3057,47.1191-13.2266,62.66-24.6933,15.6445-48.97,6.5986-62.4668-14.7051C727.5244,920.9414,729.6133,894.9658,754.3066,879.3213Zm47.5459,75.0469c11.9424-7.5664,13.0928-18.2461-5.415-47.458s-28.6543-32.7344-40.5977-25.168c-12.1044,7.6689-13.0927,18.2461,5.4141,47.458S789.748,962.0371,801.8525,954.3682Z"/><path d="M614.7285,941.7432l22.126-11.0948c4.8613-2.3584,6.1426,1.6446,6.1426,1.6446l3.3789,10.5537c2.6191-11.8721,14.0752-19.9522,22.81-22.7471,22.5625-7.2226,44.2833,5.4844,52.9034,32.415,9.2607,28.9317-5.2959,48.6358-30.042,56.5567a44.0019,44.0019,0,0,1-24.1211,1.1006l11.59,36.2109c2.0391,6.3682,4.5576,7.97,12.6582,7.583l.8741,2.73-26.5225,14.9082L628.4346,952.6016c-2.8535-8.9161-5.1973-9.9717-12.833-8.13Zm45.1592,43.3183c6.4648,20.1983,20.1855,24.833,30.9219,21.3965,12.7373-4.0762,18.6826-16.2109,9.5966-44.5967-9.3183-29.1133-20.8056-38.6767-36.09-33.7842-12.1914,3.9024-17.708,15.4971-13.6309,28.2344Z"/><path d="M530.248,967.4453c1.878-9.501,11.9561-25.4648,35.9795-27.0088,24.2139-1.5556,42.7452,18.6953,44.2764,42.5274,1.7647,27.455-15.1348,47.4941-40.1113,49.1s-39.8008-11.6094-41.7246-41.543l60.63-3.8965c-2.5655-22.0429-13.7012-31.4736-27.5635-32.6885-11.169-1.0058-25.125,5.252-28.7315,14.6729Zm18.4327,24.6611c1.666,25.93,12.5673,37.6729,22.291,37.0479,11.0576-.7109,19.8691-18.5068,18.51-39.67Z"/><path d="M466.3789,934.5439c9.0205,1.6573,16.4639,5.55,21.5645,10.5655l6.5234-35.5147c1.8984-10.3359,1.7178-14.6426-4.7363-17.5761l.5175-2.8184,35.14,6.4541-.5176,2.8193c-7.52.7549-8.7246,5.1963-10.4844,14.7793l-18.3281,99.7813c-1.208,6.5771.1729,8.5791,7.4971,12.0615l-.5176,2.8184-30.4873,1.0048,2.7266-14.8457c-7.7588,9.4532-21.7061,11.3594-30.9141,9.668-23.1133-4.2451-36.3359-25.3223-31.2275-53.1328C418.5879,940.918,440.6357,929.8154,466.3789,934.5439Zm-12.95,84.2579c11.8379,2.1748,20.8233-5.4991,24.16-17.3184l6.3847-34.7637c1.9981-18.2812-7.0254-27.32-17.7363-29.2881-13.1533-2.416-24.19,5.8526-29.5752,35.167C431.14,1002.6641,437.6436,1015.9023,453.4287,1018.8018Z"/><path d="M328.09,911.4629c6.169-7.4668,22.6231-16.7236,44.4952-6.6641,22.0449,10.1387,28.7265,36.7647,18.747,58.4629-11.4961,24.9961-35.8906,34.5967-58.63,24.1387s-29.5029-29.1318-16.97-56.3848l55.2,25.3877c8.22-20.6142,2.9033-34.206-8.7168-41.8633-9.3486-6.1923-24.6035-7.3193-32.2539-.7441Zm4.4981,30.46c-10.8574,23.6074-6.8467,39.121,2.0059,43.1923,10.0683,4.6309,26.2792-6.84,35.1416-26.1084Z"/><path d="M255.2959,828.8516,283.3936,850.92l-1.7706,2.2539c-7.0078-2.832-10.8486,1.4395-16.8671,9.1026l-24.1924,30.8017c-6.8447,8.7149-6.4561,18.7373,2.2588,25.5821,6.7607,5.31,18.9511,3.7089,24.0361-1.5284l25.9629-33.0556c6.49-8.2637,8.6572-12.8789,4.5781-18.5117l1.77-2.254,27.9473,21.95-1.7705,2.2539c-7.0078-2.831-10.58,1.4083-16.5987,9.07l-29.7392,37.8642c-4.13,5.2588-4.1943,8.124-.04,15.5166l-1.77,2.2539-27.4521-13.3008,12.5088-15.9267c-10.3858,6.4189-27.083,4.48-36.55-2.9551-11.8692-9.3232-15.7022-20.8369-1.4229-39.0176l24.5459-31.2519c6.4912-8.2647,9.0439-13.0615,4.6973-18.6621Z"/></g></svg>