<svg xmlns="http://www.w3.org/2000/svg" width="1080" height="1080" viewBox="0 0 1080 1080"><title>github</title><g id="Layer_2" class="text" data-name="Layer 2"><path d="M111.8115,710.1162a7.855,7.855,0,0,1-5.3154,4.6318c-1.4033.4786,1.6768,4.7071,6.85,5.668a25.5359,25.5359,0,0,1,12.9014-13.8467c13.3974-6.5195,30.8564-.4912,40.5146,19.3575,3.14,6.4511,4.7266,11.8154,4.92,16.8359,4.5518,5.15,24.4414,6.9268,15.4268-11.5986l-10.4639-21.502c-5.5537-11.4131-14.7207-31.0918,10.05-39.4639,0,0,13.7207-5.8584,31.9307,6.7608,23.8438,16.6279,35.542,45.7129,25.6953,58.6875-8.6816,11.5889-25.6836,9.0205-35.9668,1.3408.1035,5.6777-2.7529,11.1592-9.3691,14.3789,0,0-14.3135,7.5791-27.2539-5.5586.4668,10.2061-6.1309,19.35-14.8975,23.6153-13.3984,6.5195-30.6914.41-40.1885-19.1075-5.0713-10.4209-6.123-19.7285-4.0674-27.2754a24.9215,24.9215,0,0,1-16.833-10.6289,10.6146,10.6146,0,0,1-1.2929-9.8037,9.516,9.516,0,0,1,12.3916-4.8027A9.3336,9.3336,0,0,1,111.8115,710.1162Zm7.3135,38.9922c4.0244,8.2695,10.9727,12.458,29.498,3.4434s19.1993-18.14,15.6582-25.417c-3.7031-7.6094-11.2988-12.709-29.8242-3.6944S115.6641,741.9961,119.125,749.1084Zm97.9932-69.78c-13.0723-8.3672-22.6836-2.0537-22.6836-2.0537s-8.1182,5.1777-1.76,18.2451l11.1074,22.8252c.8858,1.82,4.2754,7.9444,4.7725,15.2715,16.9941,10.96,24.9316-8.041,24.8467-7.7949C239.3857,712.4756,233.54,689.9531,217.1182,679.3281Z"/><path d="M59.8213,682.375a10.9142,10.9142,0,0,1-13.4727-7.6211A11.2292,11.2292,0,0,1,54.1,661.0557,11.0725,11.0725,0,0,1,67.49,669.0791,10.7573,10.7573,0,0,1,59.8213,682.375Zm100.9551-58.1406,8.8691,33.0439-2.665.7149c-3.9444-6.1787-9.1914-5.15-18.252-2.7188l-44.415,11.9209c-6.04,1.6211-8.05,4.0654-9.1153,12.16l-2.665.7148L79.0537,653.9766l64.668-17.3565c9.7715-2.623,14.3291-4.7988,14.39-11.6709Z"/><path d="M136.4082,560.5332c8.5947,2.106,18.17,10.7632,19.5684,22.2671,1.663,13.6948-3.1592,22.8052-25.2539,25.49l-55.3282,6.7217,1.1094,9.1309-2.6728.88-1.1758-9.6778-25.1992,3.0615L42,599.4277l28.3037-3.4384-2.6406-21.73,2.8281.3979,2.5508,20.999L127.8232,589c12.417-1.5078,16.9532-6.877,15.8653-15.8247a12.679,12.679,0,0,0-8.4522-10.0908Z"/><path d="M156.4531,465.7554l-2.5683,34.3037-2.752-.2061c-1.4961-7.122-7.1553-7.9145-16.5107-8.6147l-36.8711-2.76c-11.9239-.893-18.5733,4.1436-19.4522,15.8838-.5215,6.9707,5.0381,14.0278,11.5645,18.021l42.1914,3.1587c10.0889.7554,15.2939.2227,17.4394-6.2573l2.9346.22-2.5674,34.3032-2.9355-.22c-1.4961-7.1216-6.9717-7.9009-16.3272-8.6011l-96.49-7.2236c-6.42-.4805-8.5615,1.0195-11.1426,8.39l-2.7519-.206-4.461-29.1113,70.0742,5.2461c-9.8417-4.0577-19.03-19.3184-18.1513-31.0586C68.7881,476.1641,76.46,467.33,98.4727,468.978l37.6054,2.8155c10.0889.7553,15.4912.0527,17.6231-6.2442Z"/><path d="M183.376,373.4438l-3.5391,24.2081c-.8008,4.7719-4.4687,3.561-4.4687,3.561l-15.0215-4.96c8.3955,6.84,12.6865,22.5918,8.9375,33.9454-4.3262,13.1-12.97,21.6752-34.2783,14.6381l-38.253-12.6313c-11.0039-3.6338-11.9365-4.3291-16.33,5.4556l-2.6192-.8653,5.9668-29.2173,56.7676,18.7456c11.5273,3.8067,18.4951-.8667,21.84-10.997,2.1924-6.6377-.8564-15.0054-6.9218-20.6885l-41.7452-13.7852c-10.6552-3.5185-12.2285-4.6191-15.8115,3.8833l-2.62-.8652,5.5068-27.82,66.8975,22.0908c8.3838,2.7686,9.9512,1.5425,13.2471-5.5054Z"/><path d="M216.0645,329.37c-5.8936,9.1123-13.7686,15.1909-22.0079,17.0913,1.2823,7.8394-.46,18.3228-2.9306,16.7246L93.8223,300.249c-5.251-3.3969-8.5674-3.3506-14.3614,1.8828l-2.3173-1.4985,10.6425-27.291,54.5205,35.2646c-5.6074-10.6367-2.4755-23.9458,2.52-31.6679,12.2881-18.9976,36.06-22.899,58.9189-8.1138C228.1484,284.6094,229.751,308.21,216.0645,329.37Zm-69.72-42.2475c-6.9922,10.8115-2.4941,22.4839,8.9356,29.8764l21.4687,13.8858c17.7608,11.4887,30.6055,6.8716,36.7989-2.7046,6.9931-10.811,3.6025-23.52-20.4913-39.1035C168.6533,273.292,154.8369,273.9937,146.3447,287.1221Z"/><path d="M351.4893,119.5977a7.8548,7.8548,0,0,1-4.8584-5.1089c-.5391-1.3814-4.63,1.88-5.3653,7.0893A25.5353,25.5353,0,0,1,355.66,133.8643c7.0957,13.101,1.832,30.8046-17.5772,41.3169-6.3086,3.4165-11.5986,5.2358-16.6055,5.6464-4.9472,4.771-5.8574,24.7188,12.2579,14.9078l21.0263-11.3882c11.16-6.0445,30.4209-16.0581,39.8613,8.3247,0,0,6.4483,13.4516-5.3662,32.1924-15.5752,24.5429-44.123,37.4941-57.5127,28.2207-11.955-8.1685-10.1279-25.2657-2.9033-35.8726-5.667.35-11.2676-2.2646-14.7715-8.7344,0,0-8.1943-13.9707,4.3682-27.4687-10.1758.91-19.5967-5.2842-24.2393-13.8565-7.0957-13.1015-1.7441-30.643,17.3418-40.98,10.1895-5.5191,19.4424-6.9742,27.0713-5.2486a24.9166,24.9166,0,0,1,9.8867-17.2783,10.6157,10.6157,0,0,1,9.7383-1.7183,9.5168,9.5168,0,0,1,5.3369,12.1709A9.3348,9.3348,0,0,1,351.4893,119.5977Zm-38.6358,9.0014c-8.0869,4.38-11.9687,11.503-2.1582,29.6182s18.957,18.3921,26.0733,14.5376c7.44-4.03,12.205-11.84,2.3935-29.9551S319.8086,124.832,312.8535,128.5991Zm73.9707,94.8633c7.791-13.4238,1.0664-22.751,1.0664-22.751s-5.5263-7.8852-18.3037-.9648l-22.32,12.0888c-1.7793.9639-7.751,4.6163-15.0488,5.4312-10.211,17.4536,9.1162,24.5576,8.8672,24.4834C354.6777,247.1489,376.9238,240.33,386.8242,223.4624Z"/><path d="M376.9053,66.4565A10.9133,10.9133,0,0,1,383.93,52.6636a11.2281,11.2281,0,0,1,14.0234,7.1445,11.071,11.071,0,0,1-7.43,13.728A10.7572,10.7572,0,0,1,376.9053,66.4565Zm62.498,98.314-32.624,10.3052-.8311-2.6314c6-4.21,4.7442-9.4072,1.919-18.3525l-13.8516-43.85c-1.8838-5.9639-4.4131-7.8652-12.5468-8.5752l-.8311-2.6313,25.4785-14.6065,20.168,63.8452c3.0469,9.647,5.42,14.106,12.2881,13.8653Z"/><path d="M502.002,137.6514c-1.7315,8.6777-9.9649,18.62-21.3985,20.5161-13.61,2.2563-22.9209-2.1665-26.5615-24.1245l-9.1172-54.9864-9.0742,1.5044-.9951-2.6318,9.6181-1.5947L440.32,51.291l18.7246-6.2744L463.709,73.145l21.5957-3.581-.2744,2.8427-20.8692,3.46,9.0264,54.4419c2.0469,12.34,7.6074,16.6387,16.499,15.1645a12.6809,12.6809,0,0,0,9.7149-8.8828Z"/><path d="M597.5186,153.627l-34.38-1.0928.0879-2.7578c7.05-1.8,7.5986-7.4883,7.8974-16.8648l1.1748-36.9541c.38-11.9507-4.9375-18.3769-16.7041-18.751-6.9863-.2221-13.7978,5.6348-17.5078,12.3262l-1.3437,42.2861c-.3213,10.1119.4345,15.2891,7,17.1543l-.0928,2.9415L509.27,150.8218l.0938-2.9414c7.0508-1.8,7.5937-7.3042,7.8916-16.6807l3.0742-96.707c.2041-6.4346-1.3857-8.51-8.86-10.772l.0878-2.7578,28.8916-5.707-2.2324,70.2319c3.6309-10.0064,18.4824-19.8408,30.249-19.4668,14.8926.4736,24.0469,7.7578,23.3457,29.82l-1.1982,37.69c-.3213,10.1119.6123,15.4791,6.9941,17.3379Z"/><path d="M690.9482,176.4883l-24.3388-2.48c-4.8028-.5918-3.753-4.3091-3.753-4.3091l4.3008-15.2236c-6.4677,8.686-22.0176,13.66-33.5234,10.4092-13.2764-3.75-22.2207-12.0108-16.12-33.607l10.9511-38.7666c3.1495-11.1523,3.8038-12.1142-6.163-16.0766l.75-2.6553,29.45,4.6875-16.251,57.53c-3.3008,11.6831,1.6719,18.44,11.9394,21.34,6.7266,1.9,14.9532-1.51,20.3662-7.8179l11.9512-42.3071c3.05-10.7978,4.0811-12.418-4.57-15.6265l.751-2.6552,28.0332,4.2876L685.57,161.0156c-2.4,8.4971-1.1064,10.0088,6.0781,12.9942Z"/><path d="M736.3779,207.2148c-9.36-5.4936-15.7754-13.0976-18.0312-21.247-7.7764,1.6211-18.3262.3354-16.8369-2.2032l58.6591-99.9467c3.1651-5.3941,2.9756-8.7046-2.5048-14.2671l1.3964-2.38,27.7286,9.4482-32.8672,56.002c10.3838-6.063,23.8164-3.5117,31.749,1.144,19.5137,11.4522,24.4424,35.0347,10.6621,58.5142C781.6221,217.3452,758.1123,219.9707,736.3779,207.2148Zm39.1846-71.4907c-11.1055-6.5176-22.5723-1.5166-29.4619,10.2232L733.1582,167.999c-10.707,18.2447-5.5371,30.877,4.2988,36.65,11.1055,6.5176,23.6553,2.5786,38.18-22.17C790.3486,157.4126,789.0479,143.6387,775.5625,135.7241Z"/><path d="M951.8213,333.4263a7.852,7.852,0,0,1,4.8926-5.0767c1.3564-.5986-2.08-4.5439-7.3164-5.0517a25.54,25.54,0,0,1-11.6495,14.916c-12.7812,7.6591-30.6982,3.17-42.0449-15.7652-3.6885-6.1538-5.7353-11.36-6.3642-16.3452-4.9815-4.7348-24.9522-4.7773-14.3614,12.8955l12.293,20.5127c6.5244,10.8877,17.3672,29.6958-6.584,40.1885,0,0-13.1592,7.0283-32.3974-3.9609-25.1993-14.4942-39.3809-42.4537-30.6973-56.2354,7.6406-12.2993,24.8027-11.2173,35.7148-4.46-.5966-5.6475,1.7725-11.3565,8.084-15.1387,0,0,13.6026-8.7944,27.6348,3.17-1.3516-10.1279,4.4267-19.81,12.79-24.8213,12.7813-7.6592,30.54-3.0752,41.6983,15.544,5.957,9.9409,7.8134,19.1225,6.4209,26.8193a24.9166,24.9166,0,0,1,17.6933,9.127,10.6172,10.6172,0,0,1,2.1407,9.6547A9.5179,9.5179,0,0,1,957.84,345.26,9.3332,9.3332,0,0,1,951.8213,333.4263ZM849.584,373.2476c13.751,7.2006,22.7773.0756,22.7773.0756s7.6377-5.8642.168-18.3295l-13.05-21.7749c-1.04-1.7359-4.9483-7.543-6.08-14.7994-17.8828-9.4428-24.14,10.1768-24.0771,9.9244C824.52,342.1592,832.3008,364.0894,849.584,373.2476Zm91.5625-78.0318c-4.7276-7.89-12.0137-11.4585-29.6856-.8677s-17.5517,19.7393-13.3916,26.6822c4.3506,7.2583,12.3614,11.68,30.0332,1.0888S945.2129,302.001,941.1465,295.2158Z"/><path d="M910.5283,423.2412l-11.7217-32.1445,2.5918-.9453c4.4688,5.81,9.6065,4.3291,18.4209,1.1147l43.2051-15.7544c5.876-2.1426,7.6651-4.7534,8.0195-12.91l2.5918-.9454,15.7071,24.8174-62.9073,22.939c-9.5048,3.4658-13.8554,6.0317-13.3154,12.8833Zm95.4942-66.7373a10.9126,10.9126,0,0,1,14.0869,6.415,11.228,11.228,0,0,1-6.5244,14.3233,11.0736,11.0736,0,0,1-14.0411-6.8237A10.7566,10.7566,0,0,1,1006.0225,356.5039Z"/><path d="M940.3408,484.5708c-8.7451-1.3516-19.0371-9.145-21.4287-20.4844-2.8467-13.5,1.166-22.9936,22.9453-27.5874l54.5381-11.5029-1.8984-9,2.5859-1.1094,2.0127,9.54,24.8389-5.2388,7.084,18.4336-27.9,5.8848,4.5176,21.4189-2.8515-.15-4.3653-20.6992-53.998,11.3892c-12.2393,2.5815-16.292,8.3242-14.4317,17.144a12.68,12.68,0,0,0,9.2969,9.3188Z"/><path d="M928.6992,580.3491l-.5566-34.395,2.7588-.0444c2.1367,6.9565,7.8437,7.2319,17.2246,7.08l36.97-.5981c11.9551-.1934,18.12-5.8125,17.93-17.584-.1133-6.9893-6.29-13.5127-13.1524-16.897l-42.3037.6841c-10.1162.1636-15.2509,1.1665-16.8,7.815l-2.9424.0473-.5566-34.3945,2.9434-.0479c2.1357,6.9566,7.66,7.2354,17.04,7.0835l96.7471-1.5649c6.4375-.104,8.4336-1.7925,10.3349-9.3662l2.7588-.0445,7.086,28.586L993.92,517.8457c10.17,3.147,20.7051,17.5107,20.8955,29.2822.24,14.898-6.5966,24.3916-28.6689,24.7486l-37.7051.61c-10.1162.1636-15.4326,1.3535-16.9834,7.8174Z"/><path d="M909.7188,675.041l1.414-24.4248c.3809-4.8232,4.1406-3.9365,4.1406-3.9365l15.3965,3.6308c-8.96-6.082-14.6074-21.3994-11.8633-33.0361,3.1661-13.4277,11.0284-22.7236,32.87-17.5723l39.208,9.2461c11.2793,2.66,12.2685,3.2715,15.792-6.8593l2.6855.6338-3.3965,29.6259L947.78,618.627c-11.8155-2.7872-18.3487,2.4765-20.7969,12.86-1.6045,6.8027,2.1621,14.8731,8.7,20.0049l42.7881,10.0908c10.9209,2.5762,12.5849,3.5352,15.4121-5.2471l2.6855.6329-3.0586,28.1943-68.5693-16.1709c-8.5937-2.0264-10.0478-.669-12.7158,6.64Z"/><path d="M880.9941,721.7842c5.0821-9.5889,12.4-16.3281,20.4434-18.9356-1.957-7.6992-1.13-18.2949,1.4707-16.917l102.3984,54.2657c5.5254,2.9287,8.8252,2.5957,14.1446-3.1211l2.4384,1.292-8.2363,28.1123-57.375-30.4063c6.5078,10.1113,4.542,23.6426.2354,31.77-10.5948,19.9912-33.9414,25.9394-57.9961,13.1914C872.8359,767.4258,869.1934,744.0518,880.9941,721.7842ZM954.1172,757.83c6.0293-11.378.5351-22.6172-11.4922-28.9912l-22.5928-11.9727c-18.6914-9.9053-31.0879-4.1924-36.4277,5.8858-6.03,11.3769-1.55,23.7441,23.8057,37.1816C933.0908,773.543,946.7959,771.6455,954.1172,757.83Z"/><path d="M713.4473,966.8545a7.8517,7.8517,0,0,1,4.6728,5.2783c.49,1.3994,4.6944-1.7139,5.6143-6.8935a25.5388,25.5388,0,0,1-13.9483-12.792c-6.624-13.3457-.7334-30.8506,19.0391-40.6651,6.4258-3.1894,11.7773-4.8193,16.7959-5.0517,5.1143-4.5918,6.7344-24.4951-11.7188-15.335l-21.42,10.6318c-11.3681,5.6436-30.9746,14.9649-39.54-9.7392,0,0-5.9658-13.6729,6.5088-31.9815,16.4394-23.9736,45.4316-35.9,58.4824-26.1552,11.6572,8.5888,9.2226,25.61,1.624,35.9541,5.6768-.1485,11.18,2.665,14.4512,9.2549,0,0,7.6924,14.2539-5.3438,27.2968,10.2022-.5468,19.3975,5.9785,23.7325,14.711,6.624,13.3466.6513,30.6865-18.7911,40.3379-10.38,5.1523-19.68,6.2773-27.2421,4.2812a24.9161,24.9161,0,0,1-10.4961,16.915,10.6159,10.6159,0,0,1-9.793,1.3711,9.5174,9.5174,0,0,1-4.9-12.3545A9.3341,9.3341,0,0,1,713.4473,966.8545ZM681.832,861.7939c-8.2636,13.1387-1.875,22.6993-1.875,22.6993s5.2412,8.0771,18.2578,1.6162l22.7373-11.2862c1.8125-.9,7.91-4.3378,15.2334-4.8925,10.8262-17.0791-8.2373-24.8672-7.99-24.7842C714.8027,839.2666,692.3281,845.2891,681.832,861.7939ZM752.38,959.2344c8.2383-4.09,12.3711-11.07,3.2109-29.5235s-18.289-19.0556-25.539-15.457c-7.5791,3.7617-12.6192,11.3975-3.459,29.8516S745.2949,962.751,752.38,959.2344Z"/><path d="M627.1943,918.5586l32.9737-9.1309.7363,2.6592c-6.1475,3.9932-5.0781,9.2324-2.5752,18.2735L670.6016,974.68c1.6689,6.0273,4.1289,8.0176,12.2314,9.0195l.7363,2.6592L657.583,1000.043l-17.8672-64.5284c-2.7-9.7509-4.9121-14.2919-11.7851-14.2968Zm58.9385,100.4922a10.9133,10.9133,0,0,1-7.5146,13.5322,11.2281,11.2281,0,0,1-13.7588-7.6426,11.0721,11.0721,0,0,1,7.9179-13.4531A10.7566,10.7566,0,0,1,686.1328,1019.0508Z"/><path d="M563.6719,943.4238c2.039-8.61,10.622-18.2539,22.1152-19.74,13.6826-1.77,22.83,2.9814,25.6865,25.0557l7.1524,55.2773,9.122-1.18.9014,2.6651-9.6689,1.2509,3.2568,25.1768-18.9365,5.6035-3.6592-28.2773-21.709,2.8086.375-2.8311,20.9805-2.7148-7.082-54.73c-1.6045-12.4063-7.0088-16.9-15.9483-15.7432a12.68,12.68,0,0,0-10.0254,8.5312Z"/><path d="M468.7432,924.1016l34.32,2.3056-.1846,2.753c-7.11,1.55-7.8594,7.2148-8.4883,16.5752l-2.4785,36.89c-.8008,11.93,4.2861,18.54,16.0322,19.3291,6.9737.4688,13.9883-5.1445,17.9307-11.7012l2.8359-42.2119c.6787-10.0947.1055-15.2949-6.3906-17.3906l.1973-2.9365,34.3213,2.3056-.1973,2.9366c-7.11,1.55-7.8467,7.0312-8.4756,16.3916l-6.4853,96.538c-.4317,6.4239,1.0849,8.5538,8.4736,11.0782l-.1846,2.7529L520.8945,1064.4l4.71-70.1094c-3.9815,9.8721-19.1719,19.1758-30.918,18.3867-14.8662-.998-23.7578-8.6015-22.2783-30.625l2.5283-37.624c.6778-10.0947-.0664-15.4912-6.3789-17.5742Z"/><path d="M376.22,897.9043l24.2354,3.3506c4.7783.7637,3.5957,4.4414,3.5957,4.4414l-4.8438,15.06c6.7744-8.4483,22.4922-12.8614,33.875-9.2,13.1328,4.2236,21.7744,12.8,14.9034,34.1631l-12.334,38.35c-3.5479,11.0312-4.2364,11.97,5.582,16.2871l-.8447,2.6269-29.2627-5.7412,18.3047-56.91c3.7168-11.5577-1.0108-18.4883-11.167-21.7549-6.6543-2.14-14.9981.9726-20.6338,7.083L384.1689,967.51c-3.4355,10.6816-4.5234,12.2636,4.0069,15.78l-.8447,2.627-27.8623-5.29,21.57-67.0674c2.7041-8.4053,1.4658-9.9629-5.6075-13.2032Z"/><path d="M331.9043,865.5732c9.1592,5.8233,15.2988,13.65,17.2627,21.875,7.83-1.3437,18.3271.3164,16.748,2.8008l-62.1777,97.793c-3.3555,5.2783-3.2832,8.5928,1.9951,14.3476l-1.48,2.3282-27.3731-10.4287,34.8389-54.7959c-10.5928,5.6894-23.9268,2.6621-31.6875-2.2725-19.0938-12.14-23.18-35.8818-8.5733-58.8555C287.0508,853.84,310.6387,852.0527,331.9043,865.5732Zm-41.7031,70.0489c10.8662,6.9091,22.5029,2.3193,29.8066-9.168l13.7188-21.5762c11.35-17.8515,6.6318-30.66-2.9922-36.7783-10.8653-6.9092-23.5479-3.4189-38.9434,20.7959C276.1973,913.4219,277.0068,927.2334,290.2012,935.6221Z"/></g></svg>