<svg xmlns="http://www.w3.org/2000/svg" viewBox="0 0 960 1024"><path class="outline" stroke="#982356" d="M824.745 338.992H407.748a113.882 113.882 0 00-113.753 113.753v133.502A113.882 113.882 0 00407.748 700h143.931a88 88 0 100-72H407.748a41.8 41.8 0 01-41.753-41.753V452.745a41.8 41.8 0 0141.753-41.753h416.997a41.8 41.8 0 0141.753 41.753v418.502A41.8 41.8 0 01824.745 913H125.247a41.8 41.8 0 01-41.752-41.753V165.753A41.8 41.8 0 01125.247 124H783.68a88 88 0 100-72H125.247A113.882 113.882 0 0011.495 165.753v705.494A113.882 113.882 0 00125.247 985h699.498a113.882 113.882 0 00113.753-113.753V452.745a113.882 113.882 0 00-113.753-113.753zM590 664a42 42 0 1142 42 42.048 42.048 0 01-42-42zM822 88a42 42 0 1142 42 42.048 42.048 0 01-42-42z"/></svg>