<svg xmlns="http://www.w3.org/2000/svg" width="1080" height="1080" viewBox="0 0 1080 1080"><title>gumroad</title><g id="Layer_2" class="text" data-name="Layer 2"><path d="M198.1387,874.7188a8.1548,8.1548,0,0,1-3.2393,6.5673c-1.1533,1.0215,3.4922,3.84,8.834,2.6895a26.53,26.53,0,0,1,6.8184-18.4365c10.2294-11.6123,29.374-12.8262,46.5791,2.3281,5.5918,4.9248,9.2607,9.43,11.456,14.164,6.4248,3.1124,26.1973-3.1494,10.14-17.2929l-18.6377-16.417c-9.8926-8.7129-26.5586-23.9014-6.1719-41.8438,0,0,10.8027-11.1074,33.3066-6.3066,29.5088,6.3867,52.3672,29.5752,48.126,45.9531-3.6787,14.5821-21.001,18.9287-33.9307,15.6875,2.3721,5.3994,1.83,11.7959-3.2207,17.5313,0,0-10.6826,12.9951-28.3447,5.5859,4.5342,9.5947,1.8731,20.999-4.82,28.5977-10.2285,11.6132-29.248,12.6836-46.166-2.2178-9.0322-7.9561-13.7676-16.4551-14.8193-24.51a25.88,25.88,0,0,1-20.3877-3.4463,11.0279,11.0279,0,0,1-5.1661-8.8779,9.8856,9.8856,0,0,1,9.9532-9.5644A9.6941,9.6941,0,0,1,198.1387,874.7188Zm22.623,34.4394c7.169,6.3135,15.5039,7.5449,29.6475-8.5127s11.1357-25.0713,4.8271-30.6279c-6.5947-5.81-15.917-7.6553-30.06,8.4023S214.5967,903.7275,220.7617,909.1582ZM286.73,803.0449c-15.88-2.7842-22.5615,7.1153-22.5615,7.1153s-5.7071,8.2128,5.6191,18.1894l19.7861,17.4268c1.5772,1.3886,7.2774,5.9013,10.6875,12.7236,20.6758,3.6982,20.6739-17.6895,20.69-17.42C321.3428,825.8945,306.7217,806.65,286.73,803.0449Z"/><path d="M177.4717,728.8818l17.7412,18.1934c3.4326,3.6719.1182,5.9336.1182,5.9336l-13.5694,9.2646c10.94-2.6113,26.6445,3.7871,33.6465,14.043,8.0791,11.834,9.7012,24.376-9.5488,37.5186l-34.5567,23.5927c-9.94,6.7862-11.1025,7.1172-5.8017,16.9151l-2.3662,1.6162L142.792,832.6016,194.0742,797.59c10.4141-7.1093,10.9541-15.8066,4.7061-24.958-4.0938-5.9961-12.9209-8.7607-21.4365-7.3418l-37.7129,25.7471c-9.625,6.5713-11.5264,7.1748-6.77,15.4951l-2.3672,1.6162-19.4805-22.0957,60.4346-41.2588c7.5732-5.1709,7.5507-7.2373,3.8154-14.4033Z"/><path d="M134.1367,591.6807l10.5088,34.1464-2.7393.8428c-4.1445-6.32-9.7343-5-19.0468-2.1338l-37.4336,11.52c-11.6865,3.5967-16.3213,10.62-13.2871,20.4805,2.4726,8.0352,13.6543,13.1895,20.5927,11.0537.7305-.2246,1.461-.4492,2.3741-.73l37.1953-11.6475c10.043-3.0908,14.874-5.5772,14.4951-12.6563l2.7383-.8427,10.51,34.1465-2.7392.8427c-4.1445-6.3213-9.7344-5-19.0479-2.1338l-37.4326,11.52c-11.6865,3.5967-16.3779,10.4375-13.3437,20.2979,2.4736,8.0342,13.6689,12.585,20.2841,11.3486l40.1729-12.3633c10.043-3.0918,14.4531-5.6484,14.3125-12.6015l2.7393-.8428,10.4531,33.9639-2.7393.8437c-4.1445-6.3213-9.4961-4.874-18.8086-2.0078L108.792,738.6094c-6.3916,1.9668-8.99,4.5654-9.79,13.0078l-2.7393.8428L81.2881,725.8848l18.8076-5.7881C88.1,718.791,76.5674,710.5459,73.0264,699.042c-3.9336-12.7813-.5069-22.4316,12.458-29.0205-12.2627-.2236-24.26-9.3252-27.8-20.8291-4.4961-14.6084-.8584-25.5225,21.2363-32.3233l37.9814-11.6884c10.043-3.0909,14.875-5.5782,14.4952-12.6573Z"/><path d="M50.0781,523.4395a12.3388,12.3388,0,0,1,17.378-.54,12.5686,12.5686,0,0,1,.7363,17.5625,11.466,11.466,0,0,1-8.3008,3.5078c-2.6855-.2988.8809,9.9121,13.1133,16.0313l43.7314-1.3594c10.6934-.3325,15.82-1.4478,17.5157-8.3818l2.8642-.0889,1.1162,35.9014-2.8642.0888c-2.5176-7.1855-8.0674-7.395-17.9971-7.0864L69.63,580.5586c-6.4922.2017-9.3037,2.0093-11.9248,9.9277l-2.8643.0889L47.416,560.7964l20.624-.6411c-14.5888-8.1485-18.8906-17.3809-20.6084-23.4444C46.3584,532.9214,46.9385,526.9775,50.0781,523.4395Z"/><path d="M145.5576,465.8486c-5.32,28.5484-28.6631,40.1343-53.2676,35.5489-24.7929-4.62-42.207-23.8023-36.8867-52.3506C60.76,420.31,83.9141,408.69,108.707,413.31,133.3105,417.8955,150.9131,437.1118,145.5576,465.8486ZM58.2207,449.5718c-2.59,13.8989,4.4492,22.0127,38.4443,28.3481s43.4854,1.3023,46.0752-12.5967c2.625-14.0864-4.4482-22.0122-38.4443-28.3481S60.8467,435.4854,58.2207,449.5718Z"/><path d="M181.7119,326.4463c4.8369,3.67,8.28,13.6333,3.69,23.72,0,0-6.3945,14.5137-21.7138,9.4317,6.8916,6.0747,8.6572,19.2627,3.1181,31.436,0,0-9.1005,19.999-26.8388,11.9277-18.26-8.3091-14.3955-24.1831-8.3574-57.7505l-10.4346-4.7475c-17.9121-8.1509-31.75-3.1123-31.4238,12.7793.36,7.5112,3.0947,9.8052,3.7441,8.8408a9.2791,9.2791,0,0,1,6.168-4.33,9.839,9.839,0,0,1,11.5722,7.7842,9.9592,9.9592,0,0,1-17.666,7.915c-2.07-2.8315-5.7529-7.6557-6.5224-19.3413-.5186-9.4717,4.039-18.1035,4.039-18.1035,9.4961-20.8686,26.2881-19.9448,46.81-10.6069l27.8242,12.6611s11.4775,5.2227,15.1973-2.9512c0,0,1.74-3.8256-1.4366-6.5307Zm-37.1181,55.7392c2.4345,1.108,13.2333,4.1324,18.2187-6.8232,3.4023-7.478-.09-14.105-3.5508-17.5693-.3486-.1582-24.6953-11.2368-24.6953-11.2368C130.2734,367.0635,134.8545,377.7544,144.5938,382.1855Z"/><path d="M254.709,247.5947l-12.2383,21.5142c-2.7334,4.6616-6.0225,2.0444-6.0225,2.0444l-8.67-6.9c4.4141,11.3272-.625,24.4087-6.3359,31.584C206.69,314.374,181.57,315.87,159.4463,298.2617c-23.77-18.9165-22.6084-43.3867-6.4277-63.7173a44.0082,44.0082,0,0,1,19.4482-14.3115l-29.749-23.6758c-5.2324-4.164-8.2158-4.0967-14.7383.7237l-2.2422-1.7847,13.7764-27.1274L237.28,246.1768c7.3252,5.83,9.86,5.4052,15.1865-.3667Zm-61.6133-10.9438c-16.5928-13.2061-30.5771-9.4409-37.5967-.6206-8.3281,10.4643-6.5342,23.8569,16.7871,42.4165,23.918,19.0356,38.7813,20.6094,48.7754,8.0522,7.9707-10.0161,6.1182-22.7221-4.3457-31.05Z"/><path d="M443.9648,71.2041a8.1572,8.1572,0,0,1-3.7627-6.2822c-.2324-1.5225-5.12.853-7.0488,5.9658a26.5224,26.5224,0,0,1,11.7959,15.7236c4.2129,14.8911-5.1465,31.6367-27.207,37.8789-7.169,2.0284-12.9443,2.67-18.1123,1.9478-6.0987,3.7114-11.5557,23.7212,9.0342,17.895l23.8984-6.7622c12.6855-3.5889,34.4824-9.3594,38.5078,17.498,0,0,3.4776,15.0992-12.7558,31.4073C436.95,207.81,405.0732,214.4468,393.61,202.0044c-10.26-10.9961-4.5215-27.9087,5.2119-37.0166-5.8233-.9331-10.9053-4.8565-12.9854-12.21,0,0-5.1289-16.0219,10.6709-26.8462-10.52-1.3916-18.66-9.8105-21.417-19.5537-4.2138-14.8911,5.1973-31.4526,26.8906-37.5908,11.5821-3.2768,21.29-2.6484,28.63.8345a25.8819,25.8819,0,0,1,13.9473-15.2647,11.0268,11.0268,0,0,1,10.2607.4727,9.8843,9.8843,0,0,1,2.6416,13.5483A9.6946,9.6946,0,0,1,443.9648,71.2041Zm-41.2031.3408c-9.1924,2.6006-14.7461,8.9375-8.92,29.5274s15.0312,22.9487,23.12,20.66c8.457-2.3926,15.0615-9.2256,9.2354-29.8154S410.667,69.3081,402.7617,71.5449ZM456.167,184.5024c10.9473-11.8344,6.2519-22.8159,6.2519-22.8159s-3.8076-9.2475-18.331-5.1382l-25.37,7.1783c-2.0215.5722-8.9033,2.9165-16.4864,2.0835-14.3154,15.3686,3.6582,26.9614,3.4219,26.8295C418.2021,201.2012,442.2988,199.3467,456.167,184.5024Z"/><path d="M577.8438,133.08l-24.9122,5.0083c-4.9472.8862-5.0459-3.1245-5.0459-3.1245l-.4043-16.4258c-3.7519,10.6035-17.6552,20.31-30.07,20.6157-14.3242.3526-25.7334-5.1-26.3076-28.4013l-1.0293-41.8282c-.2959-12.0322.0586-13.188-11.0478-14.061l-.07-2.8652,30.6611-4.3853,1.5273,62.0732c.31,12.6055,7.3174,17.7842,18.3946,17.5118,7.2578-.1787,14.375-6.0874,17.8115-14.0074l-1.124-45.6474c-.2862-11.6509.24-13.5747-9.3291-14.104l-.07-2.8648L565.96,46.2256l1.8,73.1509c.2256,9.1679,1.9726,10.2714,10.0185,11.0293Z"/><path d="M716.5664,170.8623l-34.4014-9.6475.7745-2.7592c7.5576-.063,9.4736-5.4785,12.1044-14.8609L705.62,105.8833c3.3018-11.7734-.0957-19.4727-10.0293-22.2588-8.0937-2.27-18.48,4.3418-20.4414,11.3325-.206.7359-.4121,1.4717-.67,2.3916l-10.3408,37.5791c-2.8379,10.1177-3.3623,15.5269,2.7959,19.04l-.7735,2.7593-34.4-9.647.7735-2.76c7.5576-.063,9.4736-5.4785,12.1045-14.86l10.5761-37.7119c3.3018-11.7735.0889-19.4209-9.8447-22.2071-8.0947-2.27-17.9805,4.6807-20.5224,10.9126l-11.35,40.4712c-2.8378,10.1182-3.0751,15.2105,2.8477,18.856l-.7734,2.7593-34.2168-9.5958.7734-2.7592c7.5586-.0635,9.2383-5.3467,11.8691-14.7285l12.7432-45.438c1.8057-6.439,1.0274-10.03-5.6387-15.273l.7745-2.7593,30.4511,1.7935-5.3135,18.9478c7.5909-9.38,20.7666-14.6143,32.3555-11.3643,12.8779,3.6113,19.1367,11.7163,17.6592,26.1841,6.8262-10.19,20.9727-15.35,32.5625-12.1,14.7168,4.1274,21.9248,13.0937,15.6826,35.353l-10.7305,38.2637c-2.8378,10.1177-3.3623,15.5263,2.7959,19.04Z"/><path d="M819.5146,137.2393a12.3392,12.3392,0,0,1-8.9716,14.8935,12.5688,12.5688,0,0,1-15.1553-8.9062,11.4692,11.4692,0,0,1,1.5557-8.8775c1.707-2.0937-8.8067-4.6352-20.5821,2.3238l-22.5771,37.4794c-5.5205,9.1651-7.3643,14.0772-2.458,19.2627l-1.4785,2.4551-30.77-18.5342,1.48-2.455c7.4024,1.7822,10.5879-2.7666,15.7149-11.2774l24.6464-40.9165c3.3526-5.5649,3.3584-8.9067-1.873-15.4038l1.4785-2.4551,29.0469,9.9136-10.6465,17.6758c14.7588-7.8384,24.8486-6.4448,30.874-4.5991C813.5654,128.9717,818.2451,132.6826,819.5146,137.2393Z"/><path d="M816.0459,248.7524c-21.085-19.9721-18.1377-45.8667-.9258-64.0385,17.3438-18.3106,42.9092-22.5181,63.9942-2.5459,21.2246,20.103,18.4082,45.8589,1.0644,64.1694C862.9668,264.5093,837.27,268.8555,816.0459,248.7524Zm61.0977-64.5039c-10.2647-9.7231-20.9014-8.2182-44.6836,16.89s-24.708,35.81-14.4434,45.5332c10.4043,9.8545,20.9014,8.2182,44.6836-16.89S887.5479,194.103,877.1436,184.2485Z"/><path d="M913.6992,354.6816c-5.7041,2.0835-15.9463-.4087-21.9482-9.7241,0,0-8.75-13.2275,3.81-23.3657-8.8369,2.5117-20.8847-3.1357-28.1289-14.3784,0,0-11.9-18.4707,4.4815-29.0264,16.8652-10.8657,28.1269.97,53.0976,24.2026l9.6368-6.2089c16.5429-10.6587,19.788-25.0235,6.2451-33.3443-6.5127-3.7588-9.9219-2.6992-9.461-1.6318a9.2835,9.2835,0,0,1,.3057,7.53,9.8389,9.8389,0,0,1-12.8057,5.5239,9.9591,9.9591,0,0,1,2.8965-19.14c3.501-.21,9.5508-.6988,19.7959,4.9731,8.2481,4.687,13.044,13.189,13.044,13.189,12.4179,19.2734,2.5595,32.8989-16.3936,45.11l-25.6982,16.5576s-10.6006,6.83-5.7364,14.3784c0,0,2.2764,3.5337,6.2706,2.3243ZM886.8877,293.314c-2.249,1.4487-10.6328,8.8964-4.1133,19.0151,4.4492,6.9063,11.9121,7.5532,16.6983,6.5151L922.28,304.1489C907.3525,289.4473,895.8818,287.5186,886.8877,293.314Z"/><path d="M940.4736,458.7334l-11.455-21.9419c-2.4385-4.8227,1.5439-6.1694,1.5439-6.1694l10.4971-3.5508c-11.9131-2.4243-20.1807-13.7466-23.1192-22.4336-7.5908-22.4424,4.7588-44.3682,31.544-53.4287,28.7763-9.7334,48.7168,4.4975,57.0429,29.1113a44.0011,44.0011,0,0,1,1.4961,24.1006l36.0157-12.1826c6.3349-2.1426,7.8945-4.687,7.375-12.7808l2.7148-.9184,15.3418,26.2749L951.1064,444.8506c-8.8681,3-9.8847,5.36-7.9179,12.9643Zm42.5743-45.8647c20.0888-6.795,24.499-20.59,20.8867-31.2681-4.2852-12.669-16.5147-18.4151-44.7481-8.8648-28.958,9.795-38.332,21.4366-33.1894,36.6392,4.1015,12.126,15.7861,17.4517,28.455,13.1665Z"/><path d="M1003.8672,657.61a8.1586,8.1586,0,0,1,7.293-.6641c1.4726.4521,1.4541-4.9824-2.3155-8.9395A26.5181,26.5181,0,0,1,989.56,651.81c-15.2442-2.667-26.2686-18.3672-22.3174-40.9522,1.2842-7.34,3.2129-12.8213,6.1064-17.164-.6963-7.1045-16.3554-20.7061-20.0439.373l-4.28,24.4658c-2.2724,12.9864-6.5342,35.128-32.4775,27.0977,0,0-15.1133-3.42-22.7588-25.124-9.9483-28.5079-2.0918-60.107,14.0937-65.0337,14.3594-4.47,27.1055,8.04,31.087,20.7622,3.3681-4.8413,9.1083-7.7163,16.6367-6.3994,0,0,16.66,2.333,19.5547,21.2666,5.8193-8.8745,16.9375-12.5542,26.9121-10.8086,15.2441,2.667,26.08,18.334,22.1953,40.542-2.0752,11.8564-6.8545,20.331-13.1778,25.4316a25.88,25.88,0,0,1,7.6973,19.1914,11.0228,11.0228,0,0,1-4.8789,9.0381,9.8849,9.8849,0,0,1-13.3525-3.5A9.6945,9.6945,0,0,1,1003.8672,657.61ZM896.498,619.4277c5.91,15,17.8418,15.5362,17.8418,15.5362s9.9844.583,12.585-14.2852l4.544-25.9717c.3623-2.07,1.2373-9.2881,5.2792-15.7578-7.6328-19.5679-25.8779-8.4067-25.6572-8.562C897.9316,577.9771,889.1426,600.49,896.498,619.4277Zm124.9463.9131c1.6465-9.41-1.6523-17.1631-22.73-20.8515s-27.2,3.581-28.6485,11.8623c-1.5146,8.6572,1.7744,17.5732,22.8526,21.2617S1020.0283,628.4336,1021.4443,620.3408Z"/><path d="M889.9971,751.18l6.332-24.61c1.3555-4.84,5.01-3.1826,5.01-3.1826l14.9648,6.7842c-7.9141-7.9932-10.6025-24.7354-5.4756-36.0459,5.917-13.0508,15.792-20.9512,37.0215-11.3271l38.1084,17.2763c10.9619,4.9707,11.8486,5.792,17.4678-3.8281l2.61,1.1836-9.3945,29.5146-56.5537-25.6386c-11.4844-5.2061-19.1973-1.15-23.7725,8.9414-2.998,6.6133-.7754,15.5918,4.86,22.1328l41.5888,18.8535c10.6143,4.8125,12.1182,6.123,16.7588-2.2617l2.61,1.1836-8.7637,28.122-66.6465-30.2138c-8.3525-3.7862-10.1064-2.6934-14.29,4.2207Z"/><path d="M795.3271,859.5508l23.6866-26.7471,2.1455,1.8994c-3.24,6.8291.7978,10.9151,8.0928,17.375l29.3222,25.9658c9.1543,8.1065,17.5645,8.4082,24.4043.6836,5.5733-6.2929,4.1533-18.5234-1.2812-23.3369-.5723-.5068-1.1446-1.0136-1.86-1.6465l-29.3057-25.6962c-7.8671-6.9668-12.5048-9.7979-18.3525-5.7891l-2.1455-1.8994L853.72,793.6113l2.1455,1.9c-3.24,6.8281.7979,10.9141,8.0928,17.374L893.28,838.8516c9.1543,8.1064,17.4375,8.5517,24.2773.8271,5.5733-6.293,3.6309-18.2207-.8691-23.2266l-31.4678-27.8662c-7.8672-6.9658-12.3457-9.4013-18.21-5.6611l-2.1455-1.9,23.56-26.6045,2.1455,1.8994c-3.2392,6.8291.7822,10.6455,8.0762,17.1055l35.33,31.2852c5.0068,4.4336,8.5781,5.3,16.2031,1.5879l2.1455,1.9-14.8965,26.62-14.7324-13.0459c5.1289,10.9218,4.0928,25.06-3.8867,34.0722-8.8672,10.0127-18.8907,12.1094-31.2647,4.47,6.1914,10.5869,4.6651,25.5673-3.3144,34.5791-10.1328,11.4423-21.3457,14.0185-38.6534-1.3077l-29.7519-26.3466c-7.8662-6.9659-12.5049-9.7979-18.3525-5.7881Z"/><path d="M780.9678,966.9814a12.3384,12.3384,0,0,1-9.5264-14.5429,12.5681,12.5681,0,0,1,14.5986-9.792,11.4681,11.4681,0,0,1,7.3233,5.2529c1.1465,2.4463,7.9971-5.9238,6.8349-19.5517L776.2246,891.749c-5.8633-8.95-9.4883-12.7422-16.2891-10.5713l-1.57-2.3974,30.0459-19.6817,1.57,2.3975c-4.8164,5.8955-2.1005,10.74,3.3438,19.0508L819.498,920.502c3.56,5.4335,6.5684,6.8886,14.6915,4.9941l1.57,2.3975-21.5332,21.87-11.3057-17.2608c.6592,16.6973-4.9736,25.1836-9.25,29.8125C790.998,965.208,785.625,967.8145,780.9678,966.9814Z"/><path d="M682.0322,915.4189c27.1553-10.2929,49.1856,3.627,58.0567,27.03,8.9384,23.5811,1.6035,48.4287-25.5518,58.7217-27.333,10.3613-49.2959-3.38-58.2353-26.9619C647.4307,950.8057,654.6992,925.78,682.0322,915.4189Zm31.4893,83.0723c13.22-5.0107,16.4931-15.2422,4.2363-47.5771s-21.4892-37.8262-34.71-32.8155c-13.3985,5.0791-16.4932,15.2422-4.2364,47.5782S700.123,1003.57,713.5215,998.4912Z"/><path d="M544.1533,956.998c.62-6.04,7.3389-14.1621,18.3408-15.4863,0,0,15.7207-2.0859,19.3467,13.6416,1.6045-9.0449,11.9512-17.4111,25.2285-19.01,0,0,21.8135-2.627,24.1436,16.7207,2.3984,19.916-13.17,24.87-44.98,37.1679l1.37,11.3809c2.3535,19.5371,13.8526,28.7363,27.2559,20.1943,6.2275-4.2138,6.7656-7.7422,5.6045-7.7949a9.2834,9.2834,0,0,1-6.9063-3.0166,9.8386,9.8386,0,0,1,.6319-13.9316,9.9586,9.9586,0,0,1,15.9462,10.9726c-1.3418,3.2412-3.5478,8.8945-13.1279,15.6289-7.82,5.3672-17.5635,5.9639-17.5635,5.9639-22.7617,2.74-30.7041-12.082-33.3994-34.4649L562.39,964.6162s-1.5078-12.5195-10.4228-11.4463c0,0-4.1729.503-4.8311,4.6231Zm66.9092,2.7188c-.3193-2.6563-3.3516-13.4522-15.3018-12.0127-8.1562.9824-12,7.41-13.1591,12.1689.0459.379,3.2431,26.9346,3.2431,26.9346C605.5928,979.8105,612.3418,970.3389,611.0625,959.7168Z"/><path d="M438.76,935.9062l24.74-.7919c5.4033-.1026,4.8877,4.0693,4.8877,4.0693l-1.3594,10.998c7.3565-9.68,21.1455-12.2109,30.2481-11.0859,23.5127,2.9063,37.9023,23.5518,34.4336,51.6162-3.7266,30.1494-25.2051,41.9336-50.9932,38.7461a44.0011,44.0011,0,0,1-22.36-9.1172l-4.664,37.7344c-.82,6.6377.7949,9.1475,8.3115,12.1934l-.3516,2.8447-30.331,2.4121,15.3281-124.0127c1.1485-9.291-.5371-11.2324-8.2412-12.7617Zm22.831,58.2676c-2.6015,21.0479,7.91,31.01,19.0987,32.3926,13.2734,1.6406,23.76-6.8809,27.416-36.4619,3.75-30.34-2.667-43.8389-18.5957-45.8076-12.7041-1.57-22.5752,6.6426-24.2159,19.916Z"/></g></svg>