<svg xmlns="http://www.w3.org/2000/svg" width="1080" height="1080" viewBox="0 0 1080 1080"><title>instagram</title><g id="Layer_2" class="text" data-name="Layer 2"><path d="M23.0557,597.5312a11.3355,11.3355,0,0,1-12.3741-10.2656,11.6631,11.6631,0,0,1,10.4405-12.58,11.5,11.5,0,0,1,12.2148,10.6626A11.1723,11.1723,0,0,1,23.0557,597.5312Zm113.8877-40.894,2.998,35.4116-2.8564.2412c-2.8965-7.041-8.45-6.9541-18.1592-6.1328l-47.5967,4.0283c-6.4727.5479-8.9775,2.6778-11.5527,10.7569l-2.8565.2422-8.9863-29.1524,69.3-5.8652c10.4707-.8862,15.5312-2.273,16.8545-9.2881Z"/><path d="M143.1426,455.9048l-3.376,35.5674-2.8525-.27c-1.4063-7.4263-7.0762-8.3482-16.7764-9.2691l-38.9912-3.7c-11.0322-1.0469-19.2539,4.6978-20.3008,15.73-.8125,8.5591,7.125,17.9483,14.28,19.395l41.8437,3.9712c10.461.9927,15.5147.3208,18.0489-6.1552l2.8525.27-3.3574,35.3774-2.8526-.271c-1.4062-7.4263-6.9043-8.14-16.6045-9.0605L67.126,532.94c-6.6572-.6318-9.1016.8638-13.0752,8.355l-2.8535-.271-3.65-30.2847,20.1611,1.9131c-11.0146-5.2675-18.41-20.3628-17.2734-32.3452,1.4267-15.0259,9.04-24.4751,32.0547-22.29l39.5615,3.7544c10.4609.9927,15.8769.5473,18.2383-6.1377Z"/><path d="M158.7432,414.4614c-7.1475,21.9859-18.3272,29.8028-18.3272,29.8028l-23.8037-7.7378.8867-2.7256c10.2793,1.1318,31.1944,2.3056,38.5186-20.2256,5.1972-15.99-12.6094-21.7783-26.1836-10.9224l-17.05,14.7491c-16.9942,13.9628-31.1309,14.1889-41.0156,1.3325,0,0-7.8028-9.3672-1.8379-27.7193,6.7929-20.8955,15.32-27.9682,15.32-27.9682L106.51,369.958l-.8858,2.7256c-9.1308-.9595-26.5293-.5879-32.9678,19.2178-4.7246,14.5361,9.6563,22.8271,24.7891,10.2675l17.4131-14.63c15.4912-13.0454,32.4668-13.3531,42.292-.315C157.15,387.2236,164.4727,396.8359,158.7432,414.4614Z"/><path d="M185.2705,315.5229c6.0313,6.9346,8.9717,20.0167,3.2676,30.6158-6.791,12.6186-16.34,17.46-36.6973,6.5044l-50.9775-27.4356L96.3359,333.62l-2.7959-.8535,4.7989-8.9165L75.1221,311.354l6.7373-19.373,26.0781,14.0346,10.7744-20.021,2.1611,2.0313-10.4121,19.3476,50.4727,27.1641c11.44,6.1567,18.5059,4.3179,22.9424-3.9263a13.168,13.168,0,0,0-1.1289-13.6255Z"/><path d="M249.0244,241.2676c3.7266,4.7944,4.4815,15.3086-2.5547,23.8691,0,0-9.9218,12.3721-23.4121,3.5093,5.0908,7.6475,3.3936,20.8447-5.0986,31.1763,0,0-13.9522,16.9741-29.0069,4.5991-15.498-12.7388-7.6689-27.0781,6.8262-57.9512l-8.8564-7.2793C171.72,226.6948,157.05,227.9922,153.2646,243.43c-1.59,7.35.46,10.2715,1.336,9.5073a9.2831,9.2831,0,0,1,7.0771-2.5918,9.8388,9.8388,0,0,1,9.1709,10.5064,9.9587,9.9587,0,0,1-19.1093,3.0888c-1.27-3.2695-3.5831-8.88-1.3116-20.3691,1.9434-9.2847,8.5733-16.4483,8.5733-16.4483,14.5586-17.7119,30.5439-12.4868,47.9609,1.83l23.6162,19.4117s9.7412,8.0073,15.4434,1.07c0,0,2.6689-3.2476.2969-6.6807Zm-50.2432,44.2749c2.0665,1.6987,11.7188,7.4072,19.3624-1.8916,5.2168-6.3467,3.5527-13.65,1.1025-17.89-.2949-.2426-20.959-17.228-20.959-17.228C188.8477,267.2378,190.5156,278.7485,198.7812,285.5425Z"/><path d="M283.3916,136.1309a8.156,8.156,0,0,1-5.7578-4.5245c-.7608-1.3393-4.4776,2.625-4.4541,8.0894a26.5263,26.5263,0,0,1,16.6328,10.4761c9.252,12.4052,6.4883,31.3891-11.89,45.0967-5.9727,4.455-11.1387,7.1157-16.2237,8.2871-4.3721,5.6435-2.3252,26.2832,14.8281,13.49l19.91-14.8491c10.5674-7.8818,28.8672-21.0542,42.2168,2.5962,0,0,8.64,12.8623-.7022,33.8921-12.3388,27.5561-39.746,45.1367-54.8955,37.6069-13.51-6.6084-14.1884-24.4551-8.3476-36.438-5.7735,1.207-11.9209-.6435-16.49-6.7695,0,0-10.5108-13.1348.3828-28.8872-10.3233,2.456-20.9336-2.5015-26.9873-10.6187-9.252-12.4052-6.3741-31.2358,11.6972-44.7148,9.6494-7.1963,18.9424-10.0757,27.041-9.4424a25.8854,25.8854,0,0,1,7.5791-19.2388,11.0279,11.0279,0,0,1,9.753-3.2221,9.8855,9.8855,0,0,1,7.3056,11.7124A9.6949,9.6949,0,0,1,283.3916,136.1309Zm-38.3662,15.03c-7.6582,5.7115-10.583,13.6133,2.2109,30.7666s22.2344,16.07,28.9727,11.044c7.0449-5.2544,10.7754-13.9951-2.0186-31.148S251.6113,146.249,245.0254,151.1606Zm90.2168,86.4468c6.001-14.9629-2.3067-23.5449-2.3067-23.5449s-6.8584-7.2783-18.957,1.7456l-21.1357,15.7632c-1.6846,1.2568-7.2754,5.9038-14.6553,7.8325-7.8857,19.4673,13.043,23.8794,12.7754,23.84C305.7412,266.7607,327.5879,256.4253,335.2422,237.6074Z"/><path d="M369.08,80.4224a12.34,12.34,0,0,1,7.1191,15.8628,12.57,12.57,0,0,1-15.959,7.3715,11.4716,11.4716,0,0,1-6.4062-6.34c-.7461-2.5972-8.8291,4.5908-9.8272,18.2329l17.9151,39.9185c4.3808,9.7617,7.3642,14.0766,14.4219,13.0039l1.1738,2.6147-32.7715,14.7075-1.1738-2.6147c5.6855-5.065,3.7656-10.2764-.3028-19.3408L323.7119,120.26c-2.66-5.9268-5.4023-7.8374-13.7226-7.2447L308.8154,110.4l24.708-18.209,8.4493,18.8262c1.9765-16.5943,8.875-24.0884,13.8271-27.9864C358.8955,80.5952,364.6123,78.8672,369.08,80.4224Z"/><path d="M493.1113,125.5664c.0049,6.0723-5.8447,14.8418-16.6523,17.29,0,0-15.4238,3.691-20.6475-11.5815-.667,9.1626-10.0986,18.5483-23.1426,21.5039,0,0-21.43,4.855-25.7353-14.1514-4.4336-19.5659,10.543-26.0937,40.9228-41.5971l-2.5332-11.18c-4.35-19.1934-16.7334-27.1621-29.1894-17.2871-5.7617,4.8315-5.9336,8.3969-4.7734,8.33a9.285,9.285,0,0,1,7.1806,2.291,9.84,9.84,0,0,1,.8037,13.9233,9.9593,9.9593,0,0,1-16.9912-9.2759c1.002-3.3613,2.6143-9.2124,11.4522-16.896,7.2285-6.1435,16.8584-7.7378,16.8584-7.7378,22.36-5.0669,31.7861,8.8623,36.7675,30.85l6.7559,29.8145s2.7861,12.2988,11.5449,10.3144c0,0,4.0987-.9292,4.33-5.0957ZM426.2734,129.74c.5909,2.6089,4.7168,13.0367,16.4561,10.3765,8.0127-1.8154,11.1758-8.605,11.84-13.4575-.0849-.3726-5.9951-26.46-5.9951-26.46C429.6484,109.1885,423.9092,119.3047,426.2734,129.74Z"/><path d="M637.3242,142.6094l-35.6474-2.3911.1914-2.8594c7.3847-1.6113,8.1494-7.3047,8.8017-17.0264l2.6211-39.0791c.8184-12.2-4.0849-19.0395-14.3789-19.73-8.3867-.5625-17.1982,8.0376-17.6836,15.2818-.0517.7622-.1025,1.5249-.166,2.478l-2.418,38.9009c-.7041,10.4848-.1084,15.8862,6.6387,18.062l-.1914,2.8594-35.6475-2.3911.1914-2.8594c7.3848-1.6109,8.1495-7.3042,8.8018-17.0264L561.0586,77.75c.8184-12.2-3.8936-19.0269-14.1875-19.7173-8.3877-.5625-16.64,8.2666-17.85,14.8877l-2.8125,41.938c-.7031,10.4844.1074,15.5176,6.6514,17.8716l-.1915,2.8594-35.457-2.3785.1924-2.8593c7.3838-1.6114,7.9453-7.1265,8.5977-16.8487L509.16,66.418c.4482-6.6719-1.0508-10.0279-8.6485-13.793l.1914-2.8594,30.1729-4.4863-1.3174,19.6348c5.5078-10.7369,17.33-18.5606,29.34-17.7554,13.3438.895,21.1319,7.5454,22.65,22.0083C586.1416,57.7944,598.93,49.8442,610.94,50.65c15.25,1.023,24.1435,8.3213,22.5966,31.3872l-2.66,39.6509c-.7031,10.4844-.1084,15.8857,6.64,18.062Z"/><path d="M723.5938,180.707l-32.32-14.7724,1.19-2.607c7.5566.9331,10.207-3.9472,14.2578-12.8095l19.8554-43.4419c2.7-5.9077,2.0752-9.1348-3.6992-15.3452l1.1914-2.6065,29.8077,6.4819-28.9092,63.251c-4.3682,9.5572-5.6446,14.646-.1826,19.2432ZM743.876,61.4155a11.3353,11.3353,0,0,1,15.0176-5.74,11.6624,11.6624,0,0,1,5.8339,15.271,11.5,11.5,0,0,1-15.2851,5.4077A11.1726,11.1726,0,0,1,743.876,61.4155Z"/><path d="M808.1309,235.6914l-29.2823-20.4707,1.6426-2.3486c7.1543,2.4375,10.751-2.041,16.334-10.0274l22.44-32.1c6.35-9.082,5.4043-19.0674-3.6777-25.4165-7.0469-4.9263-19.1279-2.6489-23.9141,2.8633l-24.083,34.4487c-6.02,8.6123-7.9277,13.34-3.541,18.7373l-1.6426,2.3492-29.125-20.3609,1.6426-2.3486c7.1543,2.437,10.4854-1.9947,16.0684-9.98l27.5849-39.46c3.8311-5.48,3.7364-8.3447-.8232-15.4946l1.6416-2.3491,28.1494,11.7529L795.9424,142.085c10.0127-6.9869,26.793-5.98,36.6572.9165,12.37,8.6479,16.8379,19.93,3.5928,38.8769l-22.7695,32.57c-6.0206,8.6123-8.3028,13.544-3.65,18.8941Z"/><path d="M836.582,269.689c-15.6377-17.0264-16.9541-30.605-16.9541-30.605l18.4346-16.9307,1.9385,2.1109c-6.0362,8.3979-17.334,26.0376-1.3076,43.4863,11.373,12.3833,25.163-.2827,22.3769-17.439l-4.47-22.0962c-3.8125-21.6626,2.9365-34.0869,18.99-36.3794,0,0,11.9932-2.1948,25.0459,12.0176,14.8633,16.1826,16.834,27.084,16.834,27.084l-16.4639,15.1216-1.9384-2.1109c5.3212-7.4814,13.5449-22.8178-.542-38.1557-10.34-11.2573-24.627-2.8047-21.1221,16.5459l4.1885,22.3545c3.751,19.9018-4.3213,34.8393-20.5039,36.9912C861.0889,281.6841,849.1191,283.3389,836.582,269.689Z"/><path d="M909.8516,341.38c-9,1.86-21.8448-1.9863-28.2891-12.1524-7.6719-12.102-7.2139-22.7983,12.3105-35.1757l48.8926-30.9956-5.1142-8.0679,2.1132-2.0186,5.4219,8.5523,22.2676-14.1167,13.5869,15.3652L956.0293,278.626l12.1738,19.2021-2.83.8892-11.7636-18.5567L905.2,310.8491c-10.9717,6.9561-12.8311,14.0156-7.8184,21.9224a13.17,13.17,0,0,0,12.4307,5.6924Z"/><path d="M943.2842,433.3213c-6.0059.8945-15.5381-3.606-19.5449-13.9375,0,0-5.9112-14.7158,8.4306-22.1216-9.1611.6836-19.8281-7.27-24.6631-19.7393,0,0-7.9443-20.4848,10.2256-27.5307,18.7041-7.2529,27.3565,6.6045,47.1446,34.3818l10.6875-4.1445c18.3476-7.1148,24.415-20.5332,12.8212-31.4063-5.624-4.9912-9.1757-4.6386-8.9394-3.5a9.2847,9.2847,0,0,1-1.2139,7.4379,9.8389,9.8389,0,0,1-13.6543,2.836,9.9586,9.9586,0,0,1,6.6846-18.166c3.4717.4975,9.4961,1.2353,18.3916,8.8515,7.1367,6.249,10.125,15.541,10.125,15.541,8.2891,21.3755-4.1074,32.74-25.127,40.8912l-28.5009,11.0522s-11.7569,4.5591-8.51,12.9312c0,0,1.5195,3.9189,5.6748,3.5371Zm-13.9258-65.502c-2.4932.9673-12.2031,6.5772-7.8516,17.7994,2.97,7.66,10.15,9.7934,15.0469,9.7387l25.2949-9.8091C950.1816,368.146,939.334,363.9512,929.3584,367.8193Z"/><path d="M1017.7939,515.0044a8.1563,8.1563,0,0,1,6.7745-2.7793c1.541-.0015-.0762-5.19-4.8418-7.8628a26.5254,26.5254,0,0,1-17.3145,9.3062c-15.3545,1.934-30.5078-9.8291-33.374-32.5762-.9307-7.3931-.7-13.1992.7881-18.2007-2.7549-6.5854-21.7217-14.98-19.0469,6.2505l3.1045,24.6431c1.6474,13.08,4.0869,35.4956-23.0713,35.45,0,0-15.45,1.1762-29.1416-17.3189-17.8916-24.32-19.6758-56.832-5.6563-66.3008,12.4092-8.4961,28.2715-.2881,35.8174,10.7007,1.7959-5.6182,6.4366-10.0542,14.0186-11.0093,0,0,16.61-2.67,24.9443,14.5738,2.9531-10.1929,12.4961-16.9795,22.543-18.2452,15.3545-1.9345,30.3193,9.8526,33.1367,32.2207,1.5049,11.9424-.5713,21.4473-5.1152,28.1817a25.8827,25.8827,0,0,1,13.0019,16.0786,11.0236,11.0236,0,0,1-2.0049,10.0732,9.8843,9.8843,0,0,1-13.791.5821A9.6948,9.6948,0,0,1,1017.7939,515.0044Zm-113.85-4.9146c10.06,12.5977,21.6221,9.6006,21.6221,9.6006s9.7139-2.3794,7.8272-17.3545l-3.2959-26.1591c-.2627-2.085-1.5489-9.2408.4111-16.6128-13.05-16.4576-27.2061-.4239-27.04-.6372C893.123,470.0508,891.3457,494.1533,903.9443,510.09Zm119.6875-35.875c-1.1943-9.478-6.6269-15.9189-27.8584-13.2441s-24.9423,11.4229-23.8916,19.7632c1.0987,8.72,6.8643,16.2739,28.0948,13.5991S1024.6582,482.3657,1023.6318,474.2148Z"/><path d="M1024.1982,616.9111a12.3385,12.3385,0,0,1-17.3134-1.584,12.5684,12.5684,0,0,1,1.4111-17.5214,11.4723,11.4723,0,0,1,8.668-2.4688c2.6289.624.334-9.9453-11.0606-17.5117l-43.5693-3.9868c-10.6553-.9751-15.8789-.4937-18.4082,6.1816l-2.8545-.2612,3.2734-35.7691,2.8545.2613c1.6211,7.4385,7.1035,8.3242,16.9971,9.23l47.5654,4.3525c6.47.5918,9.4805-.8594,13.0479-8.3989l2.8535.2612,3.7353,30.4629-20.5478-1.88c13.4863,9.8677,16.6289,19.5562,17.5937,25.7837C1029.0469,607.9541,1027.7461,613.7822,1024.1982,616.9111Z"/><path d="M924.0654,702.8291c-5.2949-2.9736-10.07-12.37-6.9072-22.99,0,0,4.3447-15.253,20.2168-12.3184-7.6592-5.0723-11.2158-17.8945-7.3975-30.7119,0,0,6.2735-21.0566,24.95-15.4932,19.2266,5.7285,17.5743,21.9815,16.1934,56.06l10.9863,3.2725c18.8594,5.6191,31.876-1.2686,29.376-16.9649-1.3867-7.3906-4.41-9.2881-4.9209-8.2441a9.2838,9.2838,0,0,1-5.5166,5.1347,9.8384,9.8384,0,0,1-12.5283-6.125,9.9585,9.9585,0,0,1,16.4131-10.2617c2.4394,2.5215,6.748,6.7949,9.1123,18.2647,1.8115,9.3115-1.52,18.4863-1.52,18.4863-6.5459,21.9727-23.3057,23.3584-44.9121,16.9219l-29.2969-8.7285s-12.085-3.6-14.6494,5.0058c0,0-1.2,4.0283,2.3183,6.2725Zm29.128-60.3c-2.5635-.7637-13.6748-2.28-17.1114,9.2559-2.3457,7.873,2.0215,13.9589,5.9248,16.916.3662.1093,26.001,7.7461,26.001,7.7461C969.45,655.5459,963.4473,645.584,953.1934,642.5293Z"/><path d="M838.2373,819.9375,857.8887,790.1l2.3935,1.5762c-2.2383,7.22,2.3389,10.6914,10.4766,16.0508l32.71,21.5429c10.2119,6.7256,18.5791,5.8311,24.2539-2.7851,4.624-7.0205,1.4834-18.9268-4.58-22.92-.6377-.42-1.2764-.8409-2.0742-1.3663L888.4131,780.92c-8.7754-5.7793-13.7686-7.9238-18.9883-3.126l-2.3936-1.5761L886.6826,746.38l2.3936,1.5762c-2.2383,7.22,2.3388,10.6914,10.4765,16.0507l32.71,21.543c10.2119,6.7256,18.4736,5.99,24.1484-2.626,4.6241-7.0205,1.0088-18.5527-4.1552-22.8691l-35.1036-23.1192c-8.7753-5.7793-13.5546-7.5546-18.8281-3.0205l-2.3935-1.5761L915.4766,702.66l2.3935,1.5761c-2.2383,7.22,2.2842,10.4268,10.4219,15.7862l39.4111,25.957c5.585,3.6777,9.2432,4.0283,16.2647-.7275l2.3935,1.5761L975.3926,775.293,958.958,764.4688c6.627,10.0839,7.6074,24.2275.9863,34.2792-7.3554,11.17-16.98,14.668-30.3134,8.86,7.6308,9.6016,8.2451,24.6475,1.625,34.7-8.4073,12.7646-19.1407,16.9053-38.4483,4.1894l-33.1885-21.8574c-8.7753-5.78-13.7685-7.9248-18.9882-3.1269Z"/><path d="M762.6455,876.4375,791.3672,855.51l1.6875,2.3154c-4.5176,6.1289-1.5635,10.832,4.1758,18.708l28.1289,38.6045c3.8261,5.25,6.9453,6.2871,15.1894,4.2988l1.6875,2.3164-20.2636,22.8028-40.9571-56.208c-6.1885-8.4932-9.998-12.1006-16.6826-9.5938Zm94.0313,76.1641a11.3352,11.3352,0,0,1-2.3594,15.9033,11.6625,11.6625,0,0,1-16.1709-2.4014,11.5006,11.5006,0,0,1,2.7812-15.9736A11.1719,11.1719,0,0,1,856.6768,952.6016Z"/><path d="M673.3086,923.1865l32.1943-15.4941,1.2432,2.583c-5.6309,5.042-3.4893,10.373.7363,19.1533l16.9854,35.294c4.8056,9.9853,13.9736,14.0546,23.959,9.249,7.747-3.7285,11.6836-15.376,9.2236-22.25l-18.2285-37.876c-4.5567-9.47-7.7442-13.4482-14.5987-12.27l-1.2421-2.582,32.0224-15.4112,1.2422,2.5821c-5.6309,5.0429-3.3994,10.1181.8262,18.8984l20.8789,43.3857c2.9,6.0254,5.4443,7.3457,13.9111,6.876l1.2432,2.582-24.041,18.7793-8.7823-18.25c1.1836,12.1534-7.9179,26.2872-18.7636,31.5069-13.6016,6.5459-25.626,4.9111-35.6514-15.9209l-17.2344-35.8106c-4.5566-9.4687-7.7373-13.875-14.6806-12.4423Z"/><path d="M629.7578,931.207c22.5186-5.2314,34.9863.3076,34.9863.3076l5.6631,24.3809-2.792.6484c-4.3379-9.3886-14.1318-27.9062-37.209-22.5459-16.3779,3.8047-12.1416,22.043,4.1641,28.0635l21.4336,6.9864c20.7334,7.3466,28.2266,19.3369,22.3184,34.4394,0,0-3.9932,11.5195-22.79,15.8857-21.4033,4.9708-31.8623,1.32-31.8623,1.32l-5.0576-21.7754,2.791-.6485c3.8926,8.3145,13.1944,23.0235,33.4805,18.3116,14.8887-3.4581,14.5644-20.0557-4.0049-26.5313l-21.5205-7.3584c-19.1709-6.5322-28.1992-20.9121-22.1064-36.0576C607.252,946.6338,611.7041,935.3994,629.7578,931.207Z"/><path d="M531.2891,959.63c2.8154-8.749,12.4921-18.03,24.5146-18.6289,14.3115-.7129,23.3936,4.956,24.544,28.0459l2.8808,57.82,9.541-.4756.7149,2.834-10.1133.5039,1.3115,26.334-20.0654,4.2519-1.4736-29.5781-22.709,1.1309.6211-2.9,21.9453-1.0928-2.8526-57.248c-.6455-12.9766-5.874-18.0723-15.2246-17.6065a13.1706,13.1706,0,0,0-11.0781,8.0127Z"/><path d="M434.75,943.6445c2.167-5.6728,10.7646-11.7715,21.7334-10.1943,0,0,15.7236,2.0684,15.1416,18.1982,3.8984-8.3183,16.0625-13.7119,29.3008-11.8086,0,0,21.749,3.127,18.9756,22.417-2.8555,19.8575-19.1768,20.6-53.09,24.2168L465.18,997.82c-2.8008,19.48,5.916,31.35,21.0791,26.58,7.1084-2.4522,8.543-5.7207,7.4355-6.0723a9.2872,9.2872,0,0,1-5.8857-4.707,9.8379,9.8379,0,0,1,4.2275-13.29,9.9587,9.9587,0,0,1,12.5508,14.7373c-2.1377,2.7812-5.7353,7.6679-16.7363,11.6845-8.9463,3.1533-18.51,1.1992-18.51,1.1992-22.6943-3.2626-26.5166-19.6406-23.3076-41.957l4.3506-30.2588s1.7949-12.4814-7.0938-13.76c0,0-4.1611-.5977-5.8662,3.21Zm63.9121,19.9991c.3809-2.6485.2559-13.8614-11.6592-15.5743-8.1318-1.17-13.5136,4.04-15.8681,8.335-.0547.3779-3.8614,26.8545-3.8614,26.8545C488.1621,981.6289,497.1387,974.2334,498.6621,963.6436Z"/><path d="M327.0039,968.5234a8.1553,8.1553,0,0,1-.9023,7.2666c-.7539,1.3428,4.5595,2.4805,9.2275-.3613a26.5267,26.5267,0,0,1,.3848-19.6533c5.8476-14.3281,23.5322-21.7627,44.76-13.1,6.8994,2.8154,11.8448,5.8652,15.4737,9.6162,7.09.83,23.71-11.5791,3.8974-19.6641l-22.9961-9.3847c-12.206-4.9805-32.9355-13.8526-19.5722-37.4961,0,0,6.5547-14.0391,29.3877-16.8965,29.97-3.6592,59.1757,10.7363,60.5488,27.5986,1.3154,14.9815-13.6191,24.7764-26.8965,25.961,4.0147,4.3212,5.6035,10.541,2.7158,17.6171,0,0-5.8222,15.7832-24.9375,14.586,7.4336,7.5732,8.666,19.2187,4.84,28.5947-5.8477,14.3281-23.46,21.585-44.334,13.0674-11.1445-4.5479-18.4082-11.02-22.0479-18.2832a25.8834,25.8834,0,0,1-20.3886,3.4414,11.0289,11.0289,0,0,1-7.795-6.6895,9.8849,9.8849,0,0,1,6.26-12.3027A9.6935,9.6935,0,0,1,327.0039,968.5234Zm32.68,25.0987c8.8447,3.6093,17.1221,2.0341,25.207-17.7774s2.2842-27.3388-5.5-30.5156c-8.1367-3.32-17.5478-2.002-25.6328,17.81S352.0771,990.5176,359.6836,993.6221Zm27.457-121.8946c-15.9121,2.586-18.9736,14.1309-18.9736,14.1309s-2.6924,9.6318,11.2822,15.335l24.4121,9.9619c1.9453.7939,8.8125,3.1836,14.2744,8.5078,20.7432-3.2969,13.7168-23.4981,13.8213-23.249C427.3389,881.9414,407.209,868.5674,387.1406,871.7275Z"/><path d="M235.0479,923.8291a12.3384,12.3384,0,0,1,9.914-14.2822,12.5689,12.5689,0,0,1,14.5488,9.8662,11.47,11.47,0,0,1-2.125,8.7578c-1.84,1.98,8.4883,5.1943,20.6885-.9893l24.9483-35.9423c6.1015-8.7891,8.2578-13.5713,3.6972-19.0625l1.6348-2.3545,29.5068,20.4824-1.6347,2.3535c-7.2715-2.2559-10.7442,2.0772-16.41,10.2393L292.58,942.1348c-3.7051,5.3369-3.9258,8.6718.875,15.4922l-1.6348,2.3544-28.3457-11.7685,11.7666-16.95c-15.2344,6.8682-25.2129,4.8262-31.1064,2.5957C240.4512,932.4639,236.0215,928.459,235.0479,923.8291Z"/><path d="M209.5547,794.416c5.1914-3.1494,15.7226-2.6885,23.415,5.2871,0,0,11.1455,11.2813.7881,23.6592,8.1826-4.1758,21.0957-.97,30.38,8.6563,0,0,15.2519,15.8134,1.2256,29.3418-14.4385,13.9267-27.7793,4.497-56.7754-13.4561l-8.25,7.957c-14.1641,13.6612-14.5654,28.3809.332,33.92,7.1172,2.4258,10.2559.7256,9.5977-.2314a9.2827,9.2827,0,0,1-1.76-7.3281,9.8386,9.8386,0,0,1,11.4932-7.8994,9.9581,9.9581,0,0,1,.8662,19.3369c-3.3936.8847-9.2334,2.5361-20.3838-1.044-8.998-3-15.35-10.4111-15.35-10.4111-15.916-16.501-8.8838-31.7773,7.3428-47.4277l22.0019-21.2207s9.0762-8.753,2.8418-15.2159c0,0-2.918-3.0253-6.6006-1.0654Zm38.1894,55.0059c1.9248-1.8565,8.7071-10.7862.3516-19.45-5.7031-5.9131-13.1494-5.1016-17.6436-3.1563-.2744.2657-19.5263,18.834-19.5263,18.834C228.418,857.18,240.043,856.85,247.7441,849.4219Z"/><path d="M149.49,662.24l16.3838,31.75-2.5469,1.3145c-5.1972-5.4883-10.4658-3.1992-19.125,1.2695l-34.8056,17.961c-10.8662,5.6074-14.1856,13.34-9.4541,22.5087,3.8545,7.4707,15.7724,10.5655,22.2236,7.2364.68-.3506,1.3584-.7012,2.207-1.14l34.5489-18.0429c9.3379-4.8194,13.6543-8.1211,12.0283-15.0215l2.5469-1.3145,16.3838,31.749-2.5469,1.3145c-5.1973-5.4873-10.4658-3.1992-19.125,1.2695l-34.8057,17.961c-10.8662,5.6074-14.2734,13.1709-9.542,22.3388,3.8555,7.4707,15.68,9.9688,21.9727,7.5821l37.3525-19.2754c9.3379-4.8194,13.2266-8.1162,11.8574-14.9346l2.5469-1.3145,16.2969,31.58-2.5469,1.3145c-5.1972-5.4883-10.208-3.1172-18.8672,1.3515l-41.9365,21.6407c-5.9433,3.0664-8.041,6.084-7.335,14.5351l-2.5468,1.3135-19.4405-23.5068,17.4873-9.0245c-12.0371.837-24.8466-5.2373-30.3671-15.9335-6.1329-11.8858-4.4668-21.99,7.1279-30.7686-12.1094,1.9492-25.5274-4.8867-31.0469-15.583-7.0088-13.583-5.36-24.9688,15.1836-35.57l35.3154-18.2246c9.3379-4.8184,13.6543-8.1211,12.0284-15.0215Z"/></g></svg>