<svg xmlns="http://www.w3.org/2000/svg" width="559" height="30" viewBox="0 0 559 30"><defs><style>.cls-1{fill:#231f20;}</style></defs><title>Artboard 8line</title><g id="Layer_2" data-name="Layer 2"><path class="cls-1" d="M325.884,23.6255c-3.0566-.03-8.4785-.46-14.2724-1.1836-4.8477.1836-10.4815.2583-17.0713.1948a.3746.3746,0,0,1-.3711-.3784.39.39,0,0,1,.3779-.3716h.001l.0488,0c1.0576,0,3.4424-.2886,6.9541-.7759-17.3213-1.75-40.8974-4.1318-60.1777-6.2007-7.6094-.8164-13.5576-1.4746-18.2041-2.01-.6934.3979-1.5293.8393-2.5029,1.34,11.9912,2.8272,17.625,4.3824,17.4355,6.0347-.085.7388-.2432,2.1138-18.6445,2.1514-7.3223-.0708-8.5-1.0992-8.708-1.9873-.376-1.6065,2.8-3.41,7.7539-5.937-5.3428-1.2579-8.5137-2.0479-10.2793-2.6553a26.5394,26.5394,0,0,0-5.625,2.3271c-6.7217,3.4571-15.8242,8.1695-83.2744,7.9951a.366.366,0,0,1,.0263.1226.3761.3761,0,0,1-.3467.3892c-.0439.0024-.1035.0029-.1767.0014-54.7842.229-55.2764-3.6235-55.749-7.3457-.2159-1.6933-.4209-3.3208-8.5948-4.247-.2714-.0186-.54-.0372-.8095-.0552-39.0918.7373-45.2227,2.8891-45.8155,3.9326-.0263.0459-.039.0825.0108.1665,1.8652,3.1147,39.0967,7.2358,67.6074,6.542a.3558.3558,0,0,1,.3838.3657.376.376,0,0,1-.3662.3843c-24.9541.6064-65.9238-2.99-68.2686-6.9072a.8828.8828,0,0,1-.0195-.9219c1.3115-2.3081,17.0957-3.5059,37.17-4.085-2.0107-.0864-3.9121-.1469-5.6836-.1787h-.01a.375.375,0,0,1,.0068-.75h.0049c6.7392.08,11.6445.3267,15.2226.7031,11.0635-.2094,22.8594-.27,33.9717-.2534a.375.375,0,0,1,.001.75c-9.6592.04-10.8809.9151-11.0254,1.1826-.0059.0108-.0186.0337.0332.1143a1.3405,1.3405,0,0,0,.251.2739c5.1582.5283,10.4512,1.1177,15.7285,1.7549,16.001,1.9321,35.0664,4.6558,35.0312,6.66-.0029.1992-.0078.4292-.4873.645,59.9121-.231,68.4571-4.626,74.834-7.9063a29.2841,29.2841,0,0,1,4.8408-2.1128c-.6084-.3012-.83-.5688-.8066-.8544a.5628.5628,0,0,1,.3154-.459c.0879-.3511.57-.3863,2.0606-.3809a.3747.3747,0,0,1,.2812.6206q.6768.1128,1.5869.2456a80.2923,80.2923,0,0,1,13.542-.8843c.6368.087,1.4219.2681,1.5225.8755.083.5069-.3926,1.0435-1.3887,1.7066,19.1,2.188,50.2539,5.3559,72.2862,7.583-4.8711-1.1724-8.3125-2.5464-8.31-4.0147.0127-5.9184,58.5342-6.2807,77.7656-6.4h.002a.375.375,0,0,1,.0078.75c-13.8223.2705-17.336,2.4854-21.4043,5.05-.0664.042-.1328.0835-.1992.1255C365.4983,12.91,391.176,10.69,416.4514,10.69c.58,0,1.1533.0009,1.7344.0034,7.6973-.1787,10.87.3481,12.2461,1.0732a8.9511,8.9511,0,0,1,2.3769-1.5317.6983.6983,0,0,1,.417-.0318c9.1543.1431,13.6739,2.4781,15.8867,4.54,6.2725-2.792,20.837-4.6275,41.5518-5.1035l.2559-.0059A.3918.3918,0,0,1,491.303,10a.3755.3755,0,0,1-.3662.3833c-.0625.0015-.125.0024-.1875.0039a21.477,21.477,0,0,0-2.2286.1382c2.9961,1.0391,17.4786,3.1621,30.377,5.0532,28.3584,4.1568,34.0752,5.2393,33.9834,6.436-.0352.47-.0635.9527-7.7168.9048a.375.375,0,0,1,.0029-.75h.003a41.9662,41.9662,0,0,0,6.6552-.2509c-2.7714-1.1617-19.4648-3.6084-33.0361-5.5982C492.76,12.5049,487.45,11.53,487.3206,10.48c-21.6866.6743-32.7178,2.81-37.6094,4.873a7.3407,7.3407,0,0,1,1.1406,1.6646,4.3826,4.3826,0,0,1,.1348,4.0478,33.4682,33.4682,0,0,0,8.2558.8853h.003a.375.375,0,0,1,.0048.75q-8.6528.1113-14.9257-.3691c-.1407,0-.2784,0-.4161,0-12.8847.0005-15.3828-1.4477-16.0283-2.7583a2.41,2.41,0,0,1,.3906-2.394,3.066,3.066,0,0,1-.2451-.78c-.2568-1.4961.6768-2.9551,1.8106-4.083-1.6748-.7212-5.5869-1.0146-11.6436-.873-26.4463-.125-53.4511,2.2719-75.3457,4.8457-3.9668,2.3584-9.4463,4.7212-24.372,5.7856q.3662.0373.7167.0737c3.9541.4068,5.6788.5845,6.4317.7291.0713.0009.1416.0019.2119.0024v.0435c.3721.0927.374.1806.377.3217A.3826.3826,0,0,1,325.884,23.6255ZM60.6125,11.5488c2.8682,1.0044,3.0332,2.3033,3.209,3.6934.3692,2.9067.83,6.4844,46.3916,6.69a.376.376,0,0,1,.1377-.5053c-11.2051-1.9551-29.6386-5.772-33.4795-8.3824C71.3791,12.481,65.8772,11.9717,60.6125,11.5488ZM450.2668,21.8862c.3291.01.6612.02,1.001.0279q-.4073-.0953-.791-.2012A2.4963,2.4963,0,0,1,450.2668,21.8862Zm-145.665-.4477q-1.79.2556-3.3027.4648,3.0541-.016,5.7968-.0766C306.26,21.7026,305.427,21.5732,304.6018,21.4385ZM219.634,14.7676c-.0869.0444-.1758.0893-.2646.1347-3.2549,1.6534-8.1738,4.1519-7.89,5.3658.0938.4008,1.06,1.3413,7.98,1.4082,16.3135-.0332,17.8223-1.147,17.8965-1.4873C237.35,18.9463,225.9983,16.2622,219.634,14.7676Zm88.1221,6.2173c2.1758.22,4.2061.4253,6.0615.6137,16.1739-.7656,22.8-2.8476,27.0781-5.0786-13.0136,1.5571-24.1044,3.16-32.0341,4.3052Q308.3,20.9065,307.7561,20.9849Zm121.3975-3.7774c1.1113,1.6558,4.8007,3.5757,15.3466,4.3794q1.894-.0066,4.0157-.0517a1.7789,1.7789,0,0,0,1.0429-.1026c-2.415-.813-3.8759-1.96-3.8955-3.2807-.0166-1.11.916-2.1363,2.7246-3.0635-2.1679-1.9077-6.5332-4.0142-15.26-4.1372a.3687.3687,0,0,1-.0772-.0093,8.0525,8.0525,0,0,0-1.9814,1.2852,1.6617,1.6617,0,0,1,.3056.4335c.5342,1.0835-.455,2.3125-1.4121,3.501C429.6819,16.51,429.3987,16.8628,429.1536,17.2075ZM114.56,21.4014q2.0171.01,3.9658.0156c6.4053-.0713,8.128-.4429,8.5625-.6841-1.8564-1.6255-24.7275-5.021-48.3672-7.4971C85.052,15.9937,105.4241,19.9731,114.56,21.4014ZM428.7219,17.9a1.4867,1.4867,0,0,0-.1679,1.3423c.5546,1.1294,3.3076,1.8462,8.3447,2.1606Q430.5647,20.198,428.7219,17.9Zm20.2735-2.2251c-1.8555.8926-2.5928,1.7573-2.5821,2.4658.0147.9781,1.4121,1.982,3.82,2.7134a3.5775,3.5775,0,0,0-.0556-3.5078A6.8118,6.8118,0,0,0,448.9954,15.6748ZM304.1262,20.6177c.18.0185.3594.0366.5371.0547q1.897-.2718,4.0918-.5894c8.294-1.1982,20.0518-2.897,33.8438-4.52.54-.3232,1.0517-.646,1.5576-.9648a25.8385,25.8385,0,0,1,11.1191-4.3189c-59.6074.7217-66.3359,4.0825-66.34,5.5547C288.9329,17.373,295.843,19.207,304.1262,20.6177ZM430.5051,12.729a4.598,4.598,0,0,0-1.7636,3.36,2.0162,2.0162,0,0,0,.0566.3369c.1865-.2461.3848-.4912.581-.7354.81-1.0049,1.6465-2.0444,1.3243-2.6987A.9646.9646,0,0,0,430.5051,12.729ZM209.6233,11.5083c2.48.7212,6.3262,1.6245,9.874,2.457l.041.01c.7471-.38,1.5723-.8047,2.3467-1.2231-5.501-.6407-9.0264-1.0958-11.2851-1.4361C210.261,11.3774,209.9348,11.4414,209.6233,11.5083ZM61.6086,10.91c4.6123.38,9.5088.831,14.544,1.3413a.7883.7883,0,0,1,.0517-.6436c.1475-.2734.4854-.563,1.3877-.8183C71.801,10.8076,66.4856,10.8491,61.6086,10.91Zm151.6036.0244c2.5937.3408,5.92.7436,9.7919,1.1909,1.06-.6172,1.836-1.1611,1.8526-1.4507h0a1.696,1.696,0,0,0-.833-.2471A97.87,97.87,0,0,0,213.2122,10.9346Zm-5.8819-.2285a7.516,7.516,0,0,0,.8936.3623q.17-.0447.3457-.0884C208.0178,10.877,207.6194,10.7866,207.33,10.7061Z"/></g></svg>