<svg xmlns="http://www.w3.org/2000/svg" width="1359.24" height="1359.24" viewBox="0 0 1359.24 1359.24"><title>programming tutor</title><g id="Layer_2" class="text" data-name="Layer 2"><path d="M139.3955,704.375c.4238,9.1611-1.6855,17.292-5.42,23.3945l36.0723-1.67c10.497-.4863,14.6513-1.6348,16.0507-8.585l2.8633-.1328,1.6524,35.6905-2.8633.1328c-2.4346-7.1553-7.0332-7.3252-16.7666-6.875L69.6387,751.0215c-6.68.31-8.3174,2.1064-10.0547,10.0293l-2.8633.1318L48.8535,731.71l15.0772-.6983c-10.9619-5.4219-15.97-18.5781-16.4024-27.9306-1.0869-23.4756,16.458-41.1192,44.7051-42.4268C122.3887,659.2588,138.1855,678.2275,139.3955,704.375Zm-85.0068,6.4219c.5566,12.0244,10.0615,19.0429,22.33,19.623l35.3085-1.6347c18.26-2.1836,25.0264-13.0166,24.5235-23.8956-.6192-13.36-11.167-22.2441-40.94-20.8652C65.0732,685.4375,53.6465,694.7646,54.3887,710.7969Z"/><path d="M59.4717,571.1187a12.3394,12.3394,0,0,1,17.2588,2.104,12.5687,12.5687,0,0,1-1.9375,17.4707,11.47,11.47,0,0,1-8.7373,2.207c-2.6094-.7031-.6338,9.9316,10.5283,17.8359l43.4306,5.294c10.62,1.2939,15.8565.97,18.585-5.626l2.8447.3467-4.3457,35.6543-2.8447-.3467c-1.3975-7.4844-6.8506-8.5342-16.7129-9.7363L70.1279,630.543c-6.4482-.7852-9.5009.5742-13.2929,8.0039L53.99,638.2l-2.8193-30.5615,20.4824,2.4961C58.47,599.8672,55.62,590.0889,54.8428,583.835,54.3564,579.9263,55.832,574.14,59.4717,571.1187Z"/><path d="M160.834,526.46c-8.2012,27.86-32.6045,37.0088-56.6152,29.94-24.1934-7.1221-39.5645-27.979-31.3633-55.8389,8.2549-28.043,32.4746-37.2456,56.6689-30.1235C153.5352,477.5068,169.0889,498.4175,160.834,526.46ZM75.6045,501.3716c-3.9922,13.5635,2.1836,22.3525,35.3594,32.1181s43.1279,5.7251,47.1211-7.8383c4.0459-13.7466-2.1836-22.3526-35.3594-32.1182S79.6514,487.625,75.6045,501.3716Z"/><path d="M148.1924,364.6914a8.1592,8.1592,0,0,1-7.1553-1.5576c-1.2685-.8731-2.8828,4.3159-.4766,9.2217a26.527,26.527,0,0,1,19.5372,2.166c13.7382,7.123,19.538,25.4092,8.9853,45.7632-3.43,6.6152-6.916,11.2641-10.98,14.5371-1.47,6.9853,9.38,24.6621,19.2285,5.665l11.4326-22.05c6.0674-11.7031,16.7833-31.542,39.1163-16.09,0,0,13.3867,7.8017,14.1611,30.7993.9248,30.1782-16.06,57.958-32.9766,57.7959-15.039-.0493-23.4384-15.81-23.414-29.1406-4.668,3.6064-11.0059,4.624-17.791,1.1069,0,0-15.19-7.2295-12.2637-26.1572-8.2158,6.7158-19.9258,6.8862-28.9151,2.2256-13.7392-7.1231-19.3691-25.3213-8.9921-45.336,5.54-10.686,12.6445-17.3325,20.207-20.2983a25.8824,25.8824,0,0,1-1.5772-20.6167,11.0248,11.0248,0,0,1,7.3682-7.1558,9.8852,9.8852,0,0,1,11.6846,7.3492A9.6952,9.6952,0,0,1,148.1924,364.6914Zm-27.959,30.2676c-4.3965,8.4809-3.58,16.8672,15.417,26.7163s27.02,4.7534,30.8887-2.7095c4.0449-7.8022,3.5859-17.2944-15.4112-27.143S124.0146,387.6655,120.2334,394.959Zm118.9,38.4c-1.1318-16.0816-12.3516-20.1768-12.3516-20.1768s-9.3476-3.5547-16.2949,9.8447l-12.1357,23.4073c-.9668,1.8657-3.9688,8.4873-9.7666,13.4438,1.4013,20.9566,22.1572,15.7915,21.8994,15.8731C225.3154,472.4653,240.46,453.6313,239.1338,433.3594Z"/><path d="M195.8164,276.8906A12.338,12.338,0,0,1,209.72,287.33a12.5678,12.5678,0,0,1-10.4,14.1709,11.4682,11.4682,0,0,1-8.6728-2.45c-1.91-1.9116-5.5069,8.2891.2178,20.7109l34.9882,26.27c8.5567,6.4239,13.2549,8.7574,18.9131,4.4043l2.291,1.7207L225.49,380.88l-2.292-1.7207c2.5264-7.1826-1.6748-10.8145-9.62-16.78L175.3818,333.7c-5.1953-3.9-8.5195-4.2456-15.5146.2978l-2.291-1.7207,12.8154-27.8881,16.501,12.39c-6.2969-15.479-3.8848-25.3745-1.4356-31.1816C186.9873,281.9678,191.1543,277.69,195.8164,276.8906Z"/><path d="M323.7959,252.5308c3.2041,5.1582,2.8555,15.6938-5.0391,23.4712,0,0-11.1621,11.2661-23.6513,1.04,4.2627,8.1382,1.1943,21.0859-8.334,30.4722,0,0-15.6524,15.4209-29.33,1.538-14.0791-14.2915-4.792-27.7334,12.8545-56.92l-8.0459-8.1665c-13.8115-14.019-28.5361-14.2641-33.917.6929-2.3506,7.1436-.6172,10.2637.334,9.5952a9.2835,9.2835,0,0,1,7.31-1.8369,9.84,9.84,0,0,1,8.0214,11.4092,9.96,9.96,0,0,1-19.3291,1.0718c-.92-3.3848-2.6328-9.2071.8282-20.3955,2.9043-9.03,10.248-15.461,10.248-15.461,16.333-16.0913,31.6846-9.2217,47.5078,6.8394l21.4551,21.7773s8.85,8.9829,15.2471,2.6807c0,0,2.9941-2.95.9951-6.6128Zm-54.6025,38.7744c1.8769,1.9057,10.88,8.5932,19.4541.145,5.8535-5.7661,4.9629-13.2036,2.97-17.6768-.2686-.2724-19.042-19.3276-19.042-19.3276C261.2305,272.0605,261.6846,283.6831,269.1934,291.3052Z"/><path d="M452.3193,181.9116l-30.3115,18.9151-1.5176-2.4312c5.0469-5.6269,2.3369-10.6919-2.8213-18.959l-20.7363-33.229c-6.4736-10.374-14.4512-13.0532-23.2041-7.5913-7.1328,4.4507-9.2471,16.5811-5.4033,22.74.4043.6485.8086,1.2969,1.3144,2.1075L390.4365,196.43c5.5635,8.9155,9.2061,12.9482,15.9522,10.7656l1.5166,2.4317-30.3115,18.915-1.5167-2.4316c5.0469-5.6265,2.336-10.6919-2.8222-18.9585l-20.7363-33.2295c-6.4737-10.3741-14.2891-13.1538-23.042-7.6919-7.1319,4.4507-8.6592,16.4394-5.7676,22.5171l22.2529,35.6606c5.5635,8.9155,9.166,12.523,15.8506,10.6035l1.5176,2.4317-30.1494,18.8139-1.5176-2.4316c5.0469-5.6265,2.2754-10.4287-2.8828-18.6953l-24.9844-40.0371c-3.54-5.6734-6.7188-7.5186-15.084-6.127l-1.5176-2.4316,21.8477-21.2906L319.4609,181.94c-1.8144-11.9306,3.1973-25.1923,13.4092-31.5649,11.3467-7.0806,21.5537-6.2432,31.2471,4.5991-2.9287-11.9106,2.793-25.8408,13.0049-32.2134,12.9668-8.0918,24.45-7.375,36.6894,12.2383l21.0391,33.7158c5.5635,8.9151,9.206,12.9478,15.9521,10.7652Z"/><path d="M590.9531,139.7271l-34.2265,10.2465-.8223-2.7456c6.3525-4.0957,5.0752-9.6958,2.28-19.0307L546.9521,90.6768c-3.5068-11.7139-10.4951-16.4029-20.3789-13.4439C518.52,79.6436,513.28,90.7852,515.3623,97.74c.22.7325.4385,1.4644.7129,2.3794l11.36,37.2832c3.0137,10.0669,5.4639,14.9175,12.5459,14.5923l.8213,2.7456-34.2265,10.2461-.8213-2.7451c6.3525-4.0957,5.0742-9.6963,2.28-19.0308L496.8018,105.69c-3.5069-11.7138-10.3116-16.457-20.1954-13.4985-8.0527,2.4111-12.6894,13.5713-11.5039,20.1968l12.0547,40.2661c3.0137,10.0669,5.5371,14.4966,12.4912,14.4092l.8213,2.7456-34.0429,10.1914-.8223-2.7451c6.3525-4.0957,4.9463-9.4585,2.1523-18.793l-13.5341-45.208c-1.918-6.4058-4.4971-9.0244-12.9327-9.8892l-.8222-2.7456,26.69-14.771,5.6436,18.8521c1.3974-11.9854,9.73-23.4546,21.2617-26.9068,12.8115-3.8354,22.4355-.3349,28.9238,12.68.3184-12.2607,9.5117-24.187,21.043-27.6391,14.6416-4.3833,25.5283-.6621,32.1582,21.4843l11.3974,38.07c3.0137,10.0669,5.4629,14.9174,12.545,14.5922Z"/><path d="M637.2148,138.46l-35.3232,3.8969-.3145-2.8486c6.9659-3.0752,6.7383-8.6245,5.67-18.31L602.0088,73.72c-.7119-6.457-2.9043-8.9062-11.0469-11.2759l-.3144-2.8486,28.914-9.7251,7.626,69.1274c1.1523,10.4454,2.667,15.4678,9.7139,16.6128ZM593.4385,25.6489a11.3353,11.3353,0,0,1,9.9472-12.6308,11.6627,11.6627,0,0,1,12.8418,10.1167,11.5009,11.5009,0,0,1-10.3486,12.4829A11.1726,11.1726,0,0,1,593.4385,25.6489Z"/><path d="M739.4453,138.4648l-35.7158-.91.0732-2.8648c7.3116-1.916,7.84-7.6362,8.0879-17.3769l.9981-39.1538c.2822-11.0777-6.0176-18.8828-17.0948-19.1651-8.5947-.2192-17.413,8.3477-18.3623,15.586L676.36,116.5986c-.2676,10.5049.7519,15.5,7.3876,17.58l-.0722,2.8652-35.5254-.9057.0732-2.8648c7.3116-1.916,7.6436-7.45,7.8916-17.19l1.2266-48.1309c.1709-6.6845-1.49-9.02-9.2383-12.4667l.0733-2.8653,29.9609-5.7344-.5166,20.2456c4.4941-11.3525,19.043-19.7734,31.0752-19.4667,15.0889.3847,25.041,7.3276,24.4521,30.4375l-1.0127,39.727c-.2675,10.5049.5508,15.877,7.3829,17.771Z"/><path d="M844.1074,84.126a8.1563,8.1563,0,0,1-.3867-7.3125c.5078-1.4546-4.9238-1.6421-9.02,1.9736a26.5254,26.5254,0,0,1,3.0674,19.416c-3.2451,15.1323-19.3526,25.5523-41.77,20.7456-7.2852-1.562-12.69-3.6977-16.919-6.7544-7.126.4263-21.3125,15.5572-.39,20.043l24.2861,5.207c12.89,2.7637,34.8535,7.8638,25.8438,33.4834,0,0-3.9922,14.9717-25.9707,21.7881-28.8643,8.8574-60.1416-.1938-64.45-16.5542-3.9219-14.519,9.0634-26.7807,21.9277-30.2754-4.71-3.55-7.3643-9.395-5.7627-16.8676,0,0,2.9648-16.56,21.9932-18.7325-8.6455-6.1528-11.9-17.4023-9.7774-27.3032,3.2442-15.1318,19.3115-25.3652,41.3555-20.6387,11.7695,2.5235,20.0557,7.6216,24.9121,14.1343a25.8832,25.8832,0,0,1,19.47-6.9634,11.0273,11.0273,0,0,1,8.8467,5.2188,9.8842,9.8842,0,0,1-4.0049,13.21A9.6941,9.6941,0,0,1,844.1074,84.126ZM801.874,189.9668c15.2129-5.3359,16.2022-17.2388,16.2022-17.2388s.9619-9.9546-13.7969-13.1186l-25.78-5.5279c-2.0547-.44-9.2334-1.5888-15.5449-5.873-19.8437,6.8833-9.3838,25.54-9.5312,25.3125C760.5078,186.96,782.6709,196.5967,801.874,189.9668Zm5.6592-124.82c-9.3408-2.0029-17.2139.9985-21.7,21.9219s2.5459,27.3154,10.7656,29.0781c8.5928,1.8423,17.627-1.1055,22.1133-22.0288S815.5664,66.8687,807.5332,65.1465Z"/><path d="M954.3818,192.7329c-6.7334,6.2554-19.7119,9.6221-30.4922,4.2676-12.833-6.3745-17.9843-15.76-7.7-36.4644L941.9414,108.69l-8.5557-4.25.7618-2.8217,9.0693,4.5044,11.7285-23.6133,19.583,6.1-13.1738,26.5224,20.3623,10.1138-1.959,2.2271-19.6787-9.7745-25.4971,51.334c-5.7793,11.6353-3.71,18.6363,4.6748,22.8008a13.17,13.17,0,0,0,13.5811-1.5737Z"/><path d="M1032.8418,261.32l-22.9873-10.833c-4.5-2.2383-2.1875-5.5171-2.1875-5.5171l9.4687-13.4282c-9.3349,6.2754-26.2841,5.7788-36.4336-1.3784-11.7109-8.2578-17.62-19.4385-4.1875-38.4883l24.1143-34.1953c6.9365-9.8369,7.9092-10.5537-.4863-17.8765l1.6513-2.3423,27.2315,14.7608L993.24,202.7676c-7.2666,10.3056-4.7285,18.6416,4.3272,25.0278,5.9336,4.1841,15.1709,3.6836,22.6514-.626l26.3154-37.3183c6.7168-9.5244,8.2861-10.7559.92-16.8858l1.6514-2.3423,25.9824,13.88-42.1719,59.8028c-5.2851,7.4951-4.54,9.4228,1.4678,14.8281Z"/><path d="M1088.3379,298.3188c-8.3047,3.939-21.6943,3.2432-30.3643-5.1074-10.3193-9.9414-12.4082-20.4424,3.6309-37.0923l40.1641-41.6938-6.8809-6.6279,1.5762-2.4615,7.2929,7.0249,18.292-18.9892,16.84,11.7114-20.5459,21.3286,16.375,15.7739-2.5391,1.5337-15.8242-15.2436-39.7666,41.2812c-9.0127,9.357-9.1465,16.6563-2.4043,23.1514a13.17,13.17,0,0,0,13.4258,2.5869Z"/><path d="M1110.1924,352.3882c-17.5977-23.103-10.5235-48.1851,9.3877-63.3506,20.0635-15.2817,45.9717-15.3213,63.5683,7.7817,17.7129,23.2549,10.79,48.2212-9.2724,63.503C1153.9648,375.4878,1127.9043,375.6431,1110.1924,352.3882Zm70.6767-53.832c-8.5673-11.2476-19.3066-11.4737-46.8173,9.48s-30.1465,31.3677-21.58,42.6153c8.6826,11.3994,19.3066,11.4731,46.8174-9.481S1189.5518,309.9556,1180.8691,298.5562Z"/><path d="M1250.5381,414.1587a12.3393,12.3393,0,0,1-15.3672,8.1338,12.5686,12.5686,0,0,1-8.3916-15.4463,11.4684,11.4684,0,0,1,5.91-6.8037c2.5429-.9141-5.1543-8.5132-18.8321-8.6236l-38.6719,20.47c-9.456,5.0053-13.5683,8.2632-12.04,15.2363l-2.5322,1.3408-16.8047-31.7475,2.5332-1.3409c5.4228,5.3448,10.499,3.09,19.28-1.5581l42.2168-22.3462c5.7412-3.0395,7.47-5.9,6.3379-14.1645l2.5332-1.3408,19.7754,23.4736-18.2383,9.6538c16.6884.895,24.6142,7.2925,28.8252,11.981C1249.7051,404.0068,1251.8,409.5991,1250.5381,414.1587Z"/><path d="M1219.8848,655.81c-.4082-9.1621,1.7168-17.2891,5.4609-23.3848l-36.0742,1.6064c-10.4981.4678-14.6553,1.6094-16.0674,8.5567l-2.8623.1279-1.59-35.6933,2.8632-.127c2.4229,7.1592,7.0205,7.3369,16.7549,6.9033l101.3535-4.5127c6.6807-.2978,8.3213-2.0918,10.0723-10.0107l2.8633-.1279,7.8154,29.4873-15.0781.6709c10.9521,5.4414,15.9365,18.6074,16.3535,27.96,1.0449,23.4766-16.53,41.09-44.7793,42.3477C1236.8125,700.9561,1221.0488,681.959,1219.8848,655.81Zm85.0185-6.2715c-.5351-12.0254-10.0293-19.0615-22.2959-19.6631l-35.3115,1.5732c-18.2637,2.1514-25.05,12.9727-24.5654,23.8526.5957,13.36,11.1279,22.2627,40.9043,20.9375C1294.1738,674.8779,1305.6172,665.5713,1304.9033,649.5381Z"/><path d="M1299.5889,789.1914a12.34,12.34,0,0,1-17.2559-2.1328A12.5692,12.5692,0,0,1,1284.3,769.59a11.47,11.47,0,0,1,8.7412-2.1923c2.6084.708.65-9.9307-10.499-17.8545l-43.4229-5.3672c-10.6191-1.3125-15.8564-.9971-18.5957,5.5947l-2.8447-.3516,4.4063-35.6484,2.8447.3516c1.3848,7.4873,6.8369,8.5459,16.6973,9.7646l47.4052,5.8594c6.4463.7969,9.502-.5586,13.3076-7.9815l2.8438.3516,2.7676,30.5674-20.4795-2.5313c13.167,10.2911,16.001,20.0752,16.7676,26.33C1304.7188,780.3916,1303.2334,786.1768,1299.5889,789.1914Z"/><path d="M1198.1416,833.6787c8.25-27.8457,32.6689-36.9521,56.667-29.8418,24.1826,7.1641,39.5176,28.0479,31.2676,55.8945-8.3047,28.0284-32.54,37.1895-56.7227,30.0245C1205.3555,882.6465,1189.8369,861.708,1198.1416,833.6787Zm85.1865,25.2383c4.0166-13.5566-2.1445-22.3565-35.3037-32.1807s-43.1191-5.8-47.1348,7.7569c-4.0712,13.7392,2.1446,22.3564,35.3028,32.1806S1279.2568,872.6562,1283.3281,858.917Z"/><path d="M1210.5088,995.4541a8.1575,8.1575,0,0,1,7.1523,1.5693c1.2676.876,2.8907-4.3105.4922-9.2207a26.5265,26.5265,0,0,1-19.5332-2.1992c-13.7265-7.1465-19.4941-25.4424-8.9072-45.7783,3.4414-6.6094,6.9355-11.252,11.0049-14.5176,1.4814-6.9834-9.3379-24.6787-19.2188-5.6982l-11.47,22.03c-6.0879,11.6924-16.8369,31.5127-39.1436,16.0225,0,0-13.374-7.8242-14.1084-30.8232-.874-30.1787,16.1582-57.93,33.0752-57.7383,15.0391.0752,23.4112,15.8506,23.3643,29.1806,4.6728-3.5986,11.0137-4.6054,17.792-1.0761,0,0,15.1777,7.2549,12.2187,26.1777,8.2276-6.7021,19.9375-6.8516,28.919-2.1758,13.7265,7.1465,19.3252,25.3535,8.914,45.3506-5.5576,10.6768-12.6738,17.3106-20.2421,20.2637a25.8835,25.8835,0,0,1,1.5429,20.6191,11.0267,11.0267,0,0,1-7.3808,7.1426,9.8849,9.8849,0,0,1-11.6719-7.3691A9.6942,9.6942,0,0,1,1210.5088,995.4541Zm-90.8223-68.8232c1.1035,16.083,12.3164,20.1972,12.3164,20.1972s9.3418,3.5713,16.3116-9.8164l12.1748-23.3867c.9707-1.8633,3.9843-8.48,9.791-13.4268-1.3662-20.958-22.13-15.8291-21.8721-15.91C1133.5713,887.5488,1118.3945,906.3564,1119.6865,926.6309Zm118.8321,38.6035c4.4121-8.4737,3.6093-16.86-15.3711-26.7422s-27.01-4.8-30.8926,2.6562c-4.0576,7.7959-3.6153,17.2881,15.3652,27.169S1234.7256,972.5215,1238.5186,965.2344Z"/><path d="M1162.7471,1083.1719A12.338,12.338,0,0,1,1148.86,1072.71a12.5705,12.5705,0,0,1,10.4248-14.1553,11.4739,11.4739,0,0,1,8.6689,2.4648c1.9072,1.9151,5.5215-8.28-.1836-20.7119l-34.9463-26.3291c-8.5459-6.4385-13.2412-8.78-18.9062-4.4365l-2.2891-1.7246,21.6152-28.69,2.2891,1.7246c-2.5371,7.1787,1.6582,10.8184,9.5938,16.7969l38.15,28.7442c5.1885,3.9091,8.5127,4.26,15.5157-.2715l2.289,1.7246-12.8623,27.8672-16.4814-12.417c6.2715,15.49,3.8418,25.3818,1.3838,31.1855C1171.5859,1078.1094,1167.4111,1082.38,1162.7471,1083.1719Z"/><path d="M1034.6865,1107.3408c-3.1943-5.164-2.8271-15.6982,5.08-23.4619,0,0,11.1826-11.2461,23.6523-.998-4.248-8.1455-1.1562-21.087,8.3868-30.4571,0,0,15.6787-15.3926,29.332-1.4863,14.0537,14.3154,4.7432,27.74-12.9531,56.8955l8.03,8.18c13.7872,14.043,28.5108,14.3135,33.918-.6328,2.3623-7.1387.6348-10.2627-.3174-9.5957a9.2807,9.2807,0,0,1-7.3125,1.8242,9.8388,9.8388,0,0,1-8.0009-11.4229,9.9586,9.9586,0,0,1,19.3291-1.038c.915,3.3867,2.6171,9.2119-.8633,20.3935-2.92,9.0254-10.2744,15.4424-10.2744,15.4424-16.36,16.0615-31.6993,9.165-47.4932-6.9219l-21.416-21.8144s-8.835-8.9981-15.2422-2.7071c0,0-3,2.9444-1.0068,6.61Zm54.669-38.6777c-1.8741-1.9082-10.8643-8.6113-19.4541-.1787-5.8623,5.7549-4.9844,13.1943-2.9991,17.6709.2676.2724,19.0059,19.3593,19.0059,19.3593C1097.2842,1087.9209,1096.8506,1076.2979,1089.3555,1068.6631Z"/><path d="M906.0605,1177.7188l30.3428-18.8614,1.5127,2.4336c-5.0566,5.6182-2.3545,10.6875,2.7891,18.9629l20.6767,33.2637c6.4551,10.3847,14.4278,13.0771,23.1895,7.6308,7.14-4.4375,9.2754-16.5634,5.4424-22.73-.4033-.6484-.8067-1.2978-1.3106-2.1093l-20.7383-33c-5.5468-8.9248-9.1826-12.9639-15.9316-10.793l-1.5127-2.4336,30.3428-18.8613,1.5127,2.4336c-5.0567,5.6181-2.3555,10.6875,2.789,18.9629l20.6758,33.2636c6.4551,10.3848,14.2656,13.1787,23.0283,7.7325,7.14-4.4385,8.6875-16.4239,5.8067-22.5059l-22.1895-35.6982c-5.5478-8.9239-9.1435-12.5381-15.831-10.63l-1.5127-2.4346,30.1806-18.76,1.5127,2.4336c-5.0566,5.6182-2.2939,10.4239,2.85,18.6993l24.9131,40.0791c3.53,5.68,6.7051,7.53,15.0723,6.1533l1.5127,2.4336-21.8828,21.2509-10.3887-16.7128c1.793,11.9326-3.2422,25.1855-13.4639,31.54-11.3584,7.06-21.5634,6.2041-31.2373-4.6543,2.9073,11.915-2.8379,25.835-13.0605,32.1885-12.9815,8.0693-24.4619,7.332-36.666-12.3018l-20.98-33.75c-5.5469-8.9248-9.1826-12.9639-15.9317-10.793Z"/><path d="M767.3428,1219.665l34.247-10.1865.8164,2.7471c-6.3593,4.084-5.0917,9.6875-2.3134,19.0273l11.167,37.543c3.4863,11.7207,10.4668,16.4219,20.3554,13.48,8.0586-2.3975,13.3184-13.53,11.2481-20.4893l-.708-2.3809-11.2959-37.3056c-2.9961-10.0723-5.4365-14.9277-12.52-14.6143l-.8173-2.747,34.2461-10.1875.8173,2.747c-6.36,4.085-5.0918,9.6875-2.3134,19.0283l11.167,37.542c3.4863,11.7207,10.2832,16.4766,20.1718,13.5352,8.0586-2.3965,12.7149-13.5488,11.54-20.1768l-11.9834-40.29c-2.9961-10.0723-5.5118-14.5068-12.4659-14.4316l-.8173-2.7471,34.0634-10.1328.8174,2.747c-6.36,4.085-4.9638,9.45-2.1855,18.79l13.4551,45.2344c1.9062,6.41,4.48,9.0332,12.915,9.913l.8174,2.7471-26.7168,14.7246-5.6113-18.8633c-1.419,11.9844-9.7725,23.44-21.31,26.8711-12.82,3.8125-22.4375.295-28.9043-12.7324-.34,12.2608-9.5547,24.1719-21.0918,27.6035-14.6514,4.3584-25.5313.6172-32.1231-21.542l-11.33-38.0927c-2.9961-10.0723-5.4375-14.9278-12.52-14.6143Z"/><path d="M721.0908,1220.8535l35.3281-3.8369.31,2.8486c-6.97,3.0635-6.751,8.6133-5.6992,18.3l5.1572,47.4854c.7012,6.458,2.89,8.9111,11.0283,11.2939l.31,2.85-28.93,9.6758-7.51-69.1386c-1.1348-10.4463-2.6407-15.4717-9.6856-16.628Zm43.586,112.8819a11.3353,11.3353,0,0,1-9.9688,12.6132,11.6623,11.6623,0,0,1-12.8242-10.1377,11.4992,11.4992,0,0,1,10.3691-12.4648A11.173,11.173,0,0,1,764.6768,1333.7354Z"/><path d="M618.73,1220.66l35.7158.9785-.0791,2.8652c-7.3154,1.9014-7.8545,7.6211-8.1211,17.3613l-1.0732,39.1543c-.3028,11.0772,5.9814,18.8955,17.0586,19.1993,8.5947.2353,17.4306-8.3155,18.3935-15.5518l1.1514-42.0186c.2881-10.5048-.7217-15.5019-7.3545-17.5957l.0781-2.8642,35.5254.9726-.0791,2.8653c-7.3144,1.9023-7.6572,7.4355-7.9248,17.1767l-1.3184,48.13c-.1835,6.6856,1.4727,9.0244,9.2149,12.4854l-.0791,2.8652-29.9727,5.6777.5547-20.2461c-4.5156,11.3448-19.081,19.7383-31.1142,19.4082-15.0879-.413-25.0274-7.3759-24.3946-30.4853L626,1241.3105c.2881-10.5048-.52-15.8789-7.35-17.7861Z"/><path d="M514.0908,1274.82a8.16,8.16,0,0,1,.3731,7.3135c-.51,1.4531,4.9209,1.65,9.0244-1.958a26.5233,26.5233,0,0,1-3.0322-19.4209c3.2714-15.126,19.3974-25.5166,41.8066-20.67,7.2822,1.5752,12.6826,3.7207,16.9062,6.7851,7.127-.414,21.3409-15.5185.4258-20.042l-24.2754-5.251c-12.8847-2.7871-34.84-7.9257-25.7832-33.5292,0,0,4.0186-14.9639,26.0088-21.74,28.88-8.8056,60.1406.3018,64.419,16.67,3.8955,14.5254-9.1114,26.7637-21.9815,30.2354,4.7031,3.5586,7.3477,9.4082,5.7315,16.8769,0,0-2.9942,16.5547-22.0264,18.6934,8.6348,6.168,11.8691,17.4229,9.7285,27.32-3.2715,15.125-19.3564,25.3291-41.3916,20.5635-11.7646-2.5449-20.041-7.6582-24.8857-14.18a25.888,25.888,0,0,1-19.4825,6.9287,11.0292,11.0292,0,0,1-8.8369-5.2344,9.8853,9.8853,0,0,1,4.0284-13.2031A9.6946,9.6946,0,0,1,514.0908,1274.82Zm36.5391,19.0449c9.3369,2.02,17.2158-.9677,21.7392-21.8818s-2.4961-27.32-10.7129-29.0967c-8.59-1.8584-17.6289,1.0733-22.1533,21.9883S542.6006,1292.1289,550.63,1293.8652Zm5.8838-124.8076c-15.2217,5.3086-16.2325,17.21-16.2325,17.21s-.9794,9.9521,13.7725,13.1435l25.7695,5.5733c2.0547.4443,9.2315,1.6054,15.5342,5.9013,19.8555-6.8476,9.43-25.5224,9.5762-25.2949C597.874,1172.14,575.7285,1162.4629,556.5137,1169.0576Z"/><path d="M404.0254,1166.0391c6.7441-6.2442,19.7285-9.5889,30.5-4.2159,12.8232,6.3956,17.959,15.79,7.64,36.4776l-25.84,51.8056,8.5488,4.2637-.7666,2.8213-9.0615-4.52-11.7686,23.5947-19.5732-6.1338,13.2188-26.5009-20.3467-10.1485,1.9638-2.2236,19.6621,9.8076,25.584-51.292c5.7989-11.6269,3.7412-18.6308-4.6357-22.81a13.17,13.17,0,0,0-13.585,1.5508Z"/><path d="M325.6738,1097.3037l22.9678,10.8731c4.4961,2.2461,2.1777,5.5214,2.1777,5.5214l-9.4931,13.4112c9.3467-6.2588,26.2949-5.7324,36.4316,1.4424,11.6953,8.2793,17.585,19.47,4.1182,38.4951l-24.1739,34.1523c-6.9541,9.8242-7.9277,10.5391.4541,17.877l-1.6552,2.3388-27.2041-14.8086,35.874-50.6816c7.2852-10.293,4.7617-18.6328-4.2832-25.0352-5.9258-4.1943-15.1631-3.71-22.6514.586l-26.3818,37.2705c-6.7334,9.5127-8.3047,10.7412-.9492,16.8838l-1.6553,2.34-25.957-13.9258,42.2763-59.7265c5.2979-7.4854,4.5567-9.4151-1.44-14.83Z"/><path d="M270.2432,1060.2148c8.31-3.9248,21.6992-3.206,30.3535,5.1592,10.3037,9.959,12.374,20.4629-3.6934,37.085l-40.2324,41.625,6.8691,6.6387-1.58,2.4589-7.2813-7.0371-18.3232,18.9571-16.8194-11.7393,20.5811-21.293L223.77,1116.2686l2.541-1.53,15.7989,15.2705,39.834-41.2129c9.0293-9.3408,9.1757-16.64,2.4443-23.1465a13.1714,13.1714,0,0,0-13.4209-2.6094Z"/><path d="M248.4785,1006.1045c17.5576,23.1338,10.44,48.2041-9.4961,63.335-20.09,15.247-45.998,15.2431-63.5556-7.8907-17.6729-23.2851-10.708-48.2392,9.3818-63.4863C204.7451,982.9307,230.8057,982.8193,248.4785,1006.1045ZM177.71,1059.8164c8.5478,11.2627,19.2871,11.5068,46.833-9.4s30.2-31.3164,21.6533-42.5781c-8.6641-11.415-19.2871-11.5068-46.834,9.4S169.0469,1048.4023,177.71,1059.8164Z"/><path d="M108.2432,944.0811a12.3391,12.3391,0,0,1,15.3808-8.1065,12.57,12.57,0,0,1,8.3643,15.4609,11.4657,11.4657,0,0,1-5.9229,6.793c-2.5439.9092,5.14,8.5215,18.8164,8.6563l38.7061-20.3994c9.4658-4.9883,13.584-8.2383,12.0664-15.2139l2.5361-1.3369,16.7471,31.7763-2.5352,1.336c-5.414-5.3535-10.4931-3.1084-19.2822,1.5244l-42.2558,22.2695c-5.7471,3.0293-7.48,5.8867-6.3633,14.1524l-2.5352,1.3359-19.7324-23.5068,18.2539-9.6211c-16.6846-.9248-24.6-7.336-28.8018-12.0323C109.0586,954.2334,106.9727,948.6377,108.2432,944.0811Z"/></g></svg>