<svg xmlns="http://www.w3.org/2000/svg" width="1080" height="1080" viewBox="0 0 1080 1080"><title>twitter</title><g id="Layer_2" class="text" data-name="Layer 2"><path d="M158.3057,714.85c9.1005-1.2881,21.6757,3.3633,27.4648,13.917,6.8916,12.5635,5.7578,23.209-14.5107,34.3272l-50.7559,27.8427,4.5947,8.375-2.2373,1.8809-4.87-8.8779L94.875,804.9951,82.2871,788.8008l25.9639-14.2422L97.3164,754.625l2.88-.709L110.7637,773.18l50.2529-27.5664c11.3916-6.2481,13.6924-13.1768,9.1895-21.3848a13.171,13.171,0,0,0-12.0459-6.4668Z"/><path d="M45.5752,588.2119l2.5947-.6484c1.0186,4.0781,3.8447,12.2334,31.2764,14.833l64.1328,6.8223.6016,2.4091L92.6455,652.0742l63.252,6.4512.6484,2.5947C93.2393,710.415,89.207,713.9824,89.207,713.9824c-7.3222,6.1621-6.4892,11.0742-5.9336,14.0869l-2.5947.6475L70.7676,689.05l2.5957-.6484c2.6855,10.7509,12.8818,1.9013,12.8818,1.9013l40.69-31.8281-37.6269-3.9912C78.14,663.3789,76.8418,664.49,76.8418,664.49c-7.3223,6.1621-6.5811,10.7041-6.0254,13.7159l-2.5957.6484-9.957-39.8535,2.5957-.6485c2.9638,11.8633,13.206,2.4121,13.206,2.4121l40.5518-31.5966-35.3565-3.5742s-27.34-3.0157-22.4306,16.6328l-2.5947.6484Z"/><path d="M20.3057,557.5132A11.3359,11.3359,0,0,1,8.66,546.4277a11.6634,11.6634,0,0,1,11.2734-11.8393,11.5017,11.5017,0,0,1,11.4609,11.4707A11.1737,11.1737,0,0,1,20.3057,557.5132ZM136.7168,524.478l.5762,35.5332-2.8653.0464c-2.41-7.2222-7.957-7.5146-17.6992-7.3564l-47.7607.7744c-6.4951.1055-9.1387,2.0591-12.26,9.9443l-2.8652.0464L46.8643,533.77l69.538-1.1274c10.5079-.17,15.65-1.21,17.4493-8.1177Z"/><path d="M129.0879,453.998c8.0879,4.3663,15.4463,15.5748,13.84,27.5035-1.9121,14.2006-9.1445,22.0947-32.0556,19.01L53.501,492.7856l-1.2754,9.4673-2.917.1856L50.66,492.4028l-26.13-3.5185L24.0146,468.38l29.3487,3.9516L56.3975,449.8l2.7382,1.14-2.9326,21.7749,56.8037,7.649c12.876,1.7339,18.8409-2.4751,20.09-11.753a13.1715,13.1715,0,0,0-5.8545-12.3554Z"/><path d="M147.4844,390.9849c7.3037,5.58,12.8144,17.8027,9.3584,29.3325-4.1133,13.7261-12.4932,20.3891-34.6377,13.7519L66.751,417.4478l-2.7422,9.1508-2.91-.2739,2.9073-9.7-25.2559-7.57,2.7041-20.3321,28.3672,8.5025,6.5273-21.7783,2.5254,1.5547-6.3076,21.0463,54.9043,16.4566c12.4443,3.7305,18.9951.5078,21.6826-8.46a13.1708,13.1708,0,0,0-3.8457-13.1206Z"/><path d="M180.8242,307.9268c7.1143,6.5732,15.4434,23.5156,4.1865,44.7949-11.3466,21.4482-38.3017,26.6421-59.4121,15.4746-24.3193-12.8652-32.5517-37.7539-20.8486-59.8779s30.7236-27.8409,57.2383-13.8145l-28.41,53.7051c20.126,9.35,33.9912,4.7964,42.2813-6.38,6.7011-8.9912,8.6728-24.1592,2.5322-32.1631Zm-30.6611,2.8007c-22.9678-12.15-38.6807-9.0063-43.2373-.3935-5.1817,9.7954,5.373,26.6181,24.1191,36.5347Z"/><path d="M184.3525,202.6235a12.3384,12.3384,0,0,1,13.3633,11.1221,12.5677,12.5677,0,0,1-11.0976,13.6323,11.4682,11.4682,0,0,1-8.5391-2.8813c-1.8115-2.0049-5.915,8.0029-.8193,20.6958l33.6289,27.9892c8.2236,6.8448,12.8,9.41,18.6679,5.3457l2.2032,1.8335-22.9776,27.608-2.2031-1.8335c2.8828-7.0469-1.1318-10.8853-8.7686-17.2408l-36.7119-30.5556c-4.9931-4.1553-8.2959-4.667-15.51-.48l-2.2032-1.8335,14.1963-27.211,15.86,13.2c-5.5147-15.7749-2.6094-25.5371.1269-31.2143C175.28,207.2524,179.6562,203.189,184.3525,202.6235Z"/><path d="M581.2773,122.2808c-3.4755,8.5083-13.833,17.0239-25.8662,16.7026-14.3242-.3823-22.9463-6.7285-22.33-29.8389l1.5439-57.8711-9.55-.2548-.4961-2.88,10.123.27.7032-26.3569,20.332-2.7066-.79,29.604,22.7285.6065-.8408,2.8442-21.9639-.5859-1.5293,57.2983c-.3467,12.9878,4.4766,18.4678,13.835,18.7178a13.17,13.17,0,0,0,11.6582-7.1431Z"/><path d="M747.4531,88.5337l-.7451,2.5688c-4.0371-1.17-12.5068-2.83-28.55,19.5733l-38.1475,52-2.3857-.6914-9.041-64.8833-37.3848,51.4258-2.5693-.7447C617.86,68.2744,616.8047,62.9956,616.8047,62.9956c-1.6436-9.4277-6.3086-11.1777-9.1914-12.2124l.7451-2.5693,39.2695,11.3833-.7451,2.5688c-10.6426-3.0849-8.1221,10.1778-8.1221,10.1778l7.0469,51.1762L668.18,93.0059c-2.0713-14.1275-2.38-15.8081-2.38-15.8081-1.6436-9.4278-5.9414-11.0713-8.8242-12.106l.7451-2.5689L697.1729,73.959l-.7442,2.5693C684.6846,73.124,687.7031,86.73,687.7031,86.73l6.916,50.9394,20.8692-28.7617s16.3564-22.1133-3.0947-27.7514l.7441-2.5689Z"/><path d="M756.499,199.5635,725.7139,181.811l1.4316-2.4824c7.4346,1.6406,10.5332-2.9682,15.4014-11.41l23.86-41.3779c3.2451-5.6274,2.9268-8.8989-2.2373-15.626l1.4317-2.4824,29.0654,9.2617-34.7412,60.2466c-5.25,9.103-6.999,14.0488-1.9951,19.14ZM787.9316,82.7129a11.3354,11.3354,0,0,1,15.4922-4.2993,11.6624,11.6624,0,0,1,4.37,15.7524,11.5013,11.5013,0,0,1-15.7275,3.9434A11.173,11.173,0,0,1,787.9316,82.7129Z"/><path d="M821.2393,228.4253c-7.8555,4.772-21.2461,5.458-30.7286-1.9565-11.288-8.8267-14.4453-19.0572-.205-37.2691l35.66-45.6055L818.44,137.71l1.3135-2.6109,7.9775,6.2378,16.2413-20.771,17.955,9.9165-18.2422,23.33,17.9112,14.0054L859.23,169.604,841.92,156.07l-35.3066,45.1538c-8.0029,10.2349-7.3848,17.5093-.01,23.2759a13.17,13.17,0,0,0,13.62,1.1914Z"/><path d="M866.4072,276.1045c-8.5,3.4961-21.8359,2.0962-30.0527-6.7-9.7822-10.4712-11.3145-21.0674,5.5791-36.85l42.3037-39.521-6.5215-6.981,1.7031-2.3755,6.9131,7.4L905.6,173.0781,921.7988,185.66,900.1582,205.877,915.68,222.4917l-2.6162,1.3979-15-16.0561-41.8858,39.13c-9.4931,8.8691-10.0117,16.1513-3.62,22.9927a13.17,13.17,0,0,0,13.27,3.29Z"/><path d="M921.4941,346.7021c-9.2568,2.8482-28.0908,1.5376-40.8339-18.8862-12.8438-20.5859-3.7911-46.5014,16.4707-59.1435,23.3408-14.5635,48.9961-9.1768,62.2451,12.0576s8.6367,40.5512-16.8125,56.4292l-32.1612-51.5459c-18.1953,12.7046-21.2246,26.98-15.7255,39.7632,4.4072,10.3115,16.5312,19.6367,26.5361,18.3481Zm12.9834-27.9174c22.045-13.7544,27.2207-28.9195,22.0625-37.1861-5.8662-9.4013-25.7129-8.728-43.706,2.4981Z"/><path d="M1010.7178,402.7153a12.34,12.34,0,0,1-16.3379,5.9488,12.569,12.569,0,0,1-6.1934-16.4522,11.4712,11.4712,0,0,1,6.7881-5.9282c2.6445-.5562-3.9375-9.14-17.4707-11.1255L936.39,390.1274c-10.0537,3.6607-14.5742,6.3233-14.0166,13.44l-2.6923.98-12.29-33.7524,2.6934-.981c4.6387,6.0381,9.9756,4.5015,19.3115,1.1021l44.8838-16.3418c6.1045-2.2227,8.209-4.8189,8.2217-13.1606l2.6933-.9805,16.3672,25.9643-19.39,7.06c16.4062,3.1763,23.38,10.6011,26.9072,15.8232C1011.2842,392.5454,1012.5928,398.3726,1010.7178,402.7153Z"/><path d="M880.0488,786.1006c-5.5879-7.2979-7.707-20.5381-1.3525-30.7617,7.5644-12.1709,17.3965-16.4073,37.0322-4.2032l49.17,30.5606,5.043-8.1143,2.7373,1.0264-5.3457,8.6006,22.3936,13.9189-7.9317,18.916L956.6416,800.41l-12.0029,19.3115-2.03-2.1621,11.5986-18.6621L905.5244,768.64c-11.0351-6.8593-18.2012-5.4638-23.1435,2.4874a13.1723,13.1723,0,0,0,.2773,13.6709Z"/><path d="M825.3145,946.6035l-1.8428-1.9385c3.0459-2.8964,8.75-9.374-2.5088-34.5244L795.29,850.9785l1.8-1.7119,60.5918,24.9063L832.12,815.958l1.9385-1.8428c74.0928,30.7871,79.1836,32.5371,79.1836,32.5371,8.9707,3.334,12.834.1885,15.1807-1.78l1.8437,1.9384-29.6309,28.1739-1.8427-1.9385c8.03-7.6357-4.6944-12.1455-4.6944-12.1455L846.35,841.1826l15.0723,34.7061c13.2451,5.334,14.8525,5.915,14.8525,5.915,8.97,3.334,12.5567.4512,14.9033-1.5166l1.8428,1.9385L863.252,910.5312l-1.8428-1.9384c8.8613-8.4258-4.41-12.68-4.41-12.68l-47.4785-19.71,14.3164,32.5235s10.85,25.2754,25.5264,11.3193l1.8428,1.9385Z"/><path d="M724.9053,898.6162,755.7217,880.92l1.4277,2.4854c-5.1543,5.6035-2.7265,10.5986,2.125,19.0488l23.7852,41.42c3.2343,5.6328,6.2236,7.001,14.6338,5.917l1.4267,2.4854L776.5088,972.751l-34.6309-60.3076c-5.2324-9.1123-8.6289-13.11-15.5449-11.3418Zm85.2314,85.8887a11.3352,11.3352,0,0,1-4.0674,15.5537,11.6614,11.6614,0,0,1-15.8144-4.1377,11.5,11.5,0,0,1,4.4931-15.5781A11.1721,11.1721,0,0,1,810.1367,984.5049Z"/><path d="M667.4355,940.042c-.1718-9.19,5.9717-21.1065,17.15-25.5713,13.3067-5.3145,23.7364-2.8965,32.3106,18.5723l21.4707,53.7617,8.8721-3.543,1.5947,2.4483-9.4033,3.7558,9.7783,24.4854-17.6026,10.5273-10.9834-27.501-21.1142,8.4327-.3535-2.9454,20.4043-8.1494-21.2578-53.2285c-4.8194-12.0654-11.4161-15.19-20.11-11.7187A13.17,13.17,0,0,0,670.31,940.54Z"/><path d="M603.5088,954.96c1.2724-9.1016,9.2129-19.9063,20.9531-22.56,13.9766-3.1582,23.8965.8682,28.9922,23.417l12.7607,56.4658,9.3174-2.1055,1.1914,2.669-9.8769,2.2314,5.8115,25.7178-19.0381,7.6318-6.5273-28.8847-22.1768,5.0107.1143-2.9629,21.4306-4.8437-12.6338-55.9063c-2.8642-12.6728-8.8886-16.7959-18.0195-14.7314a13.1676,13.1676,0,0,0-9.539,9.7939Z"/><path d="M514.7773,966.8145c2.2178-9.4288,12.8614-25.0215,36.9248-25.7041,24.254-.6875,42.0489,20.2148,42.7256,44.0869.78,27.5009-16.8261,46.9228-41.8447,47.6318s-39.36-13.0273-40.2109-43.0107l60.7314-1.7227c-1.7744-22.1211-12.5654-31.9453-26.375-33.6562-11.126-1.4043-25.2978,4.35-29.2392,13.6357Zm17.5381,25.3046c.7364,25.9737,11.211,38.1,20.95,37.8243,11.0772-.3145,20.5205-17.7842,19.919-38.9834Z"/><path d="M421.4453,1015.77a12.3391,12.3391,0,0,1,3.0772-17.1123,12.5694,12.5694,0,0,1,17.3349,2.9229,11.4707,11.4707,0,0,1,1.709,8.8486c-.85,2.5654,9.88,1.1943,18.4033-9.5029l7.7432-43.0635c1.8935-10.5312,1.8662-15.7773-4.5654-18.875l.5078-2.8213,35.3525,6.3574-.5068,2.82c-7.5518.9716-8.9082,6.3574-10.667,16.1367l-8.4531,47.0117c-1.1495,6.3945.0361,9.5195,7.2382,13.7266l-.5068,2.82-30.6738,1.0849,3.6523-20.31c-10.998,12.582-20.9228,14.875-27.2109,15.2968C429.95,1021.375,424.2559,1019.5752,421.4453,1015.77Z"/></g></svg>