<svg xmlns="http://www.w3.org/2000/svg" width="1080" height="1080" viewBox="0 0 1080 1080"><title>twitter</title><g id="Layer_2" class="text" data-name="Layer 2"><path d="M158.3057,714.85c9.1005-1.2881,21.6757,3.3633,27.4648,13.917,6.8916,12.5635,5.7578,23.209-14.5107,34.3272l-50.7559,27.8427,4.5947,8.375-2.2373,1.8809-4.87-8.8779L94.875,804.9951,82.2871,788.8008l25.9639-14.2422L97.3164,754.625l2.88-.709L110.7637,773.18l50.2529-27.5664c11.3916-6.2481,13.6924-13.1768,9.1895-21.3848a13.171,13.171,0,0,0-12.0459-6.4668Z"/><path d="M45.5752,588.2119l2.5947-.6484c1.0186,4.0781,3.8447,12.2334,31.2764,14.833l64.1328,6.8223.6016,2.4091L92.6455,652.0742l63.252,6.4512.6484,2.5947C93.2393,710.415,89.207,713.9824,89.207,713.9824c-7.3222,6.1621-6.4892,11.0742-5.9336,14.0869l-2.5947.6475L70.7676,689.05l2.5957-.6484c2.6855,10.7509,12.8818,1.9013,12.8818,1.9013l40.69-31.8281-37.6269-3.9912C78.14,663.3789,76.8418,664.49,76.8418,664.49c-7.3223,6.1621-6.5811,10.7041-6.0254,13.7159l-2.5957.6484-9.957-39.8535,2.5957-.6485c2.9638,11.8633,13.206,2.4121,13.206,2.4121l40.5518-31.5966-35.3565-3.5742s-27.34-3.0157-22.4306,16.6328l-2.5947.6484Z"/><path d="M20.3057,557.5132A11.3359,11.3359,0,0,1,8.66,546.4277a11.6634,11.6634,0,0,1,11.2734-11.8393,11.5017,11.5017,0,0,1,11.4609,11.4707A11.1737,11.1737,0,0,1,20.3057,557.5132ZM136.7168,524.478l.5762,35.5332-2.8653.0464c-2.41-7.2222-7.957-7.5146-17.6992-7.3564l-47.7607.7744c-6.4951.1055-9.1387,2.0591-12.26,9.9443l-2.8652.0464L46.8643,533.77l69.538-1.1274c10.5079-.17,15.65-1.21,17.4493-8.1177Z"/><path d="M129.0879,453.998c8.0879,4.3663,15.4463,15.5748,13.84,27.5035-1.9121,14.2006-9.1445,22.0947-32.0556,19.01L53.501,492.7856l-1.2754,9.4673-2.917.1856L50.66,492.4028l-26.13-3.5185L24.0146,468.38l29.3487,3.9516L56.3975,449.8l2.7382,1.14-2.9326,21.7749,56.8037,7.649c12.876,1.7339,18.8409-2.4751,20.09-11.753a13.1715,13.1715,0,0,0-5.8545-12.3554Z"/><path d="M147.4844,390.9849c7.3037,5.58,12.8144,17.8027,9.3584,29.3325-4.1133,13.7261-12.4932,20.3891-34.6377,13.7519L66.751,417.4478l-2.7422,9.1508-2.91-.2739,2.9073-9.7-25.2559-7.57,2.7041-20.3321,28.3672,8.5025,6.5273-21.7783,2.5254,1.5547-6.3076,21.0463,54.9043,16.4566c12.4443,3.7305,18.9951.5078,21.6826-8.46a13.1708,13.1708,0,0,0-3.8457-13.1206Z"/><path d="M180.8242,307.9268c7.1143,6.5732,15.4434,23.5156,4.1865,44.7949-11.3466,21.4482-38.3017,26.6421-59.4121,15.4746-24.3193-12.8652-32.5517-37.7539-20.8486-59.8779s30.7236-27.8409,57.2383-13.8145l-28.41,53.7051c20.126,9.35,33.9912,4.7964,42.2813-6.38,6.7011-8.9912,8.6728-24.1592,2.5322-32.1631Zm-30.6611,2.8007c-22.9678-12.15-38.6807-9.0063-43.2373-.3935-5.1817,9.7954,5.373,26.6181,24.1191,36.5347Z"/><path d="M184.3525,202.6235a12.3384,12.3384,0,0,1,13.3633,11.1221,12.5677,12.5677,0,0,1-11.0976,13.6323,11.4682,11.4682,0,0,1-8.5391-2.8813c-1.8115-2.0049-5.915,8.0029-.8193,20.6958l33.6289,27.9892c8.2236,6.8448,12.8,9.41,18.6679,5.3457l2.2032,1.8335-22.9776,27.608-2.2031-1.8335c2.8828-7.0469-1.1318-10.8853-8.7686-17.2408l-36.7119-30.5556c-4.9931-4.1553-8.2959-4.667-15.51-.48l-2.2032-1.8335,14.1963-27.211,15.86,13.2c-5.5147-15.7749-2.6094-25.5371.1269-31.2143C175.28,207.2524,179.6562,203.189,184.3525,202.6235Z"/><path d="M380.001,151.8413c.9345,9.1431-4.2012,21.5288-14.9707,26.9048-12.82,6.3994-23.4141,4.854-33.7393-15.83L305.4375,111.12l-8.5479,4.2661-1.7919-2.3081,9.06-4.5224-11.7754-23.59,16.67-11.9507,13.2255,26.4966L342.62,89.3569l.5957,2.9058-19.6582,9.8125,25.5977,51.2832c5.8027,11.6245,12.6357,14.1924,21.0127,10.0112a13.1718,13.1718,0,0,0,6.9287-11.7866Z"/><path d="M510.9854,44.1143l.5468,2.6181c-4.1152.8594-12.375,3.3643-16.042,30.6743l-9.3173,63.8169-2.4307.5078L445.3359,88.6587,436.4238,151.61l-2.6181.5468c-46.7891-65.1806-50.1963-69.3486-50.1963-69.3486-5.8721-7.5571-10.8125-6.916-13.8438-6.478l-.5468-2.6187,40.0234-8.3559.5469,2.6181c-10.8477,2.2647-2.4024,12.7979-2.4024,12.7979l30.2178,41.9009L443.06,85.2305c-8.4532-11.5074-9.5137-12.8477-9.5137-12.8477-5.8721-7.5571-10.4385-6.9936-13.47-6.5561l-.5469-2.6182L459.74,54.813l.5459,2.6186c-11.97,2.4991-2.9248,13.1021-2.9248,13.1021l29.9922,41.7524,4.9492-35.19s4.08-27.2007-15.7451-23.062l-.5469-2.6182Z"/><path d="M571.1113,137.79l-35.5195-1.147.0928-2.8643c7.331-2.0571,7.8916-7.583,8.206-17.3222l1.541-47.7408c.209-6.4926-1.6142-9.228-9.3388-12.727l.0927-2.8643,30-5.5312-2.2441,69.5107c-.3389,10.5029.4492,15.69,7.2627,17.8213ZM543.7568,19.9146A11.3348,11.3348,0,0,1,555.3936,8.8208a11.6629,11.6629,0,0,1,11.2793,11.8335A11.5021,11.5021,0,0,1,554.66,31.5454,11.1735,11.1735,0,0,1,543.7568,19.9146Z"/><path d="M641.8154,132.7007c-4.6767,7.9121-16.1611,14.8315-28.0185,12.7646-14.1162-2.46-21.7246-9.9926-17.7549-32.7666l9.94-57.03-9.4111-1.6406-.0723-2.9214,9.9756,1.7388,4.5274-25.9741,20.5087.2778-5.0849,29.1734,22.3974,3.9043-1.2451,2.6918L625.9336,59.146l-9.8418,56.4653c-2.2314,12.7989,1.7441,18.9219,10.9668,20.5293a13.17,13.17,0,0,0,12.5723-5.372Z"/><path d="M704.0615,153.5386c-5.8594,7.08-18.2881,12.1118-29.6748,8.21-13.5556-4.6455-19.8877-13.2783-12.3935-35.1474L680.76,71.8364,671.7227,68.74l.3867-2.8969,9.5791,3.2827,8.5478-24.9424,20.211,3.4927-9.6,28.0146,21.5078,7.3706-1.6524,2.4634L699.918,78.4019l-18.58,54.2221c-4.2119,12.29-1.2471,18.961,7.6094,21.9961a13.1707,13.1707,0,0,0,13.26-3.333Z"/><path d="M785.792,190.0859c-6.8438,6.854-24.0957,14.521-44.9238,2.4488-20.9932-12.168-25.1387-39.3042-13.1631-59.9663,13.7969-23.8033,38.9853-31.066,60.64-18.5147s26.6309,31.7774,11.5889,57.729l-52.5645-30.4673c-10.123,19.7495-6.1093,33.78,4.7383,42.4966,8.7256,7.0444,23.8057,9.6021,32.041,3.7754ZM784.18,159.3394c13.03-22.481,10.4971-38.3033,2.0664-43.19-9.5869-5.5571-26.8057,4.3379-37.44,22.686Z"/><path d="M890.8691,197.6562A12.3393,12.3393,0,0,1,879.24,210.5825a12.5686,12.5686,0,0,1-13.1953-11.6147,11.4661,11.4661,0,0,1,3.208-8.4229c2.0733-1.7329-7.7695-6.2187-20.65-1.6152L819.3379,221.458c-7.1563,7.9546-9.8965,12.4287-6.0606,18.45l-1.9169,2.13-26.7042-24.0249,1.917-2.13c6.9307,3.1514,10.9209-.7124,17.5664-8.0986l31.9483-35.5108c4.3447-4.83,4.9834-8.11,1.0762-15.48l1.917-2.1309,26.6455,15.2339-13.8018,15.3408c15.9766-4.9028,25.6211-1.6235,31.1885,1.3291C886.5928,188.4116,890.4854,192.9414,890.8691,197.6562Z"/><path d="M934.0635,395.13c-9.1729.5781-21.3506-5.0342-26.3037-16.0044-5.8975-13.06-3.9424-23.5864,17.1279-33.1006L977.65,322.2007l-3.9316-8.7066,2.3759-1.7021,4.167,9.229L1004.293,310.17l11.2949,17.1216L988.5967,339.48l9.3564,20.7217-2.9258.4829-9.0429-20.0254-52.2393,23.5884c-11.8418,5.3471-14.6728,12.0761-10.82,20.6084a13.1724,13.1724,0,0,0,11.5088,7.3818Z"/><path d="M1036.6133,530.1748l-2.6377.4448c-.6992-4.145-2.8818-12.4961-30.0293-17.2187l-63.4082-11.7837-.4131-2.4492,54.5215-36.3194-62.56-11.3457-.4443-2.6377c66.9453-44.227,71.2422-47.4707,71.2422-47.4707,7.7793-5.5742,7.33-10.5361,7.01-13.5825l2.6377-.4448,6.7989,40.3179-2.6377.4448c-1.8428-10.9273-12.6954-2.897-12.6954-2.897l-43.04,28.5708,37.2022,6.9024c11.8261-8.001,13.207-9.0088,13.207-9.0088,7.7783-5.5743,7.3935-10.1592,7.0732-13.2056l2.6377-.4448,6.83,40.5063-2.6377.4444c-2.0332-12.0577-12.9785-3.43-12.9785-3.43L969.4082,503.918l34.9717,6.31s27.0224,5.1314,23.6543-14.8388l2.6377-.4449Z"/><path d="M940.7236,586.667l2.5059-35.4482,2.8584.2021c1.7754,7.4038,7.2754,8.1758,16.9951,8.8628l47.6455,3.3686c6.4795.4581,9.2822-1.2592,13.0752-8.8442l2.8584.2022,4.3779,30.1889-69.372-4.9043c-10.4825-.7412-15.6953-.1518-18.086,6.5742Zm118.8321-22.8189a11.3355,11.3355,0,0,1,10.6406,12.0528,11.6632,11.6632,0,0,1-12.2568,10.8169,11.5006,11.5006,0,0,1-10.4229-12.42A11.172,11.172,0,0,1,1059.5557,563.8481Z"/><path d="M943.0723,657.4834c-7.7246-4.9795-14.1944-16.7246-11.669-28.4941,3.0069-14.0108,10.8291-21.3213,33.4326-16.4707l56.6045,12.1455,2.0049-9.3409,2.9219.0411-2.124,9.9,25.78,5.5323L1048.95,651.28l-28.9561-6.2129-4.77,22.2305-2.6416-1.3487,4.6094-21.4834L961.1475,632.44c-12.7032-2.7256-18.9756,1.0088-20.9405,10.1631a13.1727,13.1727,0,0,0,4.8809,12.7725Z"/><path d="M919.8213,718.874c-6.8467-6.1308-11.3906-18.7451-7.0488-29.9717,5.17-13.3642,14.042-19.3554,35.6035-11.0156l53.9922,20.8838,3.4463-8.9092,2.88.4991-3.6533,9.4443,24.5908,9.5117-4.2773,20.06-27.6191-10.6826-8.2022,21.2041-2.3975-1.7461,7.9268-20.4922-53.458-20.6778c-12.1172-4.6865-18.8984-1.9834-22.2754,6.7481a13.1717,13.1717,0,0,0,2.8135,13.38Z"/><path d="M880.1426,799.1172c-6.584-7.1035-13.5781-24.6387-.71-44.9834,12.97-20.5068,40.2461-23.6006,60.43-10.835,23.251,14.7061,29.5342,40.1563,16.1553,61.3086s-32.7822,25.3828-58.1328,9.3487l32.4765-51.3467c-19.3427-10.878-33.5175-7.41-42.6474,3.0918-7.376,8.4463-10.5147,23.416-5.0108,31.87Zm30.7851-.4219c21.96,13.8887,37.8682,11.97,43.0772,3.7344,5.9228-9.3652-3.2988-26.9531-21.2217-38.2891Z"/><path d="M868.541,903.8232a12.3375,12.3375,0,0,1-12.4687-12.1162,12.5684,12.5684,0,0,1,12.1123-12.7392,11.4709,11.4709,0,0,1,8.2929,3.5293c1.6514,2.1377,6.5127-7.5244,2.4073-20.5723l-31.3789-30.49c-7.6739-7.4571-12.0391-10.3662-18.2022-6.7657l-2.0557-1.997,25.0323-25.76,2.0547,1.9971c-3.4151,6.8047.292,10.9394,7.4179,17.8633L896.0088,850.06c4.6592,4.5273,7.9121,5.291,15.4267,1.67l2.0557,1.998-16.2461,26.0391-14.7978-14.38c4.2851,16.1524.6377,25.6631-2.5264,31.1123C877.9434,899.9053,873.2676,903.6211,868.541,903.8232Z"/><path d="M669.5273,939.3672c-.2207-9.1885,5.8614-21.1387,17.0166-25.6611,13.2793-5.3848,23.7217-3.0215,32.4082,18.4033l21.754,53.65,8.8525-3.59,1.6084,2.4405-9.3848,3.8046,9.9073,24.4356-17.5479,10.62-11.1279-27.4453-21.07,8.543-.3682-2.9424,20.3613-8.2569L700.3994,940.251c-4.8818-12.041-11.4961-15.1319-20.1719-11.6143a13.1719,13.1719,0,0,0-7.8242,11.2129Z"/><path d="M530.6084,1036.5947l-.3418-2.6533c4.168-.5371,12.5977-2.3955,18.3682-29.3389l14.2314-62.9013,2.4629-.3184L599.5078,997.27l13.7608-62.0713,2.6523-.3418c41.6,68.6065,44.6738,73.0254,44.6738,73.0254,5.2686,7.9893,10.2442,7.7325,13.3,7.5313l.3428,2.6523-40.55,5.2315-.3418-2.6533c10.99-1.418,3.3867-12.5733,3.3867-12.5733L609.8506,963.957l-8.3379,36.9063c7.5361,12.1269,8.49,13.5449,8.49,13.5449,5.2686,7.9893,9.8643,7.7813,12.9209,7.58l.3418,2.6523-40.7383,5.2559-.3427-2.6524c12.1269-1.5644,3.9306-12.8359,3.9306-12.8359L559.4482,970.46l-7.6591,34.6992s-6.1748,26.8027,13.9111,24.2109l.3418,2.6533Z"/><path d="M496.1123,1058.2666a11.3357,11.3357,0,0,1-12.4531,10.1689,11.6636,11.6636,0,0,1-10.3379-12.665,11.5,11.5,0,0,1,12.8125-9.9365A11.1724,11.1724,0,0,1,496.1123,1058.2666Zm-18.23-119.625L513.209,942.51l-.3115,2.85c-7.4668,1.4883-8.45,6.9551-9.5108,16.6406l-5.1992,47.4814c-.707,6.4581.9,9.3252,8.334,13.4063l-.3115,2.8486-30.336,3.2139,7.57-69.1338c1.1436-10.4453.7559-15.6777-5.873-18.3262Z"/><path d="M407.0371,938.2412c5.2754-7.5254,17.2627-13.5322,28.9248-10.5508,13.8828,3.5489,20.8828,11.6485,15.1572,34.0459l-14.3369,56.0869,9.2559,2.3653-.1553,2.9189-9.81-2.5078-6.5293,25.544-20.4258-1.8682,7.334-28.6914-22.0274-5.6309,1.45-2.5869,21.2871,5.4414,14.1953-55.5312c3.2178-12.5879-.2705-19.001-9.34-21.3194a13.1722,13.1722,0,0,0-12.9521,4.38Z"/><path d="M346.5771,912.6113c6.3936-6.6035,19.1758-10.6533,30.2247-5.8779,13.1543,5.6855,18.7959,14.7852,9.623,36.0068l-22.9687,53.1416,8.7695,3.79-.6113,2.8584-9.295-4.0176-10.4619,24.2021-19.8789-5.0537,11.75-27.1845-20.8711-9.02,1.8389-2.3272,20.1689,8.7168,22.7422-52.6152c5.1543-11.9258,2.7168-18.8076-5.8769-22.5225A13.1707,13.1707,0,0,0,348.251,915Z"/><path d="M267.9326,869.8623c7.3526-6.3057,25.1455-12.6172,44.98,1.0273,19.99,13.753,22.0293,41.129,8.4922,60.8057-15.5938,22.667-41.2686,27.9629-61.89,13.7764s-24.0976-33.74-7.0957-58.4531l50.0557,34.4365c11.6182-18.9092,8.7-33.208-1.4424-42.7363-8.1552-7.6973-22.9931-11.4122-31.6543-6.2383Zm-.7676,30.7793c-14.7275,21.4082-13.4238,37.3789-5.3955,42.9023,9.1289,6.28,27.0606-2.2548,39.0811-19.7275Z"/><path d="M163.7393,854.2373a12.3384,12.3384,0,0,1,12.5869-11.9941,12.57,12.57,0,0,1,12.2646,12.5937,11.4735,11.4735,0,0,1-3.8457,8.1514c-2.2,1.5683,7.2686,6.7969,20.4639,3.1963l31.6758-30.1836c7.7461-7.3809,10.8213-11.6319,7.46-17.9287l2.0752-1.9776L271.1992,842.1l-2.0752,1.9766c-6.6679-3.6748-10.9433-.1289-18.1357,6.7256l-34.58,32.9511c-4.7031,4.4815-5.5918,7.7032-2.2627,15.3516l-2.0752,1.9766-25.3955-17.2344,14.9385-14.2354c-16.3057,3.6612-25.669-.3486-30.9932-3.7207C167.293,863.7832,163.76,858.9678,163.7393,854.2373Z"/></g></svg>