<svg xmlns="http://www.w3.org/2000/svg" width="1080" height="1080" viewBox="0 0 1080 1080"><title>youtube</title><g id="Layer_2" class="text" data-name="Layer 2"><path d="M77.7793,713.5879l2.4-1.1817c2.3623,4.7989,6.7666,11.1485,37.9687,8.7764l83.7852-8.46c12.8242-1.2032,19.6435,1.4013,23.3066,3.2177,3.5791,1.6455,7.2237,6.4532,7.2813,10.8965a11.8451,11.8451,0,0,1-11.2666,12.1494,11.6809,11.6809,0,0,1-12.1494-11.2675,10.2538,10.2538,0,0,1,3.6386-8.18c1.8907-1.7832-1.7646-4.8819-9.8867-4.0772l-23.2558,2.5069c-27.1153,32.73-54.2373,66.7421-54.2373,66.7421-5.68,6.63-3.1534,12.626-2.0586,15.2813l-2.4,1.1816-18.6513-37.88,2.3994-1.1816c4.8945,9.9414,13.8467-.8545,13.8467-.8545l32.46-40.4726-32.1455,3.05s-32.1406,2.1962-22.1787,21.9941l-2.3994,1.1816Z"/><path d="M148.7744,629.68c6.4785,28.31-10.3281,48.2275-34.7265,53.81-24.585,5.625-48.1944-5.0449-54.6729-33.3545-6.52-28.4961,10.1-48.3711,34.6846-53.997C118.458,590.5566,142.2539,601.1836,148.7744,629.68ZM62.1689,649.4961c3.1534,13.7832,12.8409,18.4268,46.5518,10.7129s40.4141-16.1084,37.2607-29.8906c-3.1972-13.9688-12.8408-18.4258-46.5517-10.712S58.9727,635.5283,62.1689,649.4961Z"/><path d="M135.333,482.5479l3.8232,25.1225c.6514,4.9834-3.3593,4.8921-3.3593,4.8921l-16.4278-.374c10.4151,4.25,19.4522,18.5981,19.17,31.0141-.3262,14.3257-6.3135,25.4644-29.6162,24.9341l-41.8311-.9526c-12.0342-.2739-13.1709-.6817-14.5693,10.3706l-2.8653-.0654-2.9287-30.835,62.0781,1.4131c12.6065.2871,18.1114-6.4673,18.3633-17.5459.1651-7.2583-5.3994-14.647-13.1484-18.4546l-45.6514-1.04c-11.6513-.2651-13.5488-.8818-14.53,8.6514l-2.8652-.0649-2.9639-29.3072,73.1573,1.6656c9.1679.2085,10.3535-1.4844,11.4912-9.4849Z"/><path d="M138.4932,417.2622c7.6591,5.0806,13.9716,16.91,11.292,28.6445-3.1905,13.97-11.1084,21.1763-33.6456,16.0288l-56.4384-12.89-2.127,9.3135-2.9219-.08,2.2549-9.8721-25.7041-5.8706,1.3428-20.4673,28.8711,6.5943L66.48,406.498l2.623,1.3833-4.8916,21.4205L120.09,442.064c12.6661,2.893,18.9873-.7588,21.0723-9.8858a13.17,13.17,0,0,0-4.7119-12.8349Z"/><path d="M190.5107,327.9868l-6.3916,24.5962c-1.3671,4.8364-5.0175,3.1709-5.0175,3.1709l-14.9493-6.8213c7.8946,8.0127,10.543,24.7627,5.3877,36.0615-5.9482,13.0371-15.8427,20.9136-37.05,11.2369l-38.0683-17.37c-10.9512-4.997-11.836-5.8208-17.4785,3.7857l-2.6075-1.19,9.4668-29.4931,56.4942,25.7773c11.4726,5.2349,19.1953,1.1978,23.7949-8.8843,3.0146-6.6054.8135-15.59-4.8066-22.145l-41.545-18.956c-10.6035-4.8384-12.1035-6.1529-16.7646,2.2212l-2.6074-1.19,8.832-28.1025,66.5762,30.3779c8.3437,3.8066,10.1006,2.7183,14.3007-4.186Z"/><path d="M229.2021,286.1426c-7.1064,8.75-15.9189,14.1445-24.64,15.1841.4463,8.2387-2.5264,18.8691-4.8994,16.9419l-93.4287-75.8853c-5.043-4.0957-8.4717-4.4194-15.041.3359l-2.2246-1.8066,14.0449-26.9893,52.35,42.52c-4.5987-11.6114.126-25.0034,6.1484-32.4185,14.8154-18.2412,39.8008-19.6074,61.749-1.78C246.6924,241.2754,245.7051,265.8252,229.2021,286.1426ZM161.94,234.71c-8.4317,10.3813-5.0928,22.938,5.8808,31.8515l20.6143,16.7432c17.0547,13.852,30.8349,10.5225,38.3027,1.3281,8.4316-10.3813,6.3535-23.8838-16.7812-42.6743C186.5244,222.9268,172.1777,222.104,161.94,234.71Z"/><path d="M314.665,176.5547c3.6319,8.98,3.9395,27.8559-15.3173,42.3022-19.4092,14.5616-46.0059,7.7632-60.3379-11.3408-16.51-22.0078-13.3418-48.03,6.68-63.05s39.6621-12.08,57.6621,11.9146l-48.6,36.46c14.2168,17.0405,28.6992,18.8345,40.9638,12.2608,9.8965-5.2745,18.1485-18.1529,16.0069-28.0113Zm-28.9277-10.5425c-15.5928-20.7851-31.1455-24.6426-38.9394-18.7954-8.8643,6.65-6.4932,26.3672,6.2333,43.3315Z"/><path d="M629.5439,54.502l-.2236,2.6655c-5.331-.4478-13.042.0547-27.0869,28.0176l-35.9229,76.166c-5.5771,11.61-11.3232,16.1128-14.7675,18.3159-3.2539,2.2192-9.252,2.8657-13.09.626a11.8452,11.8452,0,0,1-4.6074-15.917,11.6821,11.6821,0,0,1,15.917-4.6065,10.2591,10.2591,0,0,1,5.1357,7.3335c.5537,2.5391,5.0928,1.003,8.5879-6.3725l9.835-21.2227c-14.0781-40.103-29.251-80.873-29.251-80.873-2.7558-8.2842-9.1973-9.2085-12.0361-9.6387l.2236-2.6655,42.0742,3.5341-.2236,2.6656c-11.042-.9278-6.4023,12.3076-6.4023,12.3076l17.9609,48.6733L599.6162,84.39s14.68-28.6762-7.4209-30.3408l.2236-2.6655Z"/><path d="M664.9053,158.5376C637.3,149.52,628.875,124.86,636.6465,101.0688c7.831-23.9726,29.13-38.7216,56.7353-29.7041,27.7862,9.0767,36.27,33.5557,28.4395,57.5279C714.05,152.6836,692.6914,167.6143,664.9053,158.5376Zm27.5859-84.4487c-13.4385-4.39-22.4053,1.5244-33.1435,34.3955s-6.9922,42.9389,6.4472,47.3291c13.6211,4.4492,22.4063-1.5244,33.1436-34.396S706.1123,78.5381,692.4912,74.0889Z"/><path d="M797.8135,222.8638l-23.4854-9.7046c-4.6035-2.0176-2.4531-5.4048-2.4531-5.4048l8.8066-13.8721c-9.0195,6.7212-25.9736,7.0474-36.458.3911-12.0976-7.68-18.5429-18.5605-6.05-38.2392L760.6,120.709c6.4522-10.1616,7.3887-10.9248-1.3525-17.832l1.5361-2.4195,27.915,13.4219-33.28,52.4228c-6.7588,10.646-3.8194,18.8487,5.5361,24.7881,6.13,3.8911,15.3311,2.9434,22.5947-1.7241l24.4737-38.5508c6.2461-9.8393,7.7548-11.1455.0986-16.9106l1.5361-2.4194,26.625,12.6025-39.22,61.7783c-4.916,7.7422-4.0781,9.6318,2.1846,14.7393Z"/><path d="M852.0811,259.3257c-8.3057,3.935-21.6963,3.2334-30.3614-5.1211-10.3154-9.9463-12.3994-20.4478,3.6475-37.09l40.1816-41.6758-6.8769-6.63,1.5761-2.4614,7.29,7.0288,18.3008-18.981,16.834,11.7188-20.5547,21.3193,16.3672,15.7813-2.5391,1.5322-15.8174-15.2505-39.7842,41.2627c-9.0185,9.353-9.1552,16.6523-2.416,23.15a13.1724,13.1724,0,0,0,13.4248,2.5928Z"/><path d="M901.8848,349.8911l-17.8037-18.1328c-3.4444-3.66-.1387-5.9336-.1387-5.9336l13.539-9.31c-10.9316,2.6484-26.6572-3.6958-33.6943-13.9288-8.1191-11.8066-9.7842-24.3427,9.4219-37.5507l34.4756-23.709c9.9179-6.82,11.0791-7.1553,5.7451-16.9356l2.3613-1.6235,20.4209,23.2881L885.0488,281.24c-10.3906,7.1451-10.9,15.8438-4.622,24.9747,4.1142,5.9819,12.9511,8.7163,21.4628,7.2685l37.6241-25.8745c9.6025-6.6035,11.5019-7.2139,6.7187-15.5186l2.3614-1.6235,19.5546,22.0288L907.8555,333.959c-7.5567,5.1968-7.5274,7.2632-3.7676,14.4165Z"/><path d="M917.8574,404.5825c-3.8388-10.5991-3.9238-20.9316-.3222-28.9419-7.292-3.8618-14.8721-11.8862-11.9981-12.9272l113.1748-40.99c6.1074-2.2119,8.1514-4.9843,7.46-13.0654l2.6943-.9761,15.8984,25.9424-63.413,22.9673c12.3213,2.04,21.3672,12.9883,24.62,21.97,8.0029,22.0962-3.6963,44.2158-30.2832,53.8452C947.3047,442.6865,926.7705,429.1934,917.8574,404.5825Zm78.7354-31.1587c-4.5547-12.5747-17.0381-16.1821-30.3311-11.3672l-24.9707,9.044c-20.6582,7.4819-24.9033,21.0088-20.8691,32.1465,4.5537,12.5752,17.1982,17.75,45.2226,7.6C994.0273,400.5664,1002.123,388.6934,996.5928,373.4238Z"/><path d="M967.5312,534.2993c-9.5634-1.5356-25.8808-11.0337-28.288-34.9873-2.4258-24.144,17.1464-43.3931,40.91-45.7812,27.376-2.751,48.0117,13.4179,50.5147,38.3222s-10.1709,40.1963-40.0186,43.1953l-6.0752-60.4545c-21.9375,3.3564-30.9629,14.8251-31.6787,28.7231-.6025,11.1982,6.1533,24.9214,15.6992,28.187Zm23.9834-19.3086c25.8545-2.5981,37.1993-13.916,36.2256-23.6113-1.1084-11.0264-19.2119-19.1929-40.3134-17.0723Z"/><path d="M909.7148,867.0654l-2.166-1.57c3.1407-4.331,6.6973-11.1914-9.9756-37.6728l-46.6191-70.1358c-7.0547-10.7763-7.9365-18.0234-8.042-22.1113-.2168-3.9326,2.332-9.4014,6.2334-11.5283a11.8462,11.8462,0,0,1,16.0068,4.2871,11.682,11.682,0,0,1-4.288,16.0068,10.2588,10.2588,0,0,1-8.9327.6035c-2.46-.8388-3.4921,3.8409,1.0137,10.6465l13.08,19.3926c41.6074,8.6865,84.3516,16.7822,84.3516,16.7822,8.5156,1.9248,12.6376-3.11,14.4746-5.3183l2.165,1.5693-24.7822,34.1875-2.1651-1.57c6.5039-8.9717-7.2255-11.8438-7.2255-11.8438l-50.95-9.7959,17.7138,26.9991s16.9551,27.3935,29.8086,9.3369l2.166,1.57Z"/><path d="M802.375,843.63c21.957-19.01,47.4336-13.5186,63.8174,5.4053,16.5078,19.0673,18.1689,44.9238-3.7881,63.9326-22.1016,19.1347-47.4531,13.789-63.9619-5.2793C782.06,888.7646,780.2734,862.7637,802.375,843.63Zm58.1533,67.1719c10.69-9.2549,10.2432-19.9883-12.3935-46.1348s-33.1944-28.125-43.8838-18.87c-10.834,9.3789-10.2432,19.9873,12.3926,46.1338S849.6943,920.1807,860.5283,910.8018Z"/><path d="M678.8037,924.5391l20.4014-15.1514c4.0976-2.9111,5.8965.6758,5.8965.6758l7.3691,14.6865c-1.1269-11.1924,7.3125-25.9,18.4131-31.47,12.8086-6.4258,25.4541-6.3574,35.9072,14.4775l18.7637,37.4c5.3974,10.7588,5.57,11.9541,15.9892,8.01l1.2852,2.5615-25.8672,17.0391-27.8457-55.502c-5.6543-11.2715-14.2012-12.9687-24.1064-7.999-6.4893,3.2549-10.4082,11.6347-10.1407,20.2636l20.4776,40.8165c5.2256,10.4169,5.57,12.3818,14.4521,8.7812l1.2852,2.5615-24.501,16.3535-32.8144-65.4072c-4.1133-8.1972-6.1641-8.4512-13.7647-5.707Z"/><path d="M619.624,952.1934c.9151-9.1455,8.4258-20.253,20.0537-23.3653,13.8428-3.7041,23.9131-.07,29.89,22.2627l14.9658,55.9248,9.2285-2.4687,1.2949,2.62-9.7822,2.6172,6.8164,25.4707-18.7246,8.374-7.6562-28.6084-21.9639,5.8779-.0029-2.9668,21.2256-5.68-14.8174-55.3711c-3.3584-12.5508-9.541-16.4346-18.585-14.0147a13.1712,13.1712,0,0,0-9.1475,10.1621Z"/><path d="M516.3584,947.9844l24.7246-5.8633c4.9141-1.0557,5.15,2.9492,5.15,2.9492l.97,16.4014c3.3848-10.7256,16.9463-20.9053,29.3428-21.6387,14.3037-.8457,25.8945,4.2109,27.2705,27.4785l2.47,41.7676c.71,12.0156.3965,13.1816,11.5254,13.6719l.169,2.8613-30.4912,5.4395-3.6651-61.9844c-.7441-12.5869-7.9258-17.5215-18.9873-16.8672-7.2471.4277-14.1562,6.5781-17.3174,14.6123l2.6944,45.582c.6884,11.6338.2285,13.5743,9.81,13.7735l.169,2.8613-28.9658,5.3486-4.3184-73.0459c-.541-9.1543-2.3252-10.1972-10.3916-10.6767Z"/><path d="M461.1865,933.5479c11.0625,2.164,19.9649,7.41,24.9785,14.621,7.0635-4.2636,17.8448-6.6328,17.2579-3.6328l-23.1094,118.125c-1.2471,6.375.0771,9.5547,7.3613,13.1211l-.55,2.8125-30.4238.2774,12.9482-66.1875c-8.0908,9.5136-22.1328,11.6338-31.5078,9.8-23.0625-4.5117-36.0039-25.9278-30.5752-53.6778C413.3623,939.1816,435.499,928.5225,461.1865,933.5479Zm-13.8125,83.54c13.125,2.5674,22.6426-6.2783,25.3565-20.1533l5.1-26.0625c4.2178-21.5625-5.1934-32.1641-16.8184-34.4385-13.125-2.5674-24.0693,5.6094-29.792,34.8594C425.4238,1000.918,431.4365,1013.97,447.374,1017.0879Z"/><path d="M324.4229,909.3408c6.2431-7.4062,22.788-16.498,44.5576-6.2217,21.9424,10.3584,28.3584,37.0489,18.1631,58.6465-11.7442,24.8789-36.2325,34.2364-58.8653,23.5518s-29.2109-29.4229-16.4062-56.5488l54.9424,25.9355c8.4238-20.5312,3.2441-34.1738-8.2989-41.9473-9.2871-6.2851-24.5283-7.5644-32.2441-1.0654Zm4.1943,30.501c-11.0918,23.498-7.2363,39.0508,1.5752,43.21,10.02,4.73,26.3457-6.5782,35.3984-25.7559Z"/></g></svg>